M48
; DRILL file {KiCad 5.1.4+dfsg1-1} date to. 23. jan. 2020 kl. 00.29 +0100
; FORMAT={-:-/ absolute / inch / decimal}
; #@! TF.CreationDate,2020-01-23T00:29:51+01:00
; #@! TF.GenerationSoftware,Kicad,Pcbnew,5.1.4+dfsg1-1
FMAT,2
INCH
T1C0.0433
T2C0.0591
T3C0.0630
T4C0.0787
T5C0.0866
T6C0.0984
T7C0.1024
T8C0.1457
T9C0.1299
%
G90
G05
T1
X0.8Y-3.0
X0.8Y-3.1
X0.8Y-4.0
X0.8Y-4.4
X0.8Y-4.8
X0.8Y-4.9
X0.8Y-5.6
X0.8Y-6.9
X0.85Y-4.1
X0.85Y-4.2
X0.9Y-3.6
X0.95Y-4.6
X1.1Y-5.4
X1.3Y-3.5
X1.3Y-3.8
X1.3Y-3.9
X1.3Y-5.4
X1.3Y-5.8
X1.3Y-8.1
X1.3Y-8.2
X1.3Y-8.3
X1.3Y-8.4
X1.3Y-8.5
X1.4Y-3.4
X1.4Y-3.6
X1.4Y-5.2
X1.4Y-7.8
X1.4Y-8.0
X1.4Y-8.2
X1.4Y-8.3
X1.4Y-8.4
X1.4Y-8.5
X1.4068Y-7.7035
X1.5Y-2.4
X1.5Y-8.7
X1.6Y-3.2
X1.6Y-3.3
X1.6Y-5.3
X1.6Y-6.5
X1.7Y-3.1
X1.7Y-5.0
X1.7Y-5.4
X1.7Y-6.9
X1.7Y-7.4
X1.7Y-7.7
X1.7Y-7.8
X1.8Y-3.6
X1.8Y-3.7
X1.9Y-3.8
X2.0Y-6.0
X2.0Y-7.4
X2.1Y-2.5
X2.2Y-2.5
X2.2Y-6.5
X2.2Y-6.9
X2.3Y-5.4
X2.3Y-7.3
X2.3Y-8.7
X2.3994Y-5.1956
X2.4Y-4.8
X2.4Y-5.3
X2.5Y-2.8
X2.5Y-5.2
X2.5Y-5.6
X2.5Y-5.8
X2.5Y-7.3
X2.6Y-3.1
X2.6Y-3.2
X2.6Y-4.0
X2.6Y-4.1
X2.6Y-5.9
X2.7Y-5.3
X2.8Y-3.1
X2.8Y-3.2
X2.8Y-3.3
X2.8Y-4.4
X2.8Y-4.7
X2.8Y-5.0
X2.8Y-5.4
X2.8Y-6.5
X2.8Y-6.9
X2.9Y-5.2
X2.9Y-7.3
X2.9Y-8.7
X3.0Y-2.4
X3.0Y-3.0
X3.0Y-5.0
X3.0Y-5.3
X3.1Y-5.2
X3.2Y-3.0
X3.2Y-3.7
X3.2Y-3.8
X3.2Y-3.9
X3.2Y-4.0
X3.2Y-4.2
X3.2Y-4.4
X3.2Y-4.5
X3.3Y-2.4
X3.3Y-4.7
X3.4Y-3.3
X3.4Y-3.4
X3.4Y-3.5
X3.4Y-3.7
X3.4Y-5.6
X3.4Y-6.5
X3.4Y-6.9
X3.4966Y-7.2962
X3.5Y-8.7
X3.6Y-3.1
X3.6Y-5.4
X3.7Y-4.3
X3.7Y-5.3
X3.8Y-7.3
X3.9Y-3.2
X3.9Y-4.7
X3.9Y-4.9
X3.9Y-5.1
X4.0Y-3.7
X4.0Y-5.4
X4.0Y-6.5
X4.0Y-6.9
X4.0Y-7.1
X4.1Y-3.1
X4.1Y-5.1
X4.1Y-5.3
X4.1Y-5.8
X4.1Y-7.3
X4.1Y-8.7
X4.2Y-4.7
X4.2Y-6.7
X4.2Y-8.2
X4.3Y-3.7
X4.3Y-3.8
X4.3Y-4.4
X4.3Y-4.5
X4.3Y-7.0
X4.4Y-2.7
X4.4Y-3.7
X4.4Y-5.0
X4.5Y-4.4
X4.5Y-4.5
X4.5Y-6.2
X4.5Y-6.8
X4.5Y-7.7
X4.6Y-4.3
X4.6Y-4.9
X4.6Y-8.7
X4.7Y-3.1
X4.7Y-4.6
X4.7Y-5.3
X4.7Y-6.5
X4.8Y-5.4
X4.8Y-6.9
X4.8Y-7.3
X4.9Y-2.4
X4.9Y-3.2
X4.9Y-3.5
X4.9Y-3.8
X4.9Y-3.9
X4.9Y-4.9
X4.9Y-6.6
X5.0Y-8.2
X5.1Y-2.4
X5.1Y-2.5
X5.1Y-3.1
X5.1Y-6.3
X5.1Y-7.5
X5.1Y-7.8
X5.2Y-4.8
X5.2Y-4.9
X5.2Y-6.0
X5.2Y-6.4
X5.2Y-7.2
X5.2Y-8.0
X5.3Y-2.4
X5.3Y-3.6
X5.3Y-4.4
X5.3Y-5.2
X5.3Y-6.9
X5.3Y-8.7
X5.4Y-2.4
X5.4Y-2.7
X5.4Y-4.6
X5.4Y-6.5
X5.5Y-7.0
X5.5Y-7.1
X5.6Y-2.4
X5.6Y-5.5
X5.6Y-6.6
X5.6Y-6.9
X5.6Y-8.1
X5.7Y-2.4
X5.7Y-4.8
X5.7Y-6.0
X5.7Y-6.2
X5.7Y-6.3
X5.7Y-6.4
X5.7Y-6.5
X5.7Y-7.2
X5.7Y-7.5
X5.8Y-5.8
X5.8Y-6.0
X5.8Y-6.2
X5.8Y-6.3
X5.8Y-6.9
X5.8Y-7.1
X5.8Y-7.3
X5.8Y-7.7
X5.8Y-8.1
X5.9Y-4.6
X5.9Y-5.3
X5.9Y-6.5
X5.9Y-7.7
X5.9Y-7.9
X5.9Y-8.0
X6.0Y-4.7
X6.0Y-4.8
X6.0Y-5.1
X6.0Y-7.1
X6.0Y-8.7
X6.1Y-3.1
X6.1Y-3.2
X6.1Y-4.4
X6.1Y-5.3
X6.1Y-6.5
X6.2Y-3.5
X6.2Y-3.6
X6.2Y-3.7
X6.2Y-3.8
X6.2Y-3.9
X6.2Y-4.0
X6.2Y-5.5
X6.2Y-5.8
X6.2Y-6.9
X6.2Y-7.4
X6.3Y-3.1
X6.3Y-3.3
X6.3Y-3.4
X6.3Y-4.2
X6.3Y-4.4
X6.3Y-4.5
X6.3Y-4.6
X6.3Y-5.6
X6.3Y-7.0
X6.3Y-7.1
X6.3Y-7.2
X6.4Y-2.5
X6.4Y-5.7
X6.4Y-5.8
X6.4Y-5.9
X6.4Y-7.5
X6.4Y-7.9
X6.5Y-2.6
X6.5Y-3.1
X6.5Y-3.3
X6.5Y-4.0
X6.5Y-4.1
X6.5Y-5.6
X6.5Y-6.5
X6.5Y-6.7
X6.5Y-7.2
X6.5Y-7.8
X6.5Y-8.2
X6.6Y-3.8
X6.6Y-4.0
X6.6Y-5.8
X6.6Y-6.0
X6.6Y-6.1
X6.6Y-6.2
X6.6Y-6.5
X6.6Y-7.2
X6.6Y-7.4
X6.6Y-7.5
X6.6Y-7.6
X6.6Y-8.2
X6.7Y-4.3
X6.7Y-4.4
X6.7Y-5.7
X6.7Y-6.9
X6.8Y-4.1
X6.8Y-6.5
X6.8Y-8.0
X6.8Y-8.7
X6.9Y-3.3
X6.9Y-5.9
X6.9Y-7.0
X6.9Y-7.2
X7.0Y-5.8
X7.1Y-4.4
X7.1Y-4.5
X7.1Y-4.6
X7.1Y-6.2
X7.1Y-7.5
X7.1Y-7.6
X7.1Y-7.8
X7.1Y-8.0
X7.2Y-3.5
X7.2Y-3.9
X7.2Y-4.0
X7.2Y-4.2
X7.2Y-4.3
X7.2Y-5.1
X7.2Y-5.4
X7.2Y-5.6
X7.2Y-6.1
X7.2Y-6.6
X7.2Y-7.4
X7.2951Y-2.6426
X7.3Y-3.1
X7.3Y-3.3
X7.3Y-3.7
X7.3Y-4.2
X7.3Y-5.5
X7.3Y-5.6
X7.3Y-5.8
X7.3Y-6.4
X7.3Y-7.9
X7.4Y-2.8
X7.4Y-3.4
X7.4Y-3.6
X7.4Y-4.0
X7.4Y-4.3
X7.4Y-5.2
X7.4Y-5.3
X7.4Y-5.4
X7.4Y-5.9
X7.4Y-6.9
X7.4Y-7.0
X7.4Y-7.5
X7.4Y-7.6
X7.4Y-8.2
X7.5Y-7.3
X7.5Y-7.7
X7.6Y-3.3
X7.6Y-3.4
X7.6Y-3.5
X7.6Y-4.1
X7.6Y-5.0
X7.6Y-5.3
X7.6Y-5.7
X7.6Y-6.4
X7.6Y-7.3
X7.6Y-7.5
X7.6Y-7.7
X7.6Y-8.1
X7.7Y-5.0
X7.7Y-6.1
X7.7Y-6.5
X7.7Y-7.7
X7.7Y-8.1
X7.8Y-3.0
X7.8Y-3.6
X7.8Y-5.2
X7.8Y-7.2
X7.8Y-7.7
X7.8Y-8.1
X7.8Y-8.2
X7.9Y-3.2
X7.9Y-3.7
X7.9Y-4.9
X7.9Y-5.6
X7.9Y-5.8
X7.9Y-5.9
X7.9Y-6.2
X7.9Y-7.0
X7.9Y-7.3
X7.9Y-7.4
X7.9Y-7.7
X7.9Y-8.1
X8.0Y-3.4
X8.0Y-4.9
X8.0Y-5.4
X8.0Y-5.5
X8.1Y-5.1
X8.2Y-3.1
X8.2Y-3.6
X8.2Y-5.1
X8.2Y-6.9
X8.3Y-3.7
X8.3Y-3.8
X8.3Y-3.9
X8.3Y-4.0
X8.3Y-5.1
X8.3Y-5.5
X8.3Y-5.7
X8.3Y-6.0
X8.3Y-6.1
X8.3Y-6.5
X8.4Y-4.1
X8.4Y-4.2
X8.4Y-4.3
X8.4Y-4.4
X8.4Y-4.8
X8.4Y-5.6
X8.4Y-5.8
X8.4Y-5.9
X8.4Y-6.1
X8.4Y-6.2
X8.5Y-4.5
X8.5Y-4.9
X8.6Y-3.4
X8.6Y-4.6
X8.7Y-3.5
X8.7Y-3.6
X8.7Y-3.7
X8.7Y-3.8
X8.7Y-5.1
X8.7Y-5.2
X8.7Y-5.3
X8.7Y-5.5
X8.7Y-6.5
X8.8Y-3.9
X8.8Y-4.0
X8.8Y-4.1
X8.8Y-5.2
X9.1Y-7.9
X9.2Y-7.9
X9.3Y-8.1
X9.4Y-7.0
X9.4Y-7.4
X9.5Y-2.6
X9.5Y-3.4
X9.5Y-4.6
X9.5Y-7.0
X9.5Y-7.4
X9.5Y-7.5
X9.5Y-8.1
X9.6Y-2.6
X9.6Y-3.4
X9.6Y-5.5
X9.6Y-5.6
X9.6Y-5.8
X9.6Y-5.9
X9.6Y-6.4
X9.6Y-6.5
X9.6Y-6.7
X9.6Y-6.9
X9.6Y-7.0
X9.6Y-7.1
X9.6Y-7.2
X9.7Y-2.6
X9.7Y-3.4
X9.7Y-5.2
X9.7Y-5.5
X9.7Y-5.6
X9.7Y-5.7
X9.7Y-5.8
X9.7Y-5.9
X9.7Y-6.0
X9.7Y-6.1
X9.7Y-6.2
X9.7Y-6.3
X9.7Y-6.4
X9.7Y-6.5
X9.7Y-6.6
X9.7Y-6.7
X9.7Y-6.8
X9.7Y-7.2
X9.7Y-7.3
X9.7Y-7.4
X9.7Y-7.9
X9.7Y-8.7
X9.9Y-4.2
X10.0Y-5.4
X10.0Y-5.5
X10.0Y-5.6
X10.0Y-5.7
X10.0Y-6.3
X10.0Y-6.4
X10.0Y-6.5
X10.0Y-6.6
X10.0Y-6.7
X10.0Y-6.8
X10.0Y-7.0
X10.0Y-7.1
X10.0Y-7.3
X10.0Y-7.4
X10.1Y-5.3
X10.1Y-7.4
X10.2Y-4.3
X10.2Y-4.7
X10.2Y-5.1
X10.3Y-2.7
X10.3Y-3.4
X10.3Y-4.3
X10.3Y-4.7
X10.3Y-5.3
X10.3Y-5.5
X10.3Y-6.6
X10.3Y-7.0
X10.4Y-2.7
X10.4Y-3.4
X10.4Y-4.3
X10.4Y-4.7
X10.4Y-6.9
X10.4Y-7.1
X10.4Y-7.8
X10.5Y-2.7
X10.5Y-3.4
X10.5Y-4.3
X10.5Y-4.7
X10.5Y-7.8
X10.6Y-7.3
X10.6Y-7.4
X10.6Y-7.8
X10.7Y-8.1
X10.7Y-8.7
X10.8Y-8.1
X10.9Y-8.0
X10.9Y-8.1
X10.9Y-8.7
X11.0Y-7.2
X11.1Y-4.3
X11.1Y-4.7
X11.1Y-5.9
X11.1Y-6.9
X11.2Y-4.3
X11.2Y-4.7
X11.2Y-5.5
X11.3Y-4.3
X11.3Y-4.7
X11.3Y-4.9
X11.3Y-5.8
X11.4Y-4.3
X11.4Y-4.7
X11.4Y-6.7
X11.4Y-7.4
X11.5Y-4.9
X11.5Y-5.1
X11.5Y-5.2
X11.5Y-5.5
X11.5905Y-8.696
X11.6Y-3.2
X11.6905Y-8.696
X11.7Y-3.1
X11.7Y-5.1
X11.7Y-5.4
X11.7Y-5.7
X11.7Y-6.1
X11.7Y-6.5
X11.7534Y-3.0158
X11.7905Y-8.696
X11.8Y-5.1
X11.8Y-5.9
X11.8Y-6.9
X11.8905Y-8.696
X11.9Y-3.7
X11.9Y-4.2
X11.9Y-5.4
X11.9Y-5.7
X11.9Y-5.8
X11.9905Y-8.696
X12.0Y-4.4
X12.0905Y-8.696
X12.1Y-4.4
X12.1Y-5.3
X12.1Y-7.4
X12.1905Y-8.696
X12.2Y-3.7
X12.2Y-4.4
X12.2Y-5.4
X12.2Y-6.1
X12.3Y-3.9
X12.3Y-5.9
X12.4Y-6.3
X12.4Y-7.0
X12.4955Y-8.6923
X12.5Y-4.3
X12.5Y-7.0
X12.6Y-4.5
X12.7Y-5.1
X12.7Y-5.4
X12.8Y-4.5
X12.8Y-6.8
X12.9Y-4.1
X13.0Y-4.2
X13.0Y-5.4
X13.1Y-4.5
X13.1Y-6.5
X13.2Y-4.6
X13.3Y-5.0
X13.3Y-5.6
X13.3Y-6.0
X13.3Y-6.5
X13.4Y-3.6
X13.4Y-4.3
X13.5Y-3.6
X13.5Y-3.8
X13.6Y-3.6
X13.6Y-4.9
X13.6Y-6.0
X13.6Y-6.6
X13.7Y-3.5
X13.8Y-3.5
X13.9Y-2.8
X13.9Y-3.5
X13.9Y-4.6
X14.0Y-2.8
X14.0Y-3.5
X14.1Y-2.8
X14.1646Y-2.9
X14.2Y-7.4
X14.2Y-7.5
X14.3Y-3.4
X14.3Y-4.9
X14.4Y-3.1
X14.5Y-3.3
X14.5Y-6.6
X14.7Y-3.9
X14.7Y-4.5
X14.8933Y-6.6468
X15.0Y-5.4
X15.0Y-5.5
X10.9Y-6.2
X10.9Y-6.7
X13.0Y-6.3
X13.1Y-6.2
X13.2Y-6.3
X14.9Y-7.2
X15.4Y-7.2
X13.8Y-6.3
X14.3Y-6.3
X4.4Y-2.8
X4.9Y-2.8
X15.6Y-7.1959
X15.6Y-7.2959
X15.6Y-7.3959
X14.3Y-3.5
X14.7Y-3.5
X15.3Y-5.45
X15.3Y-5.5591
X15.3Y-5.6681
X15.3Y-5.7772
X15.3Y-5.8862
X15.4118Y-5.5045
X15.4118Y-5.6136
X15.4118Y-5.7226
X15.4118Y-5.8317
X13.2Y-7.6
X13.2Y-8.1
X9.2Y-7.2
X9.2Y-7.6
X13.8Y-5.7
X13.9Y-5.7
X1.5Y-3.1
X1.5Y-3.2
X1.5Y-3.3
X1.5Y-3.4
X1.5Y-3.5
X1.5Y-3.6
X1.5Y-3.7
X1.5Y-3.8
X1.5Y-3.9
X1.5Y-4.0
X1.5Y-4.1
X1.5Y-4.2
X1.5Y-4.3
X1.5Y-4.4
X1.5Y-4.5
X1.5Y-4.6
X1.5Y-4.7
X1.5Y-4.8
X1.5Y-4.9
X1.5Y-5.0
X2.1Y-3.1
X2.1Y-3.2
X2.1Y-3.3
X2.1Y-3.4
X2.1Y-3.5
X2.1Y-3.6
X2.1Y-3.7
X2.1Y-3.8
X2.1Y-3.9
X2.1Y-4.0
X2.1Y-4.1
X2.1Y-4.2
X2.1Y-4.3
X2.1Y-4.4
X2.1Y-4.5
X2.1Y-4.6
X2.1Y-4.7
X2.1Y-4.8
X2.1Y-4.9
X2.1Y-5.0
X0.8Y-7.4
X1.3Y-7.4
X12.7Y-6.5
X12.9Y-6.5
X0.8Y-7.3
X1.3Y-7.3
X5.8Y-2.8
X6.3Y-2.8
X12.6Y-5.9
X12.8Y-5.9
X9.6Y-8.2
X9.7Y-8.2
X5.4Y-2.8
X5.6Y-2.8
X14.15Y-3.8
X14.15Y-4.2
X14.65Y-3.8
X14.65Y-4.2
X5.1Y-3.0
X5.6Y-3.0
X4.0Y-3.0
X4.5Y-3.0
X8.7Y-5.0
X9.2Y-5.0
X11.0Y-4.9
X11.0Y-5.4
X11.1Y-4.9
X11.1Y-5.4
X7.5Y-5.2
X7.5Y-5.3
X7.5Y-5.4
X7.5Y-5.5
X7.5Y-5.6
X7.5Y-5.7
X7.5Y-5.8
X7.5Y-5.9
X7.5Y-6.0
X7.5Y-6.1
X7.5Y-6.2
X7.5Y-6.3
X7.5Y-6.4
X7.5Y-6.5
X8.1Y-5.2
X8.1Y-5.3
X8.1Y-5.4
X8.1Y-5.5
X8.1Y-5.6
X8.1Y-5.7
X8.1Y-5.8
X8.1Y-5.9
X8.1Y-6.0
X8.1Y-6.1
X8.1Y-6.2
X8.1Y-6.3
X8.1Y-6.4
X8.1Y-6.5
X13.7Y-5.9
X13.9Y-5.9
X7.7Y-6.7
X7.9Y-6.7
X1.3Y-7.1
X1.4Y-7.1
X1.1Y-3.2
X1.1Y-3.3
X1.1Y-3.4
X1.1Y-3.5
X1.1Y-3.6
X1.1Y-3.7
X1.1Y-3.8
X1.1Y-3.9
X1.1Y-4.0
X1.1Y-4.1
X1.1Y-4.2
X1.1Y-4.3
X1.1Y-4.4
X1.1Y-4.5
X1.1Y-4.6
X1.1Y-4.7
X1.1Y-4.8
X1.1Y-4.9
X1.1Y-5.1
X0.8Y-7.5
X1.3Y-7.5
X6.5Y-7.5
X6.5Y-8.0
X14.8Y-5.2
X14.8Y-6.7
X0.8Y-6.4
X1.3Y-6.4
X12.6Y-7.0
X12.6Y-7.1
X12.6Y-7.2
X8.2Y-7.2
X8.2Y-7.7
X11.6Y-3.7
X11.7Y-3.7
X5.8Y-3.0
X6.0Y-3.0
X12.7Y-4.1
X12.7Y-4.3
X4.5Y-3.2
X4.5Y-3.3
X4.5Y-3.4
X4.5Y-3.5
X4.5Y-3.6
X4.5Y-3.7
X4.5Y-3.8
X4.5Y-3.9
X4.5Y-4.0
X4.5Y-4.1
X4.5Y-4.2
X4.5Y-4.3
X5.1Y-3.2
X5.1Y-3.3
X5.1Y-3.4
X5.1Y-3.5
X5.1Y-3.6
X5.1Y-3.7
X5.1Y-3.8
X5.1Y-3.9
X5.1Y-4.0
X5.1Y-4.1
X5.1Y-4.2
X5.1Y-4.3
X7.9Y-2.9
X8.1Y-2.9
X13.0Y-7.75
X13.0Y-7.95
X10.2Y-5.0
X10.7Y-5.0
X15.4Y-8.1
X15.6Y-8.1
X13.0Y-3.9
X13.0Y-4.4
X13.2Y-5.7
X13.2Y-5.9
X10.5Y-5.2
X10.7Y-5.2
X6.0Y-8.2
X6.2Y-8.2
X2.7Y-2.9
X2.9Y-2.9
X12.3Y-3.7
X12.4Y-3.7
X12.5Y-3.7
X12.6Y-3.7
X12.7Y-3.7
X12.8Y-3.7
X12.9Y-3.7
X13.0Y-3.7
X13.1Y-3.7
X13.2Y-3.7
X13.8Y-6.1
X14.3Y-6.1
X3.9Y-7.3
X3.9Y-7.4
X3.9Y-7.5
X3.9Y-7.6
X3.9Y-7.7
X3.9Y-7.8
X3.9Y-7.9
X3.9Y-8.0
X4.2Y-7.3
X4.2Y-7.4
X4.2Y-7.5
X4.2Y-7.6
X4.2Y-7.7
X4.2Y-7.8
X4.2Y-7.9
X4.2Y-8.0
X12.5Y-6.8
X12.5Y-7.3
X11.2Y-6.8
X11.7Y-6.8
X9.3Y-4.8
X9.3Y-5.3
X8.8Y-7.2
X8.8Y-7.7
X14.1Y-4.5
X14.5Y-4.5
X8.0Y-7.2
X8.0Y-7.7
X12.063Y-3.1
X12.063Y-3.3
X12.163Y-3.1
X12.163Y-3.3
X12.263Y-3.1
X12.263Y-3.3
X12.363Y-3.1
X12.363Y-3.3
X12.463Y-3.1
X12.463Y-3.3
X12.563Y-3.1
X12.563Y-3.3
X12.663Y-3.1
X12.663Y-3.3
X12.763Y-3.1
X12.763Y-3.3
X12.863Y-3.1
X12.863Y-3.3
X12.963Y-3.1
X12.963Y-3.3
X13.063Y-3.1
X13.063Y-3.3
X13.163Y-3.1
X13.163Y-3.3
X13.263Y-3.1
X13.263Y-3.3
X13.363Y-3.1
X13.363Y-3.3
X13.463Y-3.1
X13.463Y-3.3
X13.563Y-3.1
X13.563Y-3.3
X13.663Y-3.1
X13.663Y-3.3
X13.763Y-3.1
X13.763Y-3.3
X13.863Y-3.1
X13.863Y-3.3
X13.963Y-3.1
X13.963Y-3.3
X14.063Y-3.1
X14.063Y-3.3
X14.163Y-3.1
X14.163Y-3.3
X2.7Y-8.2
X2.9Y-8.2
X14.9Y-7.4
X15.4Y-7.4
X4.6Y-6.7
X4.8Y-6.7
X0.8Y-6.0
X1.3Y-6.0
X12.0Y-6.3
X12.2Y-6.3
X1.5Y-7.4
X1.5Y-7.5
X1.5Y-7.6
X1.5Y-7.7
X1.5Y-7.8
X1.5Y-7.9
X1.5Y-8.0
X1.8Y-7.4
X1.8Y-7.5
X1.8Y-7.6
X1.8Y-7.7
X1.8Y-7.8
X1.8Y-7.9
X1.8Y-8.0
X1.5Y-6.7
X1.7Y-6.7
X0.8Y-7.8
X1.3Y-7.8
X6.0Y-6.7
X6.2Y-6.7
X3.3Y-5.8
X3.3Y-5.9
X3.3Y-6.0
X3.3Y-6.1
X3.3Y-6.2
X3.3Y-6.3
X3.3Y-6.4
X3.3Y-6.5
X3.6Y-5.8
X3.6Y-5.9
X3.6Y-6.0
X3.6Y-6.1
X3.6Y-6.2
X3.6Y-6.3
X3.6Y-6.4
X3.6Y-6.5
X0.8Y-6.6
X1.3Y-6.6
X8.9Y-6.7
X9.1Y-6.7
X10.1Y-8.7
X10.3Y-8.7
X12.0Y-4.9
X12.2Y-4.9
X7.6Y-2.9
X7.7Y-2.9
X9.3Y-8.7
X9.4Y-8.7
X3.3Y-2.8
X3.3Y-3.0
X12.5Y-3.9
X12.5Y-4.4
X11.8Y-6.8
X11.8Y-7.3
X1.5Y-8.2
X1.7Y-8.2
X4.6Y-2.7
X5.1Y-2.7
X3.3Y-7.3
X3.3Y-7.4
X3.3Y-7.5
X3.3Y-7.6
X3.3Y-7.7
X3.3Y-7.8
X3.3Y-7.9
X3.3Y-8.0
X3.6Y-7.3
X3.6Y-7.4
X3.6Y-7.5
X3.6Y-7.6
X3.6Y-7.7
X3.6Y-7.8
X3.6Y-7.9
X3.6Y-8.0
X5.3Y-5.8
X5.3Y-5.9
X5.3Y-6.0
X5.3Y-6.1
X5.3Y-6.2
X5.3Y-6.3
X5.3Y-6.4
X5.3Y-6.5
X5.6Y-5.8
X5.6Y-5.9
X5.6Y-6.0
X5.6Y-6.1
X5.6Y-6.2
X5.6Y-6.3
X5.6Y-6.4
X5.6Y-6.5
X15.1Y-4.0
X15.1Y-4.2
X13.6Y-6.1
X13.6Y-6.3
X2.1Y-8.2
X2.3Y-8.2
X9.0Y-7.2
X9.0Y-7.6
X0.8Y-6.2
X1.3Y-6.2
X5.3Y-8.2
X5.5Y-8.2
X14.9Y-7.0
X15.4Y-7.0
X4.4Y-7.3
X4.4Y-7.4
X4.4Y-7.5
X4.4Y-7.6
X4.4Y-7.7
X4.4Y-7.8
X4.4Y-7.9
X4.4Y-8.0
X4.4Y-7.1
X4.9Y-7.1
X9.8Y-7.9
X9.9Y-7.9
X10.0Y-7.9
X13.3Y-7.6
X13.3Y-8.1
X2.7Y-5.8
X2.7Y-5.9
X2.7Y-6.0
X2.7Y-6.1
X2.7Y-6.2
X2.7Y-6.3
X2.7Y-6.4
X2.7Y-6.5
X3.0Y-5.8
X3.0Y-5.9
X3.0Y-6.0
X3.0Y-6.1
X3.0Y-6.2
X3.0Y-6.3
X3.0Y-6.4
X3.0Y-6.5
X12.6Y-5.1
X12.6Y-5.2
X12.6Y-5.3
X12.6Y-5.4
X12.6Y-5.5
X12.6Y-5.6
X12.6Y-5.7
X12.9Y-5.1
X12.9Y-5.2
X12.9Y-5.3
X12.9Y-5.4
X12.9Y-5.5
X12.9Y-5.6
X12.9Y-5.7
X11.1Y-6.8
X11.1Y-7.3
X12.0Y-5.1
X12.0Y-5.2
X12.0Y-5.3
X12.0Y-5.4
X12.0Y-5.5
X12.0Y-5.6
X12.0Y-5.7
X12.0Y-5.8
X12.3Y-5.1
X12.3Y-5.2
X12.3Y-5.3
X12.3Y-5.4
X12.3Y-5.5
X12.3Y-5.6
X12.3Y-5.7
X12.3Y-5.8
X1.5Y-2.9
X1.7Y-2.9
X10.1Y-5.4
X10.1Y-5.5
X10.1Y-5.6
X10.1Y-5.7
X10.1Y-5.8
X10.1Y-5.9
X10.1Y-6.0
X10.1Y-6.1
X10.1Y-6.2
X10.1Y-6.3
X10.1Y-6.4
X10.1Y-6.5
X10.1Y-6.6
X10.1Y-6.7
X10.1Y-6.8
X10.1Y-6.9
X10.1Y-7.0
X10.1Y-7.1
X10.1Y-7.2
X10.1Y-7.3
X10.7Y-5.4
X10.7Y-5.5
X10.7Y-5.6
X10.7Y-5.7
X10.7Y-5.8
X10.7Y-5.9
X10.7Y-6.0
X10.7Y-6.1
X10.7Y-6.2
X10.7Y-6.3
X10.7Y-6.4
X10.7Y-6.5
X10.7Y-6.6
X10.7Y-6.7
X10.7Y-6.8
X10.7Y-6.9
X10.7Y-7.0
X10.7Y-7.1
X10.7Y-7.2
X10.7Y-7.3
X10.1Y-8.0
X10.1Y-8.2
X12.7Y-6.6
X13.2Y-6.6
X7.9Y-8.6
X8.0Y-8.6
X12.2Y-8.0
X12.2Y-8.1
X12.2Y-8.2
X15.3Y-4.2
X15.3Y-4.3091
X15.3Y-4.4181
X15.3Y-4.5272
X15.3Y-4.6362
X15.4118Y-4.2545
X15.4118Y-4.3636
X15.4118Y-4.4726
X15.4118Y-4.5817
X11.9Y-6.0
X12.4Y-6.0
X11.7Y-8.0
X11.7Y-8.2
X2.2Y-7.1
X2.3Y-7.1
X14.5Y-6.7
X14.5Y-8.2
X6.7Y-3.3
X6.7Y-3.4
X6.7Y-3.5
X6.7Y-3.6
X6.7Y-3.7
X6.7Y-3.8
X6.7Y-3.9
X6.7Y-4.0
X6.7Y-4.1
X7.0Y-3.3
X7.0Y-3.4
X7.0Y-3.5
X7.0Y-3.6
X7.0Y-3.7
X7.0Y-3.8
X7.0Y-3.9
X7.0Y-4.0
X7.0Y-4.1
X6.8Y-6.7
X7.0Y-6.7
X3.3Y-8.2
X3.5Y-8.2
X9.9Y-8.2
X9.9Y-8.7
X13.8Y-6.5
X14.3Y-6.5
X14.2Y-5.3
X14.3Y-5.3
X12.1Y-4.1
X12.1Y-4.2
X12.1Y-4.3
X3.9Y-6.7
X4.1Y-6.7
X12.6Y-4.9
X12.8Y-4.9
X5.3Y-7.1
X5.3Y-7.2
X5.3Y-7.3
X5.3Y-7.4
X5.3Y-7.5
X5.3Y-7.6
X5.3Y-7.7
X5.3Y-7.8
X5.3Y-7.9
X5.3Y-8.0
X5.6Y-7.1
X5.6Y-7.2
X5.6Y-7.3
X5.6Y-7.4
X5.6Y-7.5
X5.6Y-7.6
X5.6Y-7.7
X5.6Y-7.8
X5.6Y-7.9
X5.6Y-8.0
X4.6Y-5.8
X4.6Y-5.9
X4.6Y-6.0
X4.6Y-6.1
X4.6Y-6.2
X4.6Y-6.3
X4.6Y-6.4
X4.6Y-6.5
X4.9Y-5.8
X4.9Y-5.9
X4.9Y-6.0
X4.9Y-6.1
X4.9Y-6.2
X4.9Y-6.3
X4.9Y-6.4
X4.9Y-6.5
X8.3Y-4.9
X8.3Y-5.3
X11.2Y-7.3
X11.7Y-7.3
X12.7Y-6.7
X13.2Y-6.7
X0.8Y-7.6
X1.3Y-7.6
X1.6Y-7.1
X1.8Y-7.1
X3.4Y-4.6
X3.9Y-4.6
X9.1Y-4.5
X9.2Y-4.5
X8.5Y-6.7
X8.7Y-6.7
X11.9Y-8.0
X11.9Y-8.1
X12.9Y-3.9
X12.9Y-4.4
X9.4Y-6.7
X9.4Y-7.2
X11.8Y-6.5
X11.8Y-6.6
X9.3Y-5.4
X9.3Y-5.6
X10.0Y-5.0
X10.0Y-5.2
X12.5Y-6.6
X12.5Y-6.7
X11.1Y-6.2
X11.1Y-6.7
X2.1Y-6.7
X2.3Y-6.7
X14.1Y-6.7
X14.3Y-6.7
X5.3Y-6.7
X5.5Y-6.7
X14.8Y-2.1
X14.8Y-2.7
X12.3Y-4.1
X12.3Y-4.2
X12.3Y-4.3
X6.0Y-5.8
X6.0Y-5.9
X6.0Y-6.0
X6.0Y-6.1
X6.0Y-6.2
X6.0Y-6.3
X6.0Y-6.4
X6.0Y-6.5
X6.3Y-5.8
X6.3Y-5.9
X6.3Y-6.0
X6.3Y-6.1
X6.3Y-6.2
X6.3Y-6.3
X6.3Y-6.4
X6.3Y-6.5
X4.7Y-3.0
X4.9Y-3.0
X4.2Y-5.5
X4.7Y-5.5
X8.7Y-4.8
X9.2Y-4.8
X10.9Y-6.8
X10.9Y-7.3
X8.5Y-5.2
X8.5Y-5.3
X8.5Y-5.4
X8.5Y-5.5
X8.5Y-5.6
X8.5Y-5.7
X8.5Y-5.8
X8.5Y-5.9
X8.5Y-6.0
X8.5Y-6.1
X8.5Y-6.2
X8.5Y-6.3
X8.5Y-6.4
X8.5Y-6.5
X9.1Y-5.2
X9.1Y-5.3
X9.1Y-5.4
X9.1Y-5.5
X9.1Y-5.6
X9.1Y-5.7
X9.1Y-5.8
X9.1Y-5.9
X9.1Y-6.0
X9.1Y-6.1
X9.1Y-6.2
X9.1Y-6.3
X9.1Y-6.4
X9.1Y-6.5
X5.8Y-5.3
X6.3Y-5.3
X4.6Y-8.2
X4.8Y-8.2
X14.9Y-7.6
X15.4Y-7.6
X5.8Y-5.4
X6.3Y-5.4
X8.3Y-5.4
X8.3Y-5.8
X3.9Y-5.8
X3.9Y-5.9
X3.9Y-6.0
X3.9Y-6.1
X3.9Y-6.2
X3.9Y-6.3
X3.9Y-6.4
X3.9Y-6.5
X4.2Y-5.8
X4.2Y-5.9
X4.2Y-6.0
X4.2Y-6.1
X4.2Y-6.2
X4.2Y-6.3
X4.2Y-6.4
X4.2Y-6.5
X12.0Y-6.5
X12.0Y-6.6
X12.0Y-6.7
X12.0Y-6.8
X12.0Y-6.9
X12.0Y-7.0
X12.0Y-7.1
X12.0Y-7.2
X12.3Y-6.5
X12.3Y-6.6
X12.3Y-6.7
X12.3Y-6.8
X12.3Y-6.9
X12.3Y-7.0
X12.3Y-7.1
X12.3Y-7.2
X11.3Y-6.0
X11.3Y-6.6
X11.6Y-6.0
X11.6Y-6.6
X14.2Y-5.7
X14.3Y-5.7
X13.2Y-4.9
X13.2Y-5.4
X5.5Y-3.2
X5.5Y-3.3
X5.5Y-3.4
X5.5Y-3.5
X5.5Y-3.6
X5.5Y-3.7
X5.5Y-3.8
X5.5Y-3.9
X5.5Y-4.0
X5.5Y-4.1
X5.5Y-4.2
X5.5Y-4.3
X6.1Y-3.2
X6.1Y-3.3
X6.1Y-3.4
X6.1Y-3.5
X6.1Y-3.6
X6.1Y-3.7
X6.1Y-3.8
X6.1Y-3.9
X6.1Y-4.0
X6.1Y-4.1
X6.1Y-4.2
X6.1Y-4.3
X7.5Y-3.1
X7.5Y-3.2
X7.5Y-3.3
X7.5Y-3.4
X7.5Y-3.5
X7.5Y-3.6
X7.5Y-3.7
X7.5Y-3.8
X7.5Y-3.9
X7.5Y-4.0
X7.5Y-4.1
X7.5Y-4.2
X7.5Y-4.3
X7.5Y-4.4
X7.5Y-4.5
X7.5Y-4.6
X7.5Y-4.7
X7.5Y-4.8
X7.5Y-4.9
X7.5Y-5.0
X8.1Y-3.1
X8.1Y-3.2
X8.1Y-3.3
X8.1Y-3.4
X8.1Y-3.5
X8.1Y-3.6
X8.1Y-3.7
X8.1Y-3.8
X8.1Y-3.9
X8.1Y-4.0
X8.1Y-4.1
X8.1Y-4.2
X8.1Y-4.3
X8.1Y-4.4
X8.1Y-4.5
X8.1Y-4.6
X8.1Y-4.7
X8.1Y-4.8
X8.1Y-4.9
X8.1Y-5.0
X12.9Y-6.0
X12.9Y-6.1
X12.9Y-6.2
X9.4Y-5.1
X9.4Y-5.3
X4.6Y-7.3
X4.6Y-7.4
X4.6Y-7.5
X4.6Y-7.6
X4.6Y-7.7
X4.6Y-7.8
X4.6Y-7.9
X4.6Y-8.0
X4.9Y-7.3
X4.9Y-7.4
X4.9Y-7.5
X4.9Y-7.6
X4.9Y-7.7
X4.9Y-7.8
X4.9Y-7.9
X4.9Y-8.0
X10.5Y-8.2
X10.5Y-8.7
X11.4Y-6.9
X11.6Y-6.9
X9.4Y-4.5
X9.5Y-4.5
X2.1Y-5.8
X2.1Y-5.9
X2.1Y-6.0
X2.1Y-6.1
X2.1Y-6.2
X2.1Y-6.3
X2.1Y-6.4
X2.1Y-6.5
X2.4Y-5.8
X2.4Y-5.9
X2.4Y-6.0
X2.4Y-6.1
X2.4Y-6.2
X2.4Y-6.3
X2.4Y-6.4
X2.4Y-6.5
X4.4Y-5.8
X4.4Y-5.9
X4.4Y-6.0
X4.4Y-6.1
X4.4Y-6.2
X4.4Y-6.3
X4.4Y-6.4
X4.4Y-6.5
X2.5Y-3.1
X2.5Y-3.2
X2.5Y-3.3
X2.5Y-3.4
X2.5Y-3.5
X2.5Y-3.6
X2.5Y-3.7
X2.5Y-3.8
X2.5Y-3.9
X2.5Y-4.0
X2.5Y-4.1
X2.5Y-4.2
X2.5Y-4.3
X2.5Y-4.4
X2.5Y-4.5
X2.5Y-4.6
X2.5Y-4.7
X2.5Y-4.8
X2.5Y-4.9
X2.5Y-5.0
X3.1Y-3.1
X3.1Y-3.2
X3.1Y-3.3
X3.1Y-3.4
X3.1Y-3.5
X3.1Y-3.6
X3.1Y-3.7
X3.1Y-3.8
X3.1Y-3.9
X3.1Y-4.0
X3.1Y-4.1
X3.1Y-4.2
X3.1Y-4.3
X3.1Y-4.4
X3.1Y-4.5
X3.1Y-4.6
X3.1Y-4.7
X3.1Y-4.8
X3.1Y-4.9
X3.1Y-5.0
X11.8Y-4.4
X11.9Y-4.4
X3.3Y-6.7
X3.5Y-6.7
X0.8Y-5.9
X1.3Y-5.9
X3.5Y-3.2
X3.5Y-3.3
X3.5Y-3.4
X3.5Y-3.5
X3.5Y-3.6
X3.5Y-3.7
X3.5Y-3.8
X3.5Y-3.9
X3.5Y-4.0
X3.5Y-4.1
X3.5Y-4.2
X3.5Y-4.3
X4.1Y-3.2
X4.1Y-3.3
X4.1Y-3.4
X4.1Y-3.5
X4.1Y-3.6
X4.1Y-3.7
X4.1Y-3.8
X4.1Y-3.9
X4.1Y-4.0
X4.1Y-4.1
X4.1Y-4.2
X4.1Y-4.3
X3.6Y-3.0
X3.8Y-3.0
X6.7Y-7.4
X6.7Y-7.5
X6.7Y-7.6
X6.7Y-7.7
X6.7Y-7.8
X6.7Y-7.9
X6.7Y-8.0
X7.0Y-7.4
X7.0Y-7.5
X7.0Y-7.6
X7.0Y-7.7
X7.0Y-7.8
X7.0Y-7.9
X7.0Y-8.0
X14.7Y-4.7
X14.8Y-4.7
X14.9Y-4.7
X6.8Y-3.0
X7.0Y-3.0
X0.8Y-5.7
X1.3Y-5.7
X9.4795Y-4.1847
X9.5795Y-4.1847
X9.6795Y-4.1847
X9.7795Y-4.1847
X10.7189Y-4.1847
X10.8189Y-4.1847
X10.9189Y-4.1847
X11.0189Y-4.1847
X6.7Y-5.9
X6.7Y-6.0
X6.7Y-6.1
X6.7Y-6.2
X6.7Y-6.3
X6.7Y-6.4
X6.7Y-6.5
X7.0Y-5.9
X7.0Y-6.0
X7.0Y-6.1
X7.0Y-6.2
X7.0Y-6.3
X7.0Y-6.4
X7.0Y-6.5
X11.2Y-7.1
X11.7Y-7.1
X15.0Y-2.7
X15.0Y-2.9
X3.9Y-8.2
X4.1Y-8.2
X8.6Y-7.2
X8.6Y-7.7
X9.6Y-4.9
X9.6Y-5.4
X14.1Y-5.9
X14.3Y-5.9
X6.0Y-7.4
X6.0Y-7.5
X6.0Y-7.6
X6.0Y-7.7
X6.0Y-7.8
X6.0Y-7.9
X6.0Y-8.0
X6.3Y-7.4
X6.3Y-7.5
X6.3Y-7.6
X6.3Y-7.7
X6.3Y-7.8
X6.3Y-7.9
X6.3Y-8.0
X13.2Y-4.2
X13.2Y-4.3
X13.2Y-4.4
X0.8Y-7.9
X1.3Y-7.9
X2.1Y-7.3
X2.1Y-7.4
X2.1Y-7.5
X2.1Y-7.6
X2.1Y-7.7
X2.1Y-7.8
X2.1Y-7.9
X2.1Y-8.0
X2.4Y-7.3
X2.4Y-7.4
X2.4Y-7.5
X2.4Y-7.6
X2.4Y-7.7
X2.4Y-7.8
X2.4Y-7.9
X2.4Y-8.0
X2.5Y-2.5
X2.6Y-2.5
X2.7Y-2.5
X2.8Y-2.5
X2.9Y-2.5
X3.0Y-2.5
X3.1Y-2.5
X3.2Y-2.5
X11.3Y-5.1
X11.3Y-5.2
X11.3Y-5.3
X11.3Y-5.4
X11.3Y-5.5
X11.3Y-5.6
X11.3Y-5.7
X11.6Y-5.1
X11.6Y-5.2
X11.6Y-5.3
X11.6Y-5.4
X11.6Y-5.5
X11.6Y-5.6
X11.6Y-5.7
X6.8Y-8.2
X7.0Y-8.2
X11.6Y-4.2
X11.6Y-4.4
X13.4Y-3.9
X13.4Y-4.4
X5.8Y-5.5
X6.3Y-5.5
X13.1Y-4.9
X13.1Y-5.4
X13.1Y-5.5
X13.1Y-6.0
X14.7Y-5.0
X14.9Y-5.0
X13.8Y-6.7
X13.8Y-8.2
X1.5Y-5.9
X1.5Y-6.0
X1.5Y-6.1
X1.5Y-6.2
X1.5Y-6.3
X1.5Y-6.4
X1.5Y-6.5
X1.8Y-5.9
X1.8Y-6.0
X1.8Y-6.1
X1.8Y-6.2
X1.8Y-6.3
X1.8Y-6.4
X1.8Y-6.5
X11.1Y-5.6
X11.1Y-6.1
X13.5Y-3.9
X13.5Y-4.4
X14.9Y-4.0
X14.9Y-4.2
X14.1Y-5.5
X14.3Y-5.5
X1.8Y-5.6
X2.3Y-5.6
X15.4Y-7.8
X15.6Y-7.8
X15.0Y-2.3
X15.0Y-2.5
X12.7Y-6.8
X13.2Y-6.8
X12.0Y-7.3
X12.2Y-7.3
X2.7Y-6.7
X2.9Y-6.7
X2.7Y-7.3
X2.7Y-7.4
X2.7Y-7.5
X2.7Y-7.6
X2.7Y-7.7
X2.7Y-7.8
X2.7Y-7.9
X2.7Y-8.0
X3.0Y-7.3
X3.0Y-7.4
X3.0Y-7.5
X3.0Y-7.6
X3.0Y-7.7
X3.0Y-7.8
X3.0Y-7.9
X3.0Y-8.0
X8.4Y-7.2
X8.4Y-7.7
X11.2Y-7.0
X11.7Y-7.0
X0.8Y-7.7
X1.3Y-7.7
T2
X14.1Y-4.7
X14.1Y-5.0
X14.4Y-4.7
X14.4Y-5.0
T3
X7.9767Y-2.3148
X7.9767Y-2.5117
X8.0752Y-1.9211
X8.0752Y-2.4132
X8.272Y-2.3148
X8.272Y-2.5117
X8.4689Y-1.9211
X8.4689Y-2.4148
X8.5673Y-2.3148
X8.5673Y-2.5117
X6.8031Y-2.3192
X6.9015Y-1.9255
X6.9015Y-2.4177
X7.0984Y-2.3192
X7.0984Y-2.5161
X7.2952Y-1.9255
X7.2952Y-2.4192
X7.3937Y-2.3192
X15.2904Y-2.5237
X15.2904Y-3.1143
X15.3888Y-2.6222
X15.3888Y-3.0159
X15.4872Y-2.5237
X15.4872Y-2.819
X15.4872Y-3.1143
X15.8809Y-2.6222
X15.8809Y-3.0159
T4
X14.9593Y-3.4368
X14.9593Y-3.627
X15.1093Y-3.4368
X15.1093Y-3.627
X15.2593Y-3.4368
X15.2593Y-3.627
X15.7628Y-3.4368
X15.7628Y-3.627
T5
X9.0507Y-2.5332
X9.6719Y-4.3201
X9.8538Y-5.3139
X10.826Y-1.9224
X11.035Y-7.49
X11.4418Y-3.6924
X12.6106Y-4.7262
X13.4Y-6.9
X13.8Y-4.0
X13.8Y-4.3
X13.8Y-5.1
X13.8Y-5.4
T6
X11.56Y-3.0
X14.665Y-3.0
T7
X0.7875Y-8.7
X8.865Y-8.705
X15.7725Y-2.015
T8
X0.9Y-8.585
X0.905Y-2.605
X4.08Y-2.615
X7.69Y-2.615
X8.4725Y-8.5975
X15.365Y-2.1275
X15.6525Y-8.6075
X15.6575Y-2.145
X15.7875Y-6.555
T9
X15.7071Y-5.176
X15.7071Y-6.1602
X15.7071Y-3.926
X15.7071Y-4.9102
T0
M30
