G04 #@! TF.GenerationSoftware,KiCad,Pcbnew,5.1.4+dfsg1-1*
G04 #@! TF.CreationDate,2020-01-23T00:29:48+01:00*
G04 #@! TF.ProjectId,KU-14194HB-REV-B-KiCad,4b552d31-3431-4393-9448-422d5245562d,1.4*
G04 #@! TF.SameCoordinates,Original*
G04 #@! TF.FileFunction,Profile,NP*
%FSLAX46Y46*%
G04 Gerber Fmt 4.6, Leading zero omitted, Abs format (unit mm)*
G04 Created by KiCad (PCBNEW 5.1.4+dfsg1-1) date 2020-01-23 00:29:48*
%MOMM*%
%LPD*%
G04 APERTURE LIST*
%ADD10C,0.100000*%
%ADD11C,0.050000*%
G04 APERTURE END LIST*
D10*
X82296000Y-46355000D02*
X85407500Y-46355000D01*
X80073500Y-47307500D02*
X79121000Y-46355000D01*
X81343500Y-47307500D02*
X82296000Y-46355000D01*
X81343500Y-56515000D02*
X81343500Y-47307500D01*
X80073500Y-56515000D02*
X81343500Y-56515000D01*
X80073500Y-47307500D02*
X80073500Y-56515000D01*
D11*
X243586000Y-49466500D02*
X243586000Y-47879000D01*
X248031000Y-49466500D02*
X243586000Y-49466500D01*
X248031000Y-47879000D02*
X248031000Y-49466500D01*
X243586000Y-47879000D02*
X248031000Y-47879000D01*
X272796000Y-110426500D02*
X272796000Y-108839000D01*
X277241000Y-110426500D02*
X272796000Y-110426500D01*
X277241000Y-110426500D02*
X277241000Y-108839000D01*
X272796000Y-108839000D02*
X277241000Y-108839000D01*
D10*
X249713800Y-173037500D02*
X251301200Y-173037500D01*
X251301200Y-173037500D02*
X251301200Y-177482500D01*
X251301200Y-177482500D02*
X249713800Y-177482500D01*
X249713800Y-177482500D02*
X249713800Y-173037500D01*
X322534200Y-189638900D02*
X322534200Y-191226400D01*
X322534200Y-191226400D02*
X318089200Y-191226400D01*
X318089200Y-191226400D02*
X318089200Y-189638900D01*
X318089200Y-189638900D02*
X322534200Y-189638900D01*
X272739300Y-119497700D02*
X272739300Y-121085200D01*
X272739300Y-121085200D02*
X268294300Y-121085200D01*
X268294300Y-121085200D02*
X268294300Y-119497700D01*
X268294300Y-119497700D02*
X272739300Y-119497700D01*
X14900000Y-58100000D02*
X35560000Y-58100000D01*
X35560000Y-58100000D02*
X35560000Y-47307500D01*
X35560000Y-47307500D02*
X36512500Y-46355000D01*
X36512500Y-46355000D02*
X43497500Y-46355000D01*
X43497500Y-46355000D02*
X44450000Y-47307500D01*
X44450000Y-47307500D02*
X44450000Y-56515000D01*
X44450000Y-56515000D02*
X45720000Y-56515000D01*
X45720000Y-56515000D02*
X45720000Y-47307500D01*
X45720000Y-47307500D02*
X46672500Y-46355000D01*
X46672500Y-46355000D02*
X79121000Y-46355000D01*
X85407500Y-46355000D02*
X86360000Y-47307500D01*
X86360000Y-47307500D02*
X86360000Y-58102500D01*
X86360000Y-58102500D02*
X120967500Y-58102500D01*
X120967500Y-58102500D02*
X120967500Y-47307500D01*
X120967500Y-47307500D02*
X121920000Y-46355000D01*
X121920000Y-46355000D02*
X136842500Y-46355000D01*
X136842500Y-46355000D02*
X137795000Y-47307500D01*
X137795000Y-47307500D02*
X137795000Y-56515000D01*
X137795000Y-56515000D02*
X139065000Y-56515000D01*
X139065000Y-56515000D02*
X139065000Y-47307500D01*
X139065000Y-47307500D02*
X140017500Y-46355000D01*
X140017500Y-46355000D02*
X147002500Y-46355000D01*
X147002500Y-46355000D02*
X147955000Y-47307500D01*
X147955000Y-47307500D02*
X147955000Y-58102500D01*
X147955000Y-58102500D02*
X160020000Y-58102500D01*
X160020000Y-58102500D02*
X160020000Y-46037500D01*
X160020000Y-46037500D02*
X297497500Y-46037500D01*
X297497500Y-46037500D02*
X297497500Y-74930000D01*
X297497500Y-74930000D02*
X301307500Y-74930000D01*
X301307500Y-74930000D02*
X301307500Y-64135000D01*
X301307500Y-64135000D02*
X364807500Y-64135000D01*
X364807500Y-64135000D02*
X364807500Y-75565000D01*
X364807500Y-75565000D02*
X368617500Y-75565000D01*
X368617500Y-75565000D02*
X368617500Y-46355000D01*
X368617500Y-46355000D02*
X405130000Y-46355000D01*
X405130000Y-46355000D02*
X405130000Y-226377500D01*
X405130000Y-226377500D02*
X14900000Y-226377500D01*
X14900000Y-226377500D02*
X14900000Y-58100000D01*
X339842800Y-132960900D02*
X341430400Y-132960900D01*
X341430400Y-132960900D02*
X341430400Y-137405900D01*
X341430400Y-137405900D02*
X339842800Y-137405900D01*
X339842800Y-137405900D02*
X339842800Y-132960900D01*
X394780200Y-142829400D02*
X398590200Y-142829400D01*
X398590200Y-142829400D02*
X398590200Y-146004400D01*
X398590200Y-146004400D02*
X394780200Y-146004400D01*
X394780200Y-146004400D02*
X394780200Y-142829400D01*
X394818200Y-111025800D02*
X398628200Y-111025800D01*
X398628200Y-111025800D02*
X398628200Y-114200800D01*
X398628200Y-114200800D02*
X394818200Y-114200800D01*
X394818200Y-114200800D02*
X394818200Y-111025800D01*
X229051700Y-91759200D02*
X230639200Y-91759200D01*
X230639200Y-91759200D02*
X230639200Y-96204200D01*
X230639200Y-96204200D02*
X229051700Y-96204200D01*
X229051700Y-96204200D02*
X229051700Y-91759200D01*
X290139400Y-62595200D02*
X291727000Y-62595200D01*
X291727000Y-62595200D02*
X291727000Y-67040200D01*
X291727000Y-67040200D02*
X290139400Y-67040200D01*
X290139400Y-67040200D02*
X290139400Y-62595200D01*
X292761600Y-49634400D02*
X294349000Y-49634400D01*
X294349000Y-49634400D02*
X294349000Y-54079400D01*
X294349000Y-54079400D02*
X292761600Y-54079400D01*
X292761600Y-54079400D02*
X292761600Y-49634400D01*
X371670600Y-49416500D02*
X373258100Y-49416500D01*
X373258100Y-49416500D02*
X373258100Y-53861500D01*
X373258100Y-53861500D02*
X371670600Y-53861500D01*
X371670600Y-53861500D02*
X371670600Y-49416500D01*
M02*
