%TF.GenerationSoftware,KiCad,Pcbnew,5.1.7-a382d34a8~88~ubuntu18.04.1*%
%TF.CreationDate,2021-04-19T08:29:39-04:00*%
%TF.ProjectId,coco2,636f636f-322e-46b6-9963-61645f706362,1*%
%TF.SameCoordinates,Original*%
%TF.FileFunction,Soldermask,Top*%
%TF.FilePolarity,Negative*%
%FSLAX46Y46*%
G04 Gerber Fmt 4.6, Leading zero omitted, Abs format (unit mm)*
G04 Created by KiCad (PCBNEW 5.1.7-a382d34a8~88~ubuntu18.04.1) date 2021-04-19 08:29:39*
%MOMM*%
%LPD*%
G01*
G04 APERTURE LIST*
%ADD10C,2.100000*%
%ADD11C,1.700000*%
%ADD12R,1.700000X1.700000*%
%ADD13O,8.000000X4.000000*%
%ADD14C,4.000000*%
%ADD15C,1.600200*%
%ADD16C,4.500000*%
%ADD17C,1.778000*%
%ADD18C,2.540000*%
%ADD19C,1.950000*%
%ADD20C,2.400000*%
%ADD21R,1.950000X1.950000*%
%ADD22O,1.800000X1.800000*%
%ADD23R,1.800000X1.800000*%
%ADD24O,2.400000X2.400000*%
%ADD25C,1.320800*%
%ADD26R,1.320800X1.320800*%
%ADD27O,1.600000X1.600000*%
%ADD28R,1.600000X1.600000*%
%ADD29C,1.600000*%
%ADD30R,2.400000X2.400000*%
%ADD31C,2.000000*%
%ADD32R,2.200000X2.200000*%
%ADD33O,2.200000X2.200000*%
%ADD34R,3.200000X3.200000*%
%ADD35O,3.200000X3.200000*%
%ADD36C,2.600000*%
%ADD37R,2.600000X2.600000*%
%ADD38C,6.350000*%
%ADD39O,1.050000X1.500000*%
%ADD40R,1.050000X1.500000*%
%ADD41C,3.044000*%
%ADD42C,0.100000*%
%ADD43C,1.500000*%
%ADD44O,1.700000X1.700000*%
%ADD45C,0.254000*%
G04 APERTURE END LIST*
D10*
%TO.C,C43*%
X257160000Y-102310000D03*
X257160000Y-97310000D03*
%TD*%
D11*
%TO.C,U9*%
X229290000Y-83840000D03*
X229290000Y-81300000D03*
X229290000Y-78760000D03*
X229290000Y-76220000D03*
X229290000Y-73680000D03*
X229290000Y-71140000D03*
D12*
X229290000Y-68600000D03*
D13*
X221790000Y-95840000D03*
X236790000Y-95840000D03*
X236790000Y-29840000D03*
X221790000Y-29840000D03*
%TD*%
D14*
%TO.C,J6*%
X333519000Y-119832500D03*
X333519000Y-54427500D03*
D15*
X324857600Y-111260000D03*
X324857600Y-108720000D03*
X324857600Y-106180000D03*
X324857600Y-103640000D03*
X324857600Y-101100000D03*
X324857600Y-98560000D03*
X324857600Y-96020000D03*
X324857600Y-93480000D03*
X324857600Y-90940000D03*
X324857600Y-88400000D03*
X324857600Y-85860000D03*
X324857600Y-83320000D03*
X324857600Y-80780000D03*
X324857600Y-78240000D03*
X324857600Y-75700000D03*
X324857600Y-73160000D03*
X324857600Y-70620000D03*
X324857600Y-68080000D03*
X324857600Y-65540000D03*
X324857600Y-63000000D03*
X328820000Y-111260000D03*
X328820000Y-108720000D03*
X328820000Y-106180000D03*
X328820000Y-103640000D03*
X328820000Y-101100000D03*
X328820000Y-98560000D03*
X328820000Y-96020000D03*
X328820000Y-93480000D03*
X328820000Y-90940000D03*
X328820000Y-88400000D03*
X328820000Y-85860000D03*
X328820000Y-83320000D03*
X328820000Y-80780000D03*
X328820000Y-78240000D03*
X328820000Y-75700000D03*
X328820000Y-73160000D03*
X328820000Y-70620000D03*
X328820000Y-68080000D03*
X328820000Y-65540000D03*
X328820000Y-63000000D03*
%TD*%
D16*
%TO.C,H1*%
X19450000Y-160500000D03*
%TD*%
D17*
%TO.C,S2*%
X277820000Y-29300000D03*
X282320000Y-29300000D03*
D18*
X276570000Y-31800000D03*
X283570000Y-31800000D03*
%TD*%
D19*
%TO.C,J4*%
X185450000Y-29350000D03*
X195450000Y-29350000D03*
X197950000Y-39350000D03*
D20*
X197950000Y-34350000D03*
X182950000Y-34350000D03*
D19*
X185450000Y-41850000D03*
X195450000Y-41850000D03*
D21*
X182950000Y-39350000D03*
D19*
X190450000Y-39350000D03*
X187950000Y-29350000D03*
X192950000Y-29350000D03*
%TD*%
%TO.C,J3*%
X173450000Y-29350000D03*
X163450000Y-29350000D03*
D20*
X175950000Y-34350000D03*
X160950000Y-34350000D03*
D19*
X165950000Y-41850000D03*
X170950000Y-41850000D03*
D21*
X163450000Y-39350000D03*
D19*
X173450000Y-39350000D03*
X165950000Y-29350000D03*
X170950000Y-29350000D03*
%TD*%
%TO.C,J2*%
X151790000Y-29350000D03*
X141790000Y-29350000D03*
X146790000Y-44350000D03*
X154290000Y-39350000D03*
D20*
X154290000Y-34350000D03*
X139290000Y-34350000D03*
D19*
X141790000Y-41850000D03*
X151790000Y-41850000D03*
D21*
X139290000Y-39350000D03*
D19*
X146790000Y-39350000D03*
X144290000Y-29350000D03*
X149290000Y-29350000D03*
%TD*%
%TO.C,J1*%
X129710000Y-29350000D03*
X119710000Y-29350000D03*
X124710000Y-44350000D03*
X132210000Y-39350000D03*
D20*
X132210000Y-34350000D03*
X117210000Y-34350000D03*
D19*
X119710000Y-41850000D03*
X129710000Y-41850000D03*
D21*
X117210000Y-39350000D03*
D19*
X124710000Y-39350000D03*
X122210000Y-29350000D03*
X127210000Y-29350000D03*
%TD*%
D22*
%TO.C,CR7*%
X126690000Y-59370000D03*
D23*
X126690000Y-49210000D03*
%TD*%
D22*
%TO.C,CR8*%
X129930000Y-59370000D03*
D23*
X129930000Y-49210000D03*
%TD*%
D22*
%TO.C,CR13*%
X127780000Y-113160000D03*
D23*
X127780000Y-103000000D03*
%TD*%
D24*
%TO.C,R2*%
X58210000Y-151330000D03*
D20*
X73450000Y-151330000D03*
%TD*%
D25*
%TO.C,FB1*%
X115770000Y-61270000D03*
D26*
X115770000Y-47300000D03*
%TD*%
D25*
%TO.C,FB2*%
X119910000Y-61270000D03*
D26*
X119910000Y-47300000D03*
%TD*%
D25*
%TO.C,FB4*%
X245700000Y-110130000D03*
D26*
X245700000Y-124100000D03*
%TD*%
D25*
%TO.C,FB7*%
X278140000Y-107050000D03*
D26*
X278140000Y-121020000D03*
%TD*%
D27*
%TO.C,U11*%
X251990000Y-65680000D03*
X244370000Y-83460000D03*
X251990000Y-68220000D03*
X244370000Y-80920000D03*
X251990000Y-70760000D03*
X244370000Y-78380000D03*
X251990000Y-73300000D03*
X244370000Y-75840000D03*
X251990000Y-75840000D03*
X244370000Y-73300000D03*
X251990000Y-78380000D03*
X244370000Y-70760000D03*
X251990000Y-80920000D03*
X244370000Y-68220000D03*
X251990000Y-83460000D03*
D28*
X244370000Y-65680000D03*
%TD*%
D27*
%TO.C,U22*%
X274540000Y-105390000D03*
X259300000Y-153650000D03*
X274540000Y-107930000D03*
X259300000Y-151110000D03*
X274540000Y-110470000D03*
X259300000Y-148570000D03*
X274540000Y-113010000D03*
X259300000Y-146030000D03*
X274540000Y-115550000D03*
X259300000Y-143490000D03*
X274540000Y-118090000D03*
X259300000Y-140950000D03*
X274540000Y-120630000D03*
X259300000Y-138410000D03*
X274540000Y-123170000D03*
X259300000Y-135870000D03*
X274540000Y-125710000D03*
X259300000Y-133330000D03*
X274540000Y-128250000D03*
X259300000Y-130790000D03*
X274540000Y-130790000D03*
X259300000Y-128250000D03*
X274540000Y-133330000D03*
X259300000Y-125710000D03*
X274540000Y-135870000D03*
X259300000Y-123170000D03*
X274540000Y-138410000D03*
X259300000Y-120630000D03*
X274540000Y-140950000D03*
X259300000Y-118090000D03*
X274540000Y-143490000D03*
X259300000Y-115550000D03*
X274540000Y-146030000D03*
X259300000Y-113010000D03*
X274540000Y-148570000D03*
X259300000Y-110470000D03*
X274540000Y-151110000D03*
X259300000Y-107930000D03*
X274540000Y-153650000D03*
D28*
X259300000Y-105390000D03*
%TD*%
%TO.C,U12*%
X259490000Y-45950000D03*
D27*
X274730000Y-73890000D03*
X259490000Y-48490000D03*
X274730000Y-71350000D03*
X259490000Y-51030000D03*
X274730000Y-68810000D03*
X259490000Y-53570000D03*
X274730000Y-66270000D03*
X259490000Y-56110000D03*
X274730000Y-63730000D03*
X259490000Y-58650000D03*
X274730000Y-61190000D03*
X259490000Y-61190000D03*
X274730000Y-58650000D03*
X259490000Y-63730000D03*
X274730000Y-56110000D03*
X259490000Y-66270000D03*
X274730000Y-53570000D03*
X259490000Y-68810000D03*
X274730000Y-51030000D03*
X259490000Y-71350000D03*
X274730000Y-48490000D03*
X259490000Y-73890000D03*
X274730000Y-45950000D03*
%TD*%
D28*
%TO.C,U13*%
X284900000Y-45950000D03*
D27*
X300140000Y-73890000D03*
X284900000Y-48490000D03*
X300140000Y-71350000D03*
X284900000Y-51030000D03*
X300140000Y-68810000D03*
X284900000Y-53570000D03*
X300140000Y-66270000D03*
X284900000Y-56110000D03*
X300140000Y-63730000D03*
X284900000Y-58650000D03*
X300140000Y-61190000D03*
X284900000Y-61190000D03*
X300140000Y-58650000D03*
X284900000Y-63730000D03*
X300140000Y-56110000D03*
X284900000Y-66270000D03*
X300140000Y-53570000D03*
X284900000Y-68810000D03*
X300140000Y-51030000D03*
X284900000Y-71350000D03*
X300140000Y-48490000D03*
X284900000Y-73890000D03*
X300140000Y-45950000D03*
%TD*%
%TO.C,U5*%
X159020000Y-54800000D03*
X151400000Y-77660000D03*
X159020000Y-57340000D03*
X151400000Y-75120000D03*
X159020000Y-59880000D03*
X151400000Y-72580000D03*
X159020000Y-62420000D03*
X151400000Y-70040000D03*
X159020000Y-64960000D03*
X151400000Y-67500000D03*
X159020000Y-67500000D03*
X151400000Y-64960000D03*
X159020000Y-70040000D03*
X151400000Y-62420000D03*
X159020000Y-72580000D03*
X151400000Y-59880000D03*
X159020000Y-75120000D03*
X151400000Y-57340000D03*
X159020000Y-77660000D03*
D28*
X151400000Y-54800000D03*
%TD*%
D27*
%TO.C,U6*%
X159020000Y-87900000D03*
X151400000Y-110760000D03*
X159020000Y-90440000D03*
X151400000Y-108220000D03*
X159020000Y-92980000D03*
X151400000Y-105680000D03*
X159020000Y-95520000D03*
X151400000Y-103140000D03*
X159020000Y-98060000D03*
X151400000Y-100600000D03*
X159020000Y-100600000D03*
X151400000Y-98060000D03*
X159020000Y-103140000D03*
X151400000Y-95520000D03*
X159020000Y-105680000D03*
X151400000Y-92980000D03*
X159020000Y-108220000D03*
X151400000Y-90440000D03*
X159020000Y-110760000D03*
D28*
X151400000Y-87900000D03*
%TD*%
D27*
%TO.C,U10*%
X252320000Y-40300000D03*
X244700000Y-55540000D03*
X252320000Y-42840000D03*
X244700000Y-53000000D03*
X252320000Y-45380000D03*
X244700000Y-50460000D03*
X252320000Y-47920000D03*
X244700000Y-47920000D03*
X252320000Y-50460000D03*
X244700000Y-45380000D03*
X252320000Y-53000000D03*
X244700000Y-42840000D03*
X252320000Y-55540000D03*
D28*
X244700000Y-40300000D03*
%TD*%
D29*
%TO.C,C1*%
X61490000Y-108580000D03*
D28*
X61490000Y-113580000D03*
%TD*%
D30*
%TO.C,C2*%
X80050000Y-116210000D03*
D20*
X80050000Y-108710000D03*
%TD*%
D27*
%TO.C,C3*%
X86220000Y-128800000D03*
D29*
X76220000Y-128800000D03*
%TD*%
%TO.C,C4*%
X76220000Y-131960000D03*
D27*
X86220000Y-131960000D03*
%TD*%
D28*
%TO.C,C5*%
X71320000Y-140720000D03*
D29*
X66320000Y-140720000D03*
%TD*%
%TO.C,C6*%
X63710000Y-154990000D03*
D27*
X73710000Y-154990000D03*
%TD*%
D28*
%TO.C,C11*%
X306750000Y-63730000D03*
D29*
X306750000Y-68730000D03*
%TD*%
D27*
%TO.C,C15*%
X133380000Y-45680000D03*
D29*
X133380000Y-55680000D03*
%TD*%
%TO.C,C18*%
X143930000Y-55900000D03*
D27*
X143930000Y-45900000D03*
%TD*%
D29*
%TO.C,C19*%
X134010000Y-58650000D03*
D27*
X144010000Y-58650000D03*
%TD*%
%TO.C,C21*%
X151570000Y-50400000D03*
D29*
X161570000Y-50400000D03*
%TD*%
D27*
%TO.C,C24*%
X143340000Y-90530000D03*
D29*
X133340000Y-90530000D03*
%TD*%
%TO.C,C25*%
X150200000Y-82070000D03*
D27*
X160200000Y-82070000D03*
%TD*%
D29*
%TO.C,C26*%
X136150000Y-107840000D03*
X133650000Y-107840000D03*
%TD*%
%TO.C,C28*%
X112790000Y-132000000D03*
D27*
X112790000Y-122000000D03*
%TD*%
%TO.C,C29*%
X168070000Y-107700000D03*
D29*
X178070000Y-107700000D03*
%TD*%
D27*
%TO.C,C30*%
X189330000Y-106000000D03*
D29*
X189330000Y-96000000D03*
%TD*%
D27*
%TO.C,C32*%
X237870000Y-103200000D03*
D29*
X227870000Y-103200000D03*
%TD*%
%TO.C,C33*%
X253450000Y-35250000D03*
D27*
X243450000Y-35250000D03*
%TD*%
%TO.C,C34*%
X255170000Y-76100000D03*
D29*
X255170000Y-66100000D03*
%TD*%
%TO.C,C35*%
X262115000Y-40770000D03*
D27*
X272115000Y-40770000D03*
%TD*%
D29*
%TO.C,C36*%
X287525000Y-41060000D03*
D27*
X297525000Y-41060000D03*
%TD*%
D29*
%TO.C,C37*%
X318170000Y-46800000D03*
X318170000Y-41800000D03*
%TD*%
%TO.C,C38*%
X318070000Y-58100000D03*
X318070000Y-53100000D03*
%TD*%
%TO.C,C39*%
X325000000Y-52200000D03*
X325000000Y-57200000D03*
%TD*%
D27*
%TO.C,C40*%
X316250000Y-62930000D03*
D29*
X316250000Y-72930000D03*
%TD*%
D31*
%TO.C,C44*%
X234770000Y-114100000D03*
X234770000Y-119100000D03*
%TD*%
D29*
%TO.C,C45*%
X262200000Y-100210000D03*
D27*
X272200000Y-100210000D03*
%TD*%
%TO.C,C47*%
X281840000Y-121000000D03*
D29*
X281840000Y-111000000D03*
%TD*%
D28*
%TO.C,C48*%
X313000000Y-133790000D03*
D29*
X313000000Y-135790000D03*
%TD*%
D27*
%TO.C,C50*%
X115060000Y-156900000D03*
D29*
X125060000Y-156900000D03*
%TD*%
%TO.C,C51*%
X142929000Y-156900000D03*
D27*
X132929000Y-156900000D03*
%TD*%
%TO.C,C52*%
X150797000Y-156900000D03*
D29*
X160797000Y-156900000D03*
%TD*%
%TO.C,C53*%
X178666000Y-156900000D03*
D27*
X168666000Y-156900000D03*
%TD*%
%TO.C,C54*%
X186534000Y-156900000D03*
D29*
X196534000Y-156900000D03*
%TD*%
%TO.C,C55*%
X214403000Y-156900000D03*
D27*
X204403000Y-156900000D03*
%TD*%
%TO.C,C56*%
X222271000Y-156900000D03*
D29*
X232271000Y-156900000D03*
%TD*%
%TO.C,C57*%
X250140000Y-156900000D03*
D27*
X240140000Y-156900000D03*
%TD*%
D29*
%TO.C,C58*%
X311825000Y-142380000D03*
D27*
X311825000Y-152380000D03*
%TD*%
D29*
%TO.C,C59*%
X210970000Y-106600000D03*
X205970000Y-106600000D03*
%TD*%
%TO.C,C60*%
X136470000Y-117500000D03*
X131470000Y-117500000D03*
%TD*%
%TO.C,C61*%
X241470000Y-59300000D03*
X241470000Y-54300000D03*
%TD*%
D32*
%TO.C,CR1*%
X94870000Y-96130000D03*
D33*
X94870000Y-106290000D03*
%TD*%
%TO.C,CR2*%
X98250000Y-106290000D03*
D32*
X98250000Y-96130000D03*
%TD*%
D34*
%TO.C,CR3*%
X94520000Y-111030000D03*
D35*
X94520000Y-126270000D03*
%TD*%
%TO.C,CR4*%
X100340000Y-126270000D03*
D34*
X100340000Y-111030000D03*
%TD*%
D27*
%TO.C,CR5*%
X93870000Y-162120000D03*
D28*
X93870000Y-154500000D03*
%TD*%
D27*
%TO.C,CR6*%
X97370000Y-162120000D03*
D28*
X97370000Y-154500000D03*
%TD*%
%TO.C,CR9*%
X215040000Y-43180000D03*
D27*
X215040000Y-35560000D03*
%TD*%
%TO.C,CR10*%
X254470000Y-136180000D03*
D28*
X254470000Y-143800000D03*
%TD*%
%TO.C,CR11*%
X309960000Y-126080000D03*
D27*
X309960000Y-118460000D03*
%TD*%
D28*
%TO.C,CR12*%
X308960000Y-151200000D03*
D27*
X308960000Y-143580000D03*
%TD*%
D36*
%TO.C,E1*%
X67060000Y-103700000D03*
%TD*%
%TO.C,E2*%
X94180000Y-64420000D03*
%TD*%
%TO.C,E3*%
X94170000Y-77330000D03*
%TD*%
D27*
%TO.C,K1*%
X203510000Y-30970000D03*
X211130000Y-46210000D03*
X203510000Y-43670000D03*
X211130000Y-30970000D03*
X203510000Y-48750000D03*
%TD*%
D37*
%TO.C,Q1*%
X48040000Y-133610000D03*
D36*
X48040000Y-122690000D03*
D38*
X61340000Y-128160000D03*
X31140000Y-128160000D03*
%TD*%
D39*
%TO.C,Q2*%
X138310000Y-113370000D03*
X139580000Y-113370000D03*
D40*
X137040000Y-113370000D03*
%TD*%
D29*
%TO.C,R1*%
X63550000Y-147150000D03*
D27*
X73710000Y-147150000D03*
%TD*%
D29*
%TO.C,R3*%
X89660000Y-149560000D03*
D27*
X89660000Y-139400000D03*
%TD*%
%TO.C,R4*%
X101470000Y-149560000D03*
D29*
X101470000Y-139400000D03*
%TD*%
D27*
%TO.C,R5*%
X124580000Y-102890000D03*
D29*
X124580000Y-113050000D03*
%TD*%
%TO.C,R6*%
X130910000Y-113050000D03*
D27*
X130910000Y-102890000D03*
%TD*%
D29*
%TO.C,R7*%
X126070000Y-86400000D03*
D27*
X126070000Y-96560000D03*
%TD*%
D29*
%TO.C,R8*%
X129970000Y-86400000D03*
D27*
X129970000Y-96560000D03*
%TD*%
%TO.C,R9*%
X147570000Y-113060000D03*
D29*
X147570000Y-102900000D03*
%TD*%
D27*
%TO.C,R10*%
X146580000Y-85440000D03*
D29*
X146580000Y-95600000D03*
%TD*%
%TO.C,R12*%
X214910000Y-60550000D03*
D27*
X214910000Y-50390000D03*
%TD*%
%TO.C,R13*%
X216070000Y-77360000D03*
D29*
X216070000Y-67200000D03*
%TD*%
%TO.C,R14*%
X214970000Y-83900000D03*
D27*
X214970000Y-94060000D03*
%TD*%
%TO.C,R15*%
X240630000Y-111810000D03*
D29*
X240630000Y-121970000D03*
%TD*%
D27*
%TO.C,R16*%
X308290000Y-46400000D03*
D29*
X308290000Y-56560000D03*
%TD*%
%TO.C,R17*%
X311495000Y-46400000D03*
D27*
X311495000Y-56560000D03*
%TD*%
%TO.C,R18*%
X314700000Y-56560000D03*
D29*
X314700000Y-46400000D03*
%TD*%
D27*
%TO.C,R19*%
X321480000Y-47240000D03*
D29*
X321480000Y-57400000D03*
%TD*%
D27*
%TO.C,R20*%
X313220000Y-116760000D03*
D29*
X313220000Y-126920000D03*
%TD*%
%TO.C,R21*%
X316360000Y-126920000D03*
D27*
X316360000Y-116760000D03*
%TD*%
D29*
%TO.C,R22*%
X314950000Y-152360000D03*
D27*
X314950000Y-142200000D03*
%TD*%
%TO.C,R26*%
X253470000Y-122260000D03*
D29*
X253470000Y-112100000D03*
%TD*%
%TO.C,R25*%
X213070000Y-67200000D03*
D27*
X213070000Y-77360000D03*
%TD*%
D29*
%TO.C,R24*%
X249570000Y-111800000D03*
D27*
X249570000Y-121960000D03*
%TD*%
D28*
%TO.C,RP1*%
X174820000Y-113990000D03*
D27*
X177360000Y-113990000D03*
X179900000Y-113990000D03*
X182440000Y-113990000D03*
X184980000Y-113990000D03*
X187520000Y-113990000D03*
X190060000Y-113990000D03*
X192600000Y-113990000D03*
X195140000Y-113990000D03*
X197680000Y-113990000D03*
%TD*%
D41*
%TO.C,S1*%
X99870000Y-43540000D03*
X99870000Y-47540000D03*
X99870000Y-51540000D03*
X105870000Y-43540000D03*
X105870000Y-47540000D03*
X105870000Y-51540000D03*
%TD*%
D28*
%TO.C,U14*%
X116260000Y-134730000D03*
D27*
X123880000Y-152510000D03*
X116260000Y-137270000D03*
X123880000Y-149970000D03*
X116260000Y-139810000D03*
X123880000Y-147430000D03*
X116260000Y-142350000D03*
X123880000Y-144890000D03*
X116260000Y-144890000D03*
X123880000Y-142350000D03*
X116260000Y-147430000D03*
X123880000Y-139810000D03*
X116260000Y-149970000D03*
X123880000Y-137270000D03*
X116260000Y-152510000D03*
X123880000Y-134730000D03*
%TD*%
%TO.C,U15*%
X141749000Y-134730000D03*
X134129000Y-152510000D03*
X141749000Y-137270000D03*
X134129000Y-149970000D03*
X141749000Y-139810000D03*
X134129000Y-147430000D03*
X141749000Y-142350000D03*
X134129000Y-144890000D03*
X141749000Y-144890000D03*
X134129000Y-142350000D03*
X141749000Y-147430000D03*
X134129000Y-139810000D03*
X141749000Y-149970000D03*
X134129000Y-137270000D03*
X141749000Y-152510000D03*
D28*
X134129000Y-134730000D03*
%TD*%
%TO.C,U16*%
X151997000Y-134730000D03*
D27*
X159617000Y-152510000D03*
X151997000Y-137270000D03*
X159617000Y-149970000D03*
X151997000Y-139810000D03*
X159617000Y-147430000D03*
X151997000Y-142350000D03*
X159617000Y-144890000D03*
X151997000Y-144890000D03*
X159617000Y-142350000D03*
X151997000Y-147430000D03*
X159617000Y-139810000D03*
X151997000Y-149970000D03*
X159617000Y-137270000D03*
X151997000Y-152510000D03*
X159617000Y-134730000D03*
%TD*%
D28*
%TO.C,U17*%
X169866000Y-134730000D03*
D27*
X177486000Y-152510000D03*
X169866000Y-137270000D03*
X177486000Y-149970000D03*
X169866000Y-139810000D03*
X177486000Y-147430000D03*
X169866000Y-142350000D03*
X177486000Y-144890000D03*
X169866000Y-144890000D03*
X177486000Y-142350000D03*
X169866000Y-147430000D03*
X177486000Y-139810000D03*
X169866000Y-149970000D03*
X177486000Y-137270000D03*
X169866000Y-152510000D03*
X177486000Y-134730000D03*
%TD*%
%TO.C,U18*%
X195354000Y-134730000D03*
X187734000Y-152510000D03*
X195354000Y-137270000D03*
X187734000Y-149970000D03*
X195354000Y-139810000D03*
X187734000Y-147430000D03*
X195354000Y-142350000D03*
X187734000Y-144890000D03*
X195354000Y-144890000D03*
X187734000Y-142350000D03*
X195354000Y-147430000D03*
X187734000Y-139810000D03*
X195354000Y-149970000D03*
X187734000Y-137270000D03*
X195354000Y-152510000D03*
D28*
X187734000Y-134730000D03*
%TD*%
D27*
%TO.C,U19*%
X213223000Y-134730000D03*
X205603000Y-152510000D03*
X213223000Y-137270000D03*
X205603000Y-149970000D03*
X213223000Y-139810000D03*
X205603000Y-147430000D03*
X213223000Y-142350000D03*
X205603000Y-144890000D03*
X213223000Y-144890000D03*
X205603000Y-142350000D03*
X213223000Y-147430000D03*
X205603000Y-139810000D03*
X213223000Y-149970000D03*
X205603000Y-137270000D03*
X213223000Y-152510000D03*
D28*
X205603000Y-134730000D03*
%TD*%
D27*
%TO.C,U20*%
X231091000Y-134730000D03*
X223471000Y-152510000D03*
X231091000Y-137270000D03*
X223471000Y-149970000D03*
X231091000Y-139810000D03*
X223471000Y-147430000D03*
X231091000Y-142350000D03*
X223471000Y-144890000D03*
X231091000Y-144890000D03*
X223471000Y-142350000D03*
X231091000Y-147430000D03*
X223471000Y-139810000D03*
X231091000Y-149970000D03*
X223471000Y-137270000D03*
X231091000Y-152510000D03*
D28*
X223471000Y-134730000D03*
%TD*%
%TO.C,U21*%
X241340000Y-134730000D03*
D27*
X248960000Y-152510000D03*
X241340000Y-137270000D03*
X248960000Y-149970000D03*
X241340000Y-139810000D03*
X248960000Y-147430000D03*
X241340000Y-142350000D03*
X248960000Y-144890000D03*
X241340000Y-144890000D03*
X248960000Y-142350000D03*
X241340000Y-147430000D03*
X248960000Y-139810000D03*
X241340000Y-149970000D03*
X248960000Y-137270000D03*
X241340000Y-152510000D03*
X248960000Y-134730000D03*
%TD*%
D42*
%TO.C,W1*%
G36*
X163950000Y-92780000D02*
G01*
X163950000Y-93280000D01*
X163949398Y-93280000D01*
X163949398Y-93304534D01*
X163944588Y-93353365D01*
X163935016Y-93401490D01*
X163920772Y-93448445D01*
X163901995Y-93493778D01*
X163878864Y-93537051D01*
X163851604Y-93577850D01*
X163820476Y-93615779D01*
X163785779Y-93650476D01*
X163747850Y-93681604D01*
X163707051Y-93708864D01*
X163663778Y-93731995D01*
X163618445Y-93750772D01*
X163571490Y-93765016D01*
X163523365Y-93774588D01*
X163474534Y-93779398D01*
X163450000Y-93779398D01*
X163450000Y-93780000D01*
X162950000Y-93780000D01*
X162950000Y-93779398D01*
X162925466Y-93779398D01*
X162876635Y-93774588D01*
X162828510Y-93765016D01*
X162781555Y-93750772D01*
X162736222Y-93731995D01*
X162692949Y-93708864D01*
X162652150Y-93681604D01*
X162614221Y-93650476D01*
X162579524Y-93615779D01*
X162548396Y-93577850D01*
X162521136Y-93537051D01*
X162498005Y-93493778D01*
X162479228Y-93448445D01*
X162464984Y-93401490D01*
X162455412Y-93353365D01*
X162450602Y-93304534D01*
X162450602Y-93280000D01*
X162450000Y-93280000D01*
X162450000Y-92780000D01*
X163950000Y-92780000D01*
G37*
G36*
X162450602Y-91980000D02*
G01*
X162450602Y-91955466D01*
X162455412Y-91906635D01*
X162464984Y-91858510D01*
X162479228Y-91811555D01*
X162498005Y-91766222D01*
X162521136Y-91722949D01*
X162548396Y-91682150D01*
X162579524Y-91644221D01*
X162614221Y-91609524D01*
X162652150Y-91578396D01*
X162692949Y-91551136D01*
X162736222Y-91528005D01*
X162781555Y-91509228D01*
X162828510Y-91494984D01*
X162876635Y-91485412D01*
X162925466Y-91480602D01*
X162950000Y-91480602D01*
X162950000Y-91480000D01*
X163450000Y-91480000D01*
X163450000Y-91480602D01*
X163474534Y-91480602D01*
X163523365Y-91485412D01*
X163571490Y-91494984D01*
X163618445Y-91509228D01*
X163663778Y-91528005D01*
X163707051Y-91551136D01*
X163747850Y-91578396D01*
X163785779Y-91609524D01*
X163820476Y-91644221D01*
X163851604Y-91682150D01*
X163878864Y-91722949D01*
X163901995Y-91766222D01*
X163920772Y-91811555D01*
X163935016Y-91858510D01*
X163944588Y-91906635D01*
X163949398Y-91955466D01*
X163949398Y-91980000D01*
X163950000Y-91980000D01*
X163950000Y-92480000D01*
X162450000Y-92480000D01*
X162450000Y-91980000D01*
X162450602Y-91980000D01*
G37*
%TD*%
D43*
%TO.C,X1*%
X249070000Y-105900000D03*
X244170000Y-105900000D03*
X246570000Y-88900000D03*
%TD*%
D12*
%TO.C,J5*%
X174670000Y-117770000D03*
D44*
X177210000Y-117770000D03*
X179750000Y-117770000D03*
X182290000Y-117770000D03*
X184830000Y-117770000D03*
X187370000Y-117770000D03*
X189910000Y-117770000D03*
X192450000Y-117770000D03*
X194990000Y-117770000D03*
X197530000Y-117770000D03*
X200070000Y-117770000D03*
X202610000Y-117770000D03*
X205150000Y-117770000D03*
X207690000Y-117770000D03*
X210230000Y-117770000D03*
X212770000Y-117770000D03*
%TD*%
D29*
%TO.C,C7*%
X110050000Y-30005000D03*
X110050000Y-35005000D03*
%TD*%
%TO.C,C8*%
X111875000Y-43580000D03*
X111875000Y-38580000D03*
%TD*%
%TO.C,C9*%
X110770000Y-47180000D03*
X110770000Y-52180000D03*
%TD*%
%TO.C,C10*%
X112150000Y-56930000D03*
X112150000Y-61930000D03*
%TD*%
%TO.C,C13*%
X123520000Y-52800000D03*
X123520000Y-47800000D03*
%TD*%
%TO.C,C16*%
X137170000Y-53300000D03*
X137170000Y-48300000D03*
%TD*%
%TO.C,C17*%
X140700000Y-53270000D03*
X140700000Y-48270000D03*
%TD*%
%TO.C,C22*%
X165880000Y-47130000D03*
X170880000Y-47130000D03*
%TD*%
%TO.C,C23*%
X191380000Y-49090000D03*
X191380000Y-54090000D03*
%TD*%
%TO.C,C27*%
X143970000Y-107800000D03*
X138970000Y-107800000D03*
%TD*%
%TO.C,C14*%
X123470000Y-62070000D03*
X123470000Y-57070000D03*
%TD*%
D20*
%TO.C,R11*%
X147720000Y-60430000D03*
D24*
X147720000Y-47730000D03*
%TD*%
D29*
%TO.C,C20*%
X145530000Y-66200000D03*
X147530000Y-66200000D03*
%TD*%
D20*
%TO.C,R23*%
X186840000Y-60390000D03*
D24*
X186840000Y-47690000D03*
%TD*%
D28*
%TO.C,C62*%
X248490000Y-60920000D03*
D29*
X246490000Y-60920000D03*
%TD*%
D28*
%TO.C,C46*%
X278970000Y-100160000D03*
D29*
X280970000Y-100160000D03*
%TD*%
D27*
%TO.C,R27*%
X93597000Y-149560000D03*
D29*
X93597000Y-139400000D03*
%TD*%
%TO.C,R28*%
X97533000Y-139400000D03*
D27*
X97533000Y-149560000D03*
%TD*%
D14*
%TO.C,H2*%
X27950000Y-160470000D03*
%TD*%
%TO.C,H3*%
X301000000Y-32500000D03*
%TD*%
D19*
%TO.C,K2*%
X203540000Y-51240000D03*
D21*
X211160000Y-51240000D03*
D19*
X211160000Y-38540000D03*
X203540000Y-40064000D03*
X203540000Y-36000000D03*
%TD*%
D28*
%TO.C,U23*%
X284970000Y-105680000D03*
D27*
X300210000Y-153940000D03*
X284970000Y-108220000D03*
X300210000Y-151400000D03*
X284970000Y-110760000D03*
X300210000Y-148860000D03*
X284970000Y-113300000D03*
X300210000Y-146320000D03*
X284970000Y-115840000D03*
X300210000Y-143780000D03*
X284970000Y-118380000D03*
X300210000Y-141240000D03*
X284970000Y-120920000D03*
X300210000Y-138700000D03*
X284970000Y-123460000D03*
X300210000Y-136160000D03*
X284970000Y-126000000D03*
X300210000Y-133620000D03*
X284970000Y-128540000D03*
X300210000Y-131080000D03*
X284970000Y-131080000D03*
X300210000Y-128540000D03*
X284970000Y-133620000D03*
X300210000Y-126000000D03*
X284970000Y-136160000D03*
X300210000Y-123460000D03*
X284970000Y-138700000D03*
X300210000Y-120920000D03*
X284970000Y-141240000D03*
X300210000Y-118380000D03*
X284970000Y-143780000D03*
X300210000Y-115840000D03*
X284970000Y-146320000D03*
X300210000Y-113300000D03*
X284970000Y-148860000D03*
X300210000Y-110760000D03*
X284970000Y-151400000D03*
X300210000Y-108220000D03*
X284970000Y-153940000D03*
X300210000Y-105680000D03*
%TD*%
D28*
%TO.C,U8*%
X195250000Y-54910000D03*
D27*
X210490000Y-103170000D03*
X195250000Y-57450000D03*
X210490000Y-100630000D03*
X195250000Y-59990000D03*
X210490000Y-98090000D03*
X195250000Y-62530000D03*
X210490000Y-95550000D03*
X195250000Y-65070000D03*
X210490000Y-93010000D03*
X195250000Y-67610000D03*
X210490000Y-90470000D03*
X195250000Y-70150000D03*
X210490000Y-87930000D03*
X195250000Y-72690000D03*
X210490000Y-85390000D03*
X195250000Y-75230000D03*
X210490000Y-82850000D03*
X195250000Y-77770000D03*
X210490000Y-80310000D03*
X195250000Y-80310000D03*
X210490000Y-77770000D03*
X195250000Y-82850000D03*
X210490000Y-75230000D03*
X195250000Y-85390000D03*
X210490000Y-72690000D03*
X195250000Y-87930000D03*
X210490000Y-70150000D03*
X195250000Y-90470000D03*
X210490000Y-67610000D03*
X195250000Y-93010000D03*
X210490000Y-65070000D03*
X195250000Y-95550000D03*
X210490000Y-62530000D03*
X195250000Y-98090000D03*
X210490000Y-59990000D03*
X195250000Y-100630000D03*
X210490000Y-57450000D03*
X195250000Y-103170000D03*
X210490000Y-54910000D03*
%TD*%
D28*
%TO.C,U4*%
X134540000Y-95400000D03*
D27*
X142160000Y-103020000D03*
X134540000Y-97940000D03*
X142160000Y-100480000D03*
X134540000Y-100480000D03*
X142160000Y-97940000D03*
X134540000Y-103020000D03*
X142160000Y-95400000D03*
%TD*%
D28*
%TO.C,U1*%
X77420000Y-135700000D03*
D27*
X85040000Y-153480000D03*
X77420000Y-138240000D03*
X85040000Y-150940000D03*
X77420000Y-140780000D03*
X85040000Y-148400000D03*
X77420000Y-143320000D03*
X85040000Y-145860000D03*
X77420000Y-145860000D03*
X85040000Y-143320000D03*
X77420000Y-148400000D03*
X85040000Y-140780000D03*
X77420000Y-150940000D03*
X85040000Y-138240000D03*
X77420000Y-153480000D03*
X85040000Y-135700000D03*
%TD*%
D28*
%TO.C,U2*%
X106210000Y-67710000D03*
D27*
X121450000Y-115970000D03*
X106210000Y-70250000D03*
X121450000Y-113430000D03*
X106210000Y-72790000D03*
X121450000Y-110890000D03*
X106210000Y-75330000D03*
X121450000Y-108350000D03*
X106210000Y-77870000D03*
X121450000Y-105810000D03*
X106210000Y-80410000D03*
X121450000Y-103270000D03*
X106210000Y-82950000D03*
X121450000Y-100730000D03*
X106210000Y-85490000D03*
X121450000Y-98190000D03*
X106210000Y-88030000D03*
X121450000Y-95650000D03*
X106210000Y-90570000D03*
X121450000Y-93110000D03*
X106210000Y-93110000D03*
X121450000Y-90570000D03*
X106210000Y-95650000D03*
X121450000Y-88030000D03*
X106210000Y-98190000D03*
X121450000Y-85490000D03*
X106210000Y-100730000D03*
X121450000Y-82950000D03*
X106210000Y-103270000D03*
X121450000Y-80410000D03*
X106210000Y-105810000D03*
X121450000Y-77870000D03*
X106210000Y-108350000D03*
X121450000Y-75330000D03*
X106210000Y-110890000D03*
X121450000Y-72790000D03*
X106210000Y-113430000D03*
X121450000Y-70250000D03*
X106210000Y-115970000D03*
X121450000Y-67710000D03*
%TD*%
D28*
%TO.C,U3*%
X134540000Y-62370000D03*
D27*
X142160000Y-85230000D03*
X134540000Y-64910000D03*
X142160000Y-82690000D03*
X134540000Y-67450000D03*
X142160000Y-80150000D03*
X134540000Y-69990000D03*
X142160000Y-77610000D03*
X134540000Y-72530000D03*
X142160000Y-75070000D03*
X134540000Y-75070000D03*
X142160000Y-72530000D03*
X134540000Y-77610000D03*
X142160000Y-69990000D03*
X134540000Y-80150000D03*
X142160000Y-67450000D03*
X134540000Y-82690000D03*
X142160000Y-64910000D03*
X134540000Y-85230000D03*
X142160000Y-62370000D03*
%TD*%
%TO.C,U7*%
X182450000Y-54910000D03*
X167210000Y-103170000D03*
X182450000Y-57450000D03*
X167210000Y-100630000D03*
X182450000Y-59990000D03*
X167210000Y-98090000D03*
X182450000Y-62530000D03*
X167210000Y-95550000D03*
X182450000Y-65070000D03*
X167210000Y-93010000D03*
X182450000Y-67610000D03*
X167210000Y-90470000D03*
X182450000Y-70150000D03*
X167210000Y-87930000D03*
X182450000Y-72690000D03*
X167210000Y-85390000D03*
X182450000Y-75230000D03*
X167210000Y-82850000D03*
X182450000Y-77770000D03*
X167210000Y-80310000D03*
X182450000Y-80310000D03*
X167210000Y-77770000D03*
X182450000Y-82850000D03*
X167210000Y-75230000D03*
X182450000Y-85390000D03*
X167210000Y-72690000D03*
X182450000Y-87930000D03*
X167210000Y-70150000D03*
X182450000Y-90470000D03*
X167210000Y-67610000D03*
X182450000Y-93010000D03*
X167210000Y-65070000D03*
X182450000Y-95550000D03*
X167210000Y-62530000D03*
X182450000Y-98090000D03*
X167210000Y-59990000D03*
X182450000Y-100630000D03*
X167210000Y-57450000D03*
X182450000Y-103170000D03*
D28*
X167210000Y-54910000D03*
%TD*%
D45*
X324873000Y-166373000D02*
X323999998Y-166373000D01*
X24077000Y-166377998D01*
X24077000Y-160632000D01*
X63950000Y-160632000D01*
X63974776Y-160629560D01*
X63998601Y-160622333D01*
X64020557Y-160610597D01*
X64039803Y-160594803D01*
X64055597Y-160575557D01*
X64067333Y-160553601D01*
X64074560Y-160529776D01*
X64077000Y-160505000D01*
X64077000Y-158632000D01*
X90823000Y-158632000D01*
X90823000Y-160505000D01*
X90825440Y-160529776D01*
X90832667Y-160553601D01*
X90844403Y-160575557D01*
X90860197Y-160594803D01*
X90879443Y-160610597D01*
X90901399Y-160622333D01*
X90925224Y-160629560D01*
X90950000Y-160632000D01*
X103950000Y-160632000D01*
X103974776Y-160629560D01*
X103998601Y-160622333D01*
X104020557Y-160610597D01*
X104039803Y-160594803D01*
X104055597Y-160575557D01*
X104067333Y-160553601D01*
X104074560Y-160529776D01*
X104077000Y-160505000D01*
X104077000Y-158632000D01*
X123823000Y-158632000D01*
X123823000Y-160505000D01*
X123825440Y-160529776D01*
X123832667Y-160553601D01*
X123844403Y-160575557D01*
X123860197Y-160594803D01*
X123879443Y-160610597D01*
X123901399Y-160622333D01*
X123925224Y-160629560D01*
X123950000Y-160632000D01*
X148950000Y-160632000D01*
X148974776Y-160629560D01*
X148998601Y-160622333D01*
X149020557Y-160610597D01*
X149039803Y-160594803D01*
X149055597Y-160575557D01*
X149067333Y-160553601D01*
X149074560Y-160529776D01*
X149077000Y-160505000D01*
X149077000Y-158632000D01*
X174823000Y-158632000D01*
X174823000Y-160505000D01*
X174825440Y-160529776D01*
X174832667Y-160553601D01*
X174844403Y-160575557D01*
X174860197Y-160594803D01*
X174879443Y-160610597D01*
X174901399Y-160622333D01*
X174925224Y-160629560D01*
X174950000Y-160632000D01*
X217950000Y-160632000D01*
X217974776Y-160629560D01*
X217998601Y-160622333D01*
X218020557Y-160610597D01*
X218039803Y-160594803D01*
X218055597Y-160575557D01*
X218067333Y-160553601D01*
X218074560Y-160529776D01*
X218077000Y-160505000D01*
X218077000Y-158632000D01*
X242823000Y-158632000D01*
X242823000Y-160505000D01*
X242825440Y-160529776D01*
X242832667Y-160553601D01*
X242844403Y-160575557D01*
X242860197Y-160594803D01*
X242879443Y-160610597D01*
X242901399Y-160622333D01*
X242925224Y-160629560D01*
X242950000Y-160632000D01*
X277950000Y-160632000D01*
X277974776Y-160629560D01*
X277998601Y-160622333D01*
X278020557Y-160610597D01*
X278039803Y-160594803D01*
X278055597Y-160575557D01*
X278067333Y-160553601D01*
X278074560Y-160529776D01*
X278077000Y-160505000D01*
X278077000Y-158632000D01*
X297823000Y-158632000D01*
X297823000Y-160505000D01*
X297825440Y-160529776D01*
X297832667Y-160553601D01*
X297844403Y-160575557D01*
X297860197Y-160594803D01*
X297879443Y-160610597D01*
X297901399Y-160622333D01*
X297925224Y-160629560D01*
X297950030Y-160632000D01*
X319000030Y-160627000D01*
X319024806Y-160624554D01*
X319048629Y-160617321D01*
X319070582Y-160605580D01*
X319089824Y-160589781D01*
X319105613Y-160570532D01*
X319117344Y-160548573D01*
X319124566Y-160524747D01*
X319127000Y-160500000D01*
X319127000Y-124627000D01*
X324873000Y-124627000D01*
X324873000Y-166373000D01*
D42*
G36*
X324873000Y-166373000D02*
G01*
X323999998Y-166373000D01*
X24077000Y-166377998D01*
X24077000Y-160632000D01*
X63950000Y-160632000D01*
X63974776Y-160629560D01*
X63998601Y-160622333D01*
X64020557Y-160610597D01*
X64039803Y-160594803D01*
X64055597Y-160575557D01*
X64067333Y-160553601D01*
X64074560Y-160529776D01*
X64077000Y-160505000D01*
X64077000Y-158632000D01*
X90823000Y-158632000D01*
X90823000Y-160505000D01*
X90825440Y-160529776D01*
X90832667Y-160553601D01*
X90844403Y-160575557D01*
X90860197Y-160594803D01*
X90879443Y-160610597D01*
X90901399Y-160622333D01*
X90925224Y-160629560D01*
X90950000Y-160632000D01*
X103950000Y-160632000D01*
X103974776Y-160629560D01*
X103998601Y-160622333D01*
X104020557Y-160610597D01*
X104039803Y-160594803D01*
X104055597Y-160575557D01*
X104067333Y-160553601D01*
X104074560Y-160529776D01*
X104077000Y-160505000D01*
X104077000Y-158632000D01*
X123823000Y-158632000D01*
X123823000Y-160505000D01*
X123825440Y-160529776D01*
X123832667Y-160553601D01*
X123844403Y-160575557D01*
X123860197Y-160594803D01*
X123879443Y-160610597D01*
X123901399Y-160622333D01*
X123925224Y-160629560D01*
X123950000Y-160632000D01*
X148950000Y-160632000D01*
X148974776Y-160629560D01*
X148998601Y-160622333D01*
X149020557Y-160610597D01*
X149039803Y-160594803D01*
X149055597Y-160575557D01*
X149067333Y-160553601D01*
X149074560Y-160529776D01*
X149077000Y-160505000D01*
X149077000Y-158632000D01*
X174823000Y-158632000D01*
X174823000Y-160505000D01*
X174825440Y-160529776D01*
X174832667Y-160553601D01*
X174844403Y-160575557D01*
X174860197Y-160594803D01*
X174879443Y-160610597D01*
X174901399Y-160622333D01*
X174925224Y-160629560D01*
X174950000Y-160632000D01*
X217950000Y-160632000D01*
X217974776Y-160629560D01*
X217998601Y-160622333D01*
X218020557Y-160610597D01*
X218039803Y-160594803D01*
X218055597Y-160575557D01*
X218067333Y-160553601D01*
X218074560Y-160529776D01*
X218077000Y-160505000D01*
X218077000Y-158632000D01*
X242823000Y-158632000D01*
X242823000Y-160505000D01*
X242825440Y-160529776D01*
X242832667Y-160553601D01*
X242844403Y-160575557D01*
X242860197Y-160594803D01*
X242879443Y-160610597D01*
X242901399Y-160622333D01*
X242925224Y-160629560D01*
X242950000Y-160632000D01*
X277950000Y-160632000D01*
X277974776Y-160629560D01*
X277998601Y-160622333D01*
X278020557Y-160610597D01*
X278039803Y-160594803D01*
X278055597Y-160575557D01*
X278067333Y-160553601D01*
X278074560Y-160529776D01*
X278077000Y-160505000D01*
X278077000Y-158632000D01*
X297823000Y-158632000D01*
X297823000Y-160505000D01*
X297825440Y-160529776D01*
X297832667Y-160553601D01*
X297844403Y-160575557D01*
X297860197Y-160594803D01*
X297879443Y-160610597D01*
X297901399Y-160622333D01*
X297925224Y-160629560D01*
X297950030Y-160632000D01*
X319000030Y-160627000D01*
X319024806Y-160624554D01*
X319048629Y-160617321D01*
X319070582Y-160605580D01*
X319089824Y-160589781D01*
X319105613Y-160570532D01*
X319117344Y-160548573D01*
X319124566Y-160524747D01*
X319127000Y-160500000D01*
X319127000Y-124627000D01*
X324873000Y-124627000D01*
X324873000Y-166373000D01*
G37*
D45*
X62323000Y-105603000D02*
X52450000Y-105603000D01*
X52425224Y-105605440D01*
X52401399Y-105612667D01*
X52379443Y-105624403D01*
X52360197Y-105640197D01*
X52344403Y-105659443D01*
X52332667Y-105681399D01*
X52325440Y-105705224D01*
X52323000Y-105730000D01*
X52323000Y-107603000D01*
X30577000Y-107603000D01*
X30577000Y-105730000D01*
X30574560Y-105705224D01*
X30567333Y-105681399D01*
X30555597Y-105659443D01*
X30539803Y-105640197D01*
X30520557Y-105624403D01*
X30498601Y-105612667D01*
X30474776Y-105605440D01*
X30450000Y-105603000D01*
X19450000Y-105603000D01*
X19425224Y-105605440D01*
X19401399Y-105612667D01*
X19379443Y-105624403D01*
X19360197Y-105640197D01*
X19344403Y-105659443D01*
X19332667Y-105681399D01*
X19325440Y-105705224D01*
X19323000Y-105730000D01*
X19323000Y-156603000D01*
X13577000Y-156603000D01*
X13577000Y-99857000D01*
X62323000Y-99857000D01*
X62323000Y-105603000D01*
D42*
G36*
X62323000Y-105603000D02*
G01*
X52450000Y-105603000D01*
X52425224Y-105605440D01*
X52401399Y-105612667D01*
X52379443Y-105624403D01*
X52360197Y-105640197D01*
X52344403Y-105659443D01*
X52332667Y-105681399D01*
X52325440Y-105705224D01*
X52323000Y-105730000D01*
X52323000Y-107603000D01*
X30577000Y-107603000D01*
X30577000Y-105730000D01*
X30574560Y-105705224D01*
X30567333Y-105681399D01*
X30555597Y-105659443D01*
X30539803Y-105640197D01*
X30520557Y-105624403D01*
X30498601Y-105612667D01*
X30474776Y-105605440D01*
X30450000Y-105603000D01*
X19450000Y-105603000D01*
X19425224Y-105605440D01*
X19401399Y-105612667D01*
X19379443Y-105624403D01*
X19360197Y-105640197D01*
X19344403Y-105659443D01*
X19332667Y-105681399D01*
X19325440Y-105705224D01*
X19323000Y-105730000D01*
X19323000Y-156603000D01*
X13577000Y-156603000D01*
X13577000Y-99857000D01*
X62323000Y-99857000D01*
X62323000Y-105603000D01*
G37*
D45*
X97243000Y-58373000D02*
X90497000Y-58373000D01*
X90497000Y-26627000D01*
X97243000Y-26627000D01*
X97243000Y-58373000D01*
D42*
G36*
X97243000Y-58373000D02*
G01*
X90497000Y-58373000D01*
X90497000Y-26627000D01*
X97243000Y-26627000D01*
X97243000Y-58373000D01*
G37*
D45*
X310873000Y-32373000D02*
X309000000Y-32373000D01*
X308975224Y-32375440D01*
X308951399Y-32382667D01*
X308929443Y-32394403D01*
X308910197Y-32410197D01*
X308894403Y-32429443D01*
X308882667Y-32451399D01*
X308875440Y-32475224D01*
X308873000Y-32500000D01*
X308873000Y-34373000D01*
X290127000Y-34373000D01*
X290127000Y-32500000D01*
X290124560Y-32475224D01*
X290117333Y-32451399D01*
X290105597Y-32429443D01*
X290089803Y-32410197D01*
X290070557Y-32394403D01*
X290048601Y-32382667D01*
X290024776Y-32375440D01*
X290000000Y-32373000D01*
X288127000Y-32373000D01*
X288127000Y-26627000D01*
X310873000Y-26627000D01*
X310873000Y-32373000D01*
D42*
G36*
X310873000Y-32373000D02*
G01*
X309000000Y-32373000D01*
X308975224Y-32375440D01*
X308951399Y-32382667D01*
X308929443Y-32394403D01*
X308910197Y-32410197D01*
X308894403Y-32429443D01*
X308882667Y-32451399D01*
X308875440Y-32475224D01*
X308873000Y-32500000D01*
X308873000Y-34373000D01*
X290127000Y-34373000D01*
X290127000Y-32500000D01*
X290124560Y-32475224D01*
X290117333Y-32451399D01*
X290105597Y-32429443D01*
X290089803Y-32410197D01*
X290070557Y-32394403D01*
X290048601Y-32382667D01*
X290024776Y-32375440D01*
X290000000Y-32373000D01*
X288127000Y-32373000D01*
X288127000Y-26627000D01*
X310873000Y-26627000D01*
X310873000Y-32373000D01*
G37*
D45*
X271873000Y-32373000D02*
X240127000Y-32373000D01*
X240127000Y-26627000D01*
X271873000Y-26627000D01*
X271873000Y-32373000D01*
D42*
G36*
X271873000Y-32373000D02*
G01*
X240127000Y-32373000D01*
X240127000Y-26627000D01*
X271873000Y-26627000D01*
X271873000Y-32373000D01*
G37*
M02*
