%TF.GenerationSoftware,KiCad,Pcbnew,5.1.7-a382d34a8~88~ubuntu18.04.1*%
%TF.CreationDate,2021-03-30T18:08:33-04:00*%
%TF.ProjectId,coco2,636f636f-322e-46b6-9963-61645f706362,1*%
%TF.SameCoordinates,Original*%
%TF.FileFunction,Legend,Bot*%
%TF.FilePolarity,Positive*%
%FSLAX46Y46*%
G04 Gerber Fmt 4.6, Leading zero omitted, Abs format (unit mm)*
G04 Created by KiCad (PCBNEW 5.1.7-a382d34a8~88~ubuntu18.04.1) date 2021-03-30 18:08:33*
%MOMM*%
%LPD*%
G01*
G04 APERTURE LIST*
%ADD10C,0.120000*%
%ADD11C,0.152400*%
%ADD12C,0.150000*%
G04 APERTURE END LIST*
D10*
%TO.C,C1*%
X116110000Y-149580000D02*
G75*
G03*
X116110000Y-149580000I-4120000J0D01*
G01*
X116070000Y-149580000D02*
X107910000Y-149580000D01*
X116070000Y-149540000D02*
X107910000Y-149540000D01*
X116070000Y-149500000D02*
X107910000Y-149500000D01*
X116069000Y-149460000D02*
X107911000Y-149460000D01*
X116067000Y-149420000D02*
X107913000Y-149420000D01*
X116066000Y-149380000D02*
X107914000Y-149380000D01*
X116064000Y-149340000D02*
X107916000Y-149340000D01*
X116061000Y-149300000D02*
X107919000Y-149300000D01*
X116058000Y-149260000D02*
X107922000Y-149260000D01*
X116055000Y-149220000D02*
X107925000Y-149220000D01*
X116051000Y-149180000D02*
X107929000Y-149180000D01*
X116047000Y-149140000D02*
X107933000Y-149140000D01*
X116042000Y-149100000D02*
X107938000Y-149100000D01*
X116038000Y-149060000D02*
X107942000Y-149060000D01*
X116032000Y-149020000D02*
X107948000Y-149020000D01*
X116027000Y-148980000D02*
X107953000Y-148980000D01*
X116020000Y-148940000D02*
X107960000Y-148940000D01*
X116014000Y-148900000D02*
X107966000Y-148900000D01*
X116007000Y-148859000D02*
X107973000Y-148859000D01*
X116000000Y-148819000D02*
X107980000Y-148819000D01*
X115992000Y-148779000D02*
X107988000Y-148779000D01*
X115984000Y-148739000D02*
X107996000Y-148739000D01*
X115975000Y-148699000D02*
X108005000Y-148699000D01*
X115966000Y-148659000D02*
X108014000Y-148659000D01*
X115957000Y-148619000D02*
X108023000Y-148619000D01*
X115947000Y-148579000D02*
X108033000Y-148579000D01*
X115937000Y-148539000D02*
X108043000Y-148539000D01*
X115926000Y-148499000D02*
X108054000Y-148499000D01*
X115915000Y-148459000D02*
X108065000Y-148459000D01*
X115904000Y-148419000D02*
X108076000Y-148419000D01*
X115892000Y-148379000D02*
X108088000Y-148379000D01*
X115879000Y-148339000D02*
X108101000Y-148339000D01*
X115867000Y-148299000D02*
X108113000Y-148299000D01*
X115853000Y-148259000D02*
X108127000Y-148259000D01*
X115840000Y-148219000D02*
X108140000Y-148219000D01*
X115825000Y-148179000D02*
X108155000Y-148179000D01*
X115811000Y-148139000D02*
X108169000Y-148139000D01*
X115795000Y-148099000D02*
X113030000Y-148099000D01*
X110950000Y-148099000D02*
X108185000Y-148099000D01*
X115780000Y-148059000D02*
X113030000Y-148059000D01*
X110950000Y-148059000D02*
X108200000Y-148059000D01*
X115764000Y-148019000D02*
X113030000Y-148019000D01*
X110950000Y-148019000D02*
X108216000Y-148019000D01*
X115747000Y-147979000D02*
X113030000Y-147979000D01*
X110950000Y-147979000D02*
X108233000Y-147979000D01*
X115730000Y-147939000D02*
X113030000Y-147939000D01*
X110950000Y-147939000D02*
X108250000Y-147939000D01*
X115712000Y-147899000D02*
X113030000Y-147899000D01*
X110950000Y-147899000D02*
X108268000Y-147899000D01*
X115694000Y-147859000D02*
X113030000Y-147859000D01*
X110950000Y-147859000D02*
X108286000Y-147859000D01*
X115676000Y-147819000D02*
X113030000Y-147819000D01*
X110950000Y-147819000D02*
X108304000Y-147819000D01*
X115656000Y-147779000D02*
X113030000Y-147779000D01*
X110950000Y-147779000D02*
X108324000Y-147779000D01*
X115637000Y-147739000D02*
X113030000Y-147739000D01*
X110950000Y-147739000D02*
X108343000Y-147739000D01*
X115617000Y-147699000D02*
X113030000Y-147699000D01*
X110950000Y-147699000D02*
X108363000Y-147699000D01*
X115596000Y-147659000D02*
X113030000Y-147659000D01*
X110950000Y-147659000D02*
X108384000Y-147659000D01*
X115574000Y-147619000D02*
X113030000Y-147619000D01*
X110950000Y-147619000D02*
X108406000Y-147619000D01*
X115552000Y-147579000D02*
X113030000Y-147579000D01*
X110950000Y-147579000D02*
X108428000Y-147579000D01*
X115530000Y-147539000D02*
X113030000Y-147539000D01*
X110950000Y-147539000D02*
X108450000Y-147539000D01*
X115507000Y-147499000D02*
X113030000Y-147499000D01*
X110950000Y-147499000D02*
X108473000Y-147499000D01*
X115483000Y-147459000D02*
X113030000Y-147459000D01*
X110950000Y-147459000D02*
X108497000Y-147459000D01*
X115459000Y-147419000D02*
X113030000Y-147419000D01*
X110950000Y-147419000D02*
X108521000Y-147419000D01*
X115434000Y-147379000D02*
X113030000Y-147379000D01*
X110950000Y-147379000D02*
X108546000Y-147379000D01*
X115408000Y-147339000D02*
X113030000Y-147339000D01*
X110950000Y-147339000D02*
X108572000Y-147339000D01*
X115382000Y-147299000D02*
X113030000Y-147299000D01*
X110950000Y-147299000D02*
X108598000Y-147299000D01*
X115355000Y-147259000D02*
X113030000Y-147259000D01*
X110950000Y-147259000D02*
X108625000Y-147259000D01*
X115328000Y-147219000D02*
X113030000Y-147219000D01*
X110950000Y-147219000D02*
X108652000Y-147219000D01*
X115299000Y-147179000D02*
X113030000Y-147179000D01*
X110950000Y-147179000D02*
X108681000Y-147179000D01*
X115270000Y-147139000D02*
X113030000Y-147139000D01*
X110950000Y-147139000D02*
X108710000Y-147139000D01*
X115240000Y-147099000D02*
X113030000Y-147099000D01*
X110950000Y-147099000D02*
X108740000Y-147099000D01*
X115210000Y-147059000D02*
X113030000Y-147059000D01*
X110950000Y-147059000D02*
X108770000Y-147059000D01*
X115179000Y-147019000D02*
X113030000Y-147019000D01*
X110950000Y-147019000D02*
X108801000Y-147019000D01*
X115146000Y-146979000D02*
X113030000Y-146979000D01*
X110950000Y-146979000D02*
X108834000Y-146979000D01*
X115114000Y-146939000D02*
X113030000Y-146939000D01*
X110950000Y-146939000D02*
X108866000Y-146939000D01*
X115080000Y-146899000D02*
X113030000Y-146899000D01*
X110950000Y-146899000D02*
X108900000Y-146899000D01*
X115045000Y-146859000D02*
X113030000Y-146859000D01*
X110950000Y-146859000D02*
X108935000Y-146859000D01*
X115009000Y-146819000D02*
X113030000Y-146819000D01*
X110950000Y-146819000D02*
X108971000Y-146819000D01*
X114973000Y-146779000D02*
X113030000Y-146779000D01*
X110950000Y-146779000D02*
X109007000Y-146779000D01*
X114935000Y-146739000D02*
X113030000Y-146739000D01*
X110950000Y-146739000D02*
X109045000Y-146739000D01*
X114897000Y-146699000D02*
X113030000Y-146699000D01*
X110950000Y-146699000D02*
X109083000Y-146699000D01*
X114857000Y-146659000D02*
X113030000Y-146659000D01*
X110950000Y-146659000D02*
X109123000Y-146659000D01*
X114816000Y-146619000D02*
X113030000Y-146619000D01*
X110950000Y-146619000D02*
X109164000Y-146619000D01*
X114774000Y-146579000D02*
X113030000Y-146579000D01*
X110950000Y-146579000D02*
X109206000Y-146579000D01*
X114731000Y-146539000D02*
X113030000Y-146539000D01*
X110950000Y-146539000D02*
X109249000Y-146539000D01*
X114687000Y-146499000D02*
X113030000Y-146499000D01*
X110950000Y-146499000D02*
X109293000Y-146499000D01*
X114641000Y-146459000D02*
X113030000Y-146459000D01*
X110950000Y-146459000D02*
X109339000Y-146459000D01*
X114594000Y-146419000D02*
X113030000Y-146419000D01*
X110950000Y-146419000D02*
X109386000Y-146419000D01*
X114546000Y-146379000D02*
X113030000Y-146379000D01*
X110950000Y-146379000D02*
X109434000Y-146379000D01*
X114495000Y-146339000D02*
X113030000Y-146339000D01*
X110950000Y-146339000D02*
X109485000Y-146339000D01*
X114444000Y-146299000D02*
X113030000Y-146299000D01*
X110950000Y-146299000D02*
X109536000Y-146299000D01*
X114390000Y-146259000D02*
X113030000Y-146259000D01*
X110950000Y-146259000D02*
X109590000Y-146259000D01*
X114335000Y-146219000D02*
X113030000Y-146219000D01*
X110950000Y-146219000D02*
X109645000Y-146219000D01*
X114277000Y-146179000D02*
X113030000Y-146179000D01*
X110950000Y-146179000D02*
X109703000Y-146179000D01*
X114218000Y-146139000D02*
X113030000Y-146139000D01*
X110950000Y-146139000D02*
X109762000Y-146139000D01*
X114156000Y-146099000D02*
X113030000Y-146099000D01*
X110950000Y-146099000D02*
X109824000Y-146099000D01*
X114092000Y-146059000D02*
X113030000Y-146059000D01*
X110950000Y-146059000D02*
X109888000Y-146059000D01*
X114024000Y-146019000D02*
X109956000Y-146019000D01*
X113954000Y-145979000D02*
X110026000Y-145979000D01*
X113880000Y-145939000D02*
X110100000Y-145939000D01*
X113803000Y-145899000D02*
X110177000Y-145899000D01*
X113721000Y-145859000D02*
X110259000Y-145859000D01*
X113635000Y-145819000D02*
X110345000Y-145819000D01*
X113542000Y-145779000D02*
X110438000Y-145779000D01*
X113443000Y-145739000D02*
X110537000Y-145739000D01*
X113336000Y-145699000D02*
X110644000Y-145699000D01*
X113219000Y-145659000D02*
X110761000Y-145659000D01*
X113088000Y-145619000D02*
X110892000Y-145619000D01*
X112938000Y-145579000D02*
X111042000Y-145579000D01*
X112758000Y-145539000D02*
X111222000Y-145539000D01*
X112523000Y-145499000D02*
X111457000Y-145499000D01*
X114305000Y-153989698D02*
X114305000Y-153189698D01*
X114705000Y-153589698D02*
X113905000Y-153589698D01*
%TO.C,C5*%
X123329698Y-176505000D02*
X123329698Y-177305000D01*
X123729698Y-176905000D02*
X122929698Y-176905000D01*
X115239000Y-178687000D02*
X115239000Y-179753000D01*
X115279000Y-178452000D02*
X115279000Y-179988000D01*
X115319000Y-178272000D02*
X115319000Y-180168000D01*
X115359000Y-178122000D02*
X115359000Y-180318000D01*
X115399000Y-177991000D02*
X115399000Y-180449000D01*
X115439000Y-177874000D02*
X115439000Y-180566000D01*
X115479000Y-177767000D02*
X115479000Y-180673000D01*
X115519000Y-177668000D02*
X115519000Y-180772000D01*
X115559000Y-177575000D02*
X115559000Y-180865000D01*
X115599000Y-177489000D02*
X115599000Y-180951000D01*
X115639000Y-177407000D02*
X115639000Y-181033000D01*
X115679000Y-177330000D02*
X115679000Y-181110000D01*
X115719000Y-177256000D02*
X115719000Y-181184000D01*
X115759000Y-177186000D02*
X115759000Y-181254000D01*
X115799000Y-180260000D02*
X115799000Y-181322000D01*
X115799000Y-177118000D02*
X115799000Y-178180000D01*
X115839000Y-180260000D02*
X115839000Y-181386000D01*
X115839000Y-177054000D02*
X115839000Y-178180000D01*
X115879000Y-180260000D02*
X115879000Y-181448000D01*
X115879000Y-176992000D02*
X115879000Y-178180000D01*
X115919000Y-180260000D02*
X115919000Y-181507000D01*
X115919000Y-176933000D02*
X115919000Y-178180000D01*
X115959000Y-180260000D02*
X115959000Y-181565000D01*
X115959000Y-176875000D02*
X115959000Y-178180000D01*
X115999000Y-180260000D02*
X115999000Y-181620000D01*
X115999000Y-176820000D02*
X115999000Y-178180000D01*
X116039000Y-180260000D02*
X116039000Y-181674000D01*
X116039000Y-176766000D02*
X116039000Y-178180000D01*
X116079000Y-180260000D02*
X116079000Y-181725000D01*
X116079000Y-176715000D02*
X116079000Y-178180000D01*
X116119000Y-180260000D02*
X116119000Y-181776000D01*
X116119000Y-176664000D02*
X116119000Y-178180000D01*
X116159000Y-180260000D02*
X116159000Y-181824000D01*
X116159000Y-176616000D02*
X116159000Y-178180000D01*
X116199000Y-180260000D02*
X116199000Y-181871000D01*
X116199000Y-176569000D02*
X116199000Y-178180000D01*
X116239000Y-180260000D02*
X116239000Y-181917000D01*
X116239000Y-176523000D02*
X116239000Y-178180000D01*
X116279000Y-180260000D02*
X116279000Y-181961000D01*
X116279000Y-176479000D02*
X116279000Y-178180000D01*
X116319000Y-180260000D02*
X116319000Y-182004000D01*
X116319000Y-176436000D02*
X116319000Y-178180000D01*
X116359000Y-180260000D02*
X116359000Y-182046000D01*
X116359000Y-176394000D02*
X116359000Y-178180000D01*
X116399000Y-180260000D02*
X116399000Y-182087000D01*
X116399000Y-176353000D02*
X116399000Y-178180000D01*
X116439000Y-180260000D02*
X116439000Y-182127000D01*
X116439000Y-176313000D02*
X116439000Y-178180000D01*
X116479000Y-180260000D02*
X116479000Y-182165000D01*
X116479000Y-176275000D02*
X116479000Y-178180000D01*
X116519000Y-180260000D02*
X116519000Y-182203000D01*
X116519000Y-176237000D02*
X116519000Y-178180000D01*
X116559000Y-180260000D02*
X116559000Y-182239000D01*
X116559000Y-176201000D02*
X116559000Y-178180000D01*
X116599000Y-180260000D02*
X116599000Y-182275000D01*
X116599000Y-176165000D02*
X116599000Y-178180000D01*
X116639000Y-180260000D02*
X116639000Y-182310000D01*
X116639000Y-176130000D02*
X116639000Y-178180000D01*
X116679000Y-180260000D02*
X116679000Y-182344000D01*
X116679000Y-176096000D02*
X116679000Y-178180000D01*
X116719000Y-180260000D02*
X116719000Y-182376000D01*
X116719000Y-176064000D02*
X116719000Y-178180000D01*
X116759000Y-180260000D02*
X116759000Y-182409000D01*
X116759000Y-176031000D02*
X116759000Y-178180000D01*
X116799000Y-180260000D02*
X116799000Y-182440000D01*
X116799000Y-176000000D02*
X116799000Y-178180000D01*
X116839000Y-180260000D02*
X116839000Y-182470000D01*
X116839000Y-175970000D02*
X116839000Y-178180000D01*
X116879000Y-180260000D02*
X116879000Y-182500000D01*
X116879000Y-175940000D02*
X116879000Y-178180000D01*
X116919000Y-180260000D02*
X116919000Y-182529000D01*
X116919000Y-175911000D02*
X116919000Y-178180000D01*
X116959000Y-180260000D02*
X116959000Y-182558000D01*
X116959000Y-175882000D02*
X116959000Y-178180000D01*
X116999000Y-180260000D02*
X116999000Y-182585000D01*
X116999000Y-175855000D02*
X116999000Y-178180000D01*
X117039000Y-180260000D02*
X117039000Y-182612000D01*
X117039000Y-175828000D02*
X117039000Y-178180000D01*
X117079000Y-180260000D02*
X117079000Y-182638000D01*
X117079000Y-175802000D02*
X117079000Y-178180000D01*
X117119000Y-180260000D02*
X117119000Y-182664000D01*
X117119000Y-175776000D02*
X117119000Y-178180000D01*
X117159000Y-180260000D02*
X117159000Y-182689000D01*
X117159000Y-175751000D02*
X117159000Y-178180000D01*
X117199000Y-180260000D02*
X117199000Y-182713000D01*
X117199000Y-175727000D02*
X117199000Y-178180000D01*
X117239000Y-180260000D02*
X117239000Y-182737000D01*
X117239000Y-175703000D02*
X117239000Y-178180000D01*
X117279000Y-180260000D02*
X117279000Y-182760000D01*
X117279000Y-175680000D02*
X117279000Y-178180000D01*
X117319000Y-180260000D02*
X117319000Y-182782000D01*
X117319000Y-175658000D02*
X117319000Y-178180000D01*
X117359000Y-180260000D02*
X117359000Y-182804000D01*
X117359000Y-175636000D02*
X117359000Y-178180000D01*
X117399000Y-180260000D02*
X117399000Y-182826000D01*
X117399000Y-175614000D02*
X117399000Y-178180000D01*
X117439000Y-180260000D02*
X117439000Y-182847000D01*
X117439000Y-175593000D02*
X117439000Y-178180000D01*
X117479000Y-180260000D02*
X117479000Y-182867000D01*
X117479000Y-175573000D02*
X117479000Y-178180000D01*
X117519000Y-180260000D02*
X117519000Y-182886000D01*
X117519000Y-175554000D02*
X117519000Y-178180000D01*
X117559000Y-180260000D02*
X117559000Y-182906000D01*
X117559000Y-175534000D02*
X117559000Y-178180000D01*
X117599000Y-180260000D02*
X117599000Y-182924000D01*
X117599000Y-175516000D02*
X117599000Y-178180000D01*
X117639000Y-180260000D02*
X117639000Y-182942000D01*
X117639000Y-175498000D02*
X117639000Y-178180000D01*
X117679000Y-180260000D02*
X117679000Y-182960000D01*
X117679000Y-175480000D02*
X117679000Y-178180000D01*
X117719000Y-180260000D02*
X117719000Y-182977000D01*
X117719000Y-175463000D02*
X117719000Y-178180000D01*
X117759000Y-180260000D02*
X117759000Y-182994000D01*
X117759000Y-175446000D02*
X117759000Y-178180000D01*
X117799000Y-180260000D02*
X117799000Y-183010000D01*
X117799000Y-175430000D02*
X117799000Y-178180000D01*
X117839000Y-180260000D02*
X117839000Y-183025000D01*
X117839000Y-175415000D02*
X117839000Y-178180000D01*
X117879000Y-175399000D02*
X117879000Y-183041000D01*
X117919000Y-175385000D02*
X117919000Y-183055000D01*
X117959000Y-175370000D02*
X117959000Y-183070000D01*
X117999000Y-175357000D02*
X117999000Y-183083000D01*
X118039000Y-175343000D02*
X118039000Y-183097000D01*
X118079000Y-175331000D02*
X118079000Y-183109000D01*
X118119000Y-175318000D02*
X118119000Y-183122000D01*
X118159000Y-175306000D02*
X118159000Y-183134000D01*
X118199000Y-175295000D02*
X118199000Y-183145000D01*
X118239000Y-175284000D02*
X118239000Y-183156000D01*
X118279000Y-175273000D02*
X118279000Y-183167000D01*
X118319000Y-175263000D02*
X118319000Y-183177000D01*
X118359000Y-175253000D02*
X118359000Y-183187000D01*
X118399000Y-175244000D02*
X118399000Y-183196000D01*
X118439000Y-175235000D02*
X118439000Y-183205000D01*
X118479000Y-175226000D02*
X118479000Y-183214000D01*
X118519000Y-175218000D02*
X118519000Y-183222000D01*
X118559000Y-175210000D02*
X118559000Y-183230000D01*
X118599000Y-175203000D02*
X118599000Y-183237000D01*
X118640000Y-175196000D02*
X118640000Y-183244000D01*
X118680000Y-175190000D02*
X118680000Y-183250000D01*
X118720000Y-175183000D02*
X118720000Y-183257000D01*
X118760000Y-175178000D02*
X118760000Y-183262000D01*
X118800000Y-175172000D02*
X118800000Y-183268000D01*
X118840000Y-175168000D02*
X118840000Y-183272000D01*
X118880000Y-175163000D02*
X118880000Y-183277000D01*
X118920000Y-175159000D02*
X118920000Y-183281000D01*
X118960000Y-175155000D02*
X118960000Y-183285000D01*
X119000000Y-175152000D02*
X119000000Y-183288000D01*
X119040000Y-175149000D02*
X119040000Y-183291000D01*
X119080000Y-175146000D02*
X119080000Y-183294000D01*
X119120000Y-175144000D02*
X119120000Y-183296000D01*
X119160000Y-175143000D02*
X119160000Y-183297000D01*
X119200000Y-175141000D02*
X119200000Y-183299000D01*
X119240000Y-175140000D02*
X119240000Y-183300000D01*
X119280000Y-175140000D02*
X119280000Y-183300000D01*
X119320000Y-175140000D02*
X119320000Y-183300000D01*
X123440000Y-179220000D02*
G75*
G03*
X123440000Y-179220000I-4120000J0D01*
G01*
D11*
%TO.C,J6*%
X381351000Y-109755000D02*
G75*
G03*
X381351000Y-109755000I-381000J0D01*
G01*
%TO.C,C1*%
D12*
X117597142Y-149413333D02*
X117644761Y-149365714D01*
X117692380Y-149222857D01*
X117692380Y-149127619D01*
X117644761Y-148984761D01*
X117549523Y-148889523D01*
X117454285Y-148841904D01*
X117263809Y-148794285D01*
X117120952Y-148794285D01*
X116930476Y-148841904D01*
X116835238Y-148889523D01*
X116740000Y-148984761D01*
X116692380Y-149127619D01*
X116692380Y-149222857D01*
X116740000Y-149365714D01*
X116787619Y-149413333D01*
X117692380Y-150365714D02*
X117692380Y-149794285D01*
X117692380Y-150080000D02*
X116692380Y-150080000D01*
X116835238Y-149984761D01*
X116930476Y-149889523D01*
X116978095Y-149794285D01*
%TO.C,J6*%
X380597619Y-98715714D02*
X380550000Y-98668095D01*
X380502380Y-98572857D01*
X380502380Y-98334761D01*
X380550000Y-98239523D01*
X380597619Y-98191904D01*
X380692857Y-98144285D01*
X380788095Y-98144285D01*
X380930952Y-98191904D01*
X381502380Y-98763333D01*
X381502380Y-98144285D01*
X375072380Y-99544285D02*
X375072380Y-100115714D01*
X375072380Y-99830000D02*
X374072380Y-99830000D01*
X374215238Y-99925238D01*
X374310476Y-100020476D01*
X374358095Y-100115714D01*
X380735714Y-152615714D02*
X381402380Y-152615714D01*
X380354761Y-152853809D02*
X381069047Y-153091904D01*
X381069047Y-152472857D01*
X380402380Y-151901428D02*
X380402380Y-151806190D01*
X380450000Y-151710952D01*
X380497619Y-151663333D01*
X380592857Y-151615714D01*
X380783333Y-151568095D01*
X381021428Y-151568095D01*
X381211904Y-151615714D01*
X381307142Y-151663333D01*
X381354761Y-151710952D01*
X381402380Y-151806190D01*
X381402380Y-151901428D01*
X381354761Y-151996666D01*
X381307142Y-152044285D01*
X381211904Y-152091904D01*
X381021428Y-152139523D01*
X380783333Y-152139523D01*
X380592857Y-152091904D01*
X380497619Y-152044285D01*
X380450000Y-151996666D01*
X380402380Y-151901428D01*
X373642380Y-152399523D02*
X373642380Y-151780476D01*
X374023333Y-152113809D01*
X374023333Y-151970952D01*
X374070952Y-151875714D01*
X374118571Y-151828095D01*
X374213809Y-151780476D01*
X374451904Y-151780476D01*
X374547142Y-151828095D01*
X374594761Y-151875714D01*
X374642380Y-151970952D01*
X374642380Y-152256666D01*
X374594761Y-152351904D01*
X374547142Y-152399523D01*
X374642380Y-151304285D02*
X374642380Y-151113809D01*
X374594761Y-151018571D01*
X374547142Y-150970952D01*
X374404285Y-150875714D01*
X374213809Y-150828095D01*
X373832857Y-150828095D01*
X373737619Y-150875714D01*
X373690000Y-150923333D01*
X373642380Y-151018571D01*
X373642380Y-151209047D01*
X373690000Y-151304285D01*
X373737619Y-151351904D01*
X373832857Y-151399523D01*
X374070952Y-151399523D01*
X374166190Y-151351904D01*
X374213809Y-151304285D01*
X374261428Y-151209047D01*
X374261428Y-151018571D01*
X374213809Y-150923333D01*
X374166190Y-150875714D01*
X374070952Y-150828095D01*
%TD*%
M02*
