%TF.GenerationSoftware,KiCad,Pcbnew,5.1.7-a382d34a8~88~ubuntu18.04.1*%
%TF.CreationDate,2021-04-19T08:29:39-04:00*%
%TF.ProjectId,coco2,636f636f-322e-46b6-9963-61645f706362,1*%
%TF.SameCoordinates,Original*%
%TF.FileFunction,Legend,Bot*%
%TF.FilePolarity,Positive*%
%FSLAX46Y46*%
G04 Gerber Fmt 4.6, Leading zero omitted, Abs format (unit mm)*
G04 Created by KiCad (PCBNEW 5.1.7-a382d34a8~88~ubuntu18.04.1) date 2021-04-19 08:29:39*
%MOMM*%
%LPD*%
G01*
G04 APERTURE LIST*
%ADD10C,0.120000*%
%ADD11C,0.152400*%
%ADD12C,0.150000*%
G04 APERTURE END LIST*
D10*
X66565073Y-128250000D02*
G75*
G03*
X66565073Y-128250000I-5315073J0D01*
G01*
X36565073Y-128250000D02*
G75*
G03*
X36565073Y-128250000I-5315073J0D01*
G01*
D11*
%TO.C,J6*%
X329201000Y-71255000D02*
G75*
G03*
X329201000Y-71255000I-381000J0D01*
G01*
D10*
%TO.C,C1*%
X64205000Y-115089698D02*
X63405000Y-115089698D01*
X63805000Y-115489698D02*
X63805000Y-114689698D01*
X62023000Y-106999000D02*
X60957000Y-106999000D01*
X62258000Y-107039000D02*
X60722000Y-107039000D01*
X62438000Y-107079000D02*
X60542000Y-107079000D01*
X62588000Y-107119000D02*
X60392000Y-107119000D01*
X62719000Y-107159000D02*
X60261000Y-107159000D01*
X62836000Y-107199000D02*
X60144000Y-107199000D01*
X62943000Y-107239000D02*
X60037000Y-107239000D01*
X63042000Y-107279000D02*
X59938000Y-107279000D01*
X63135000Y-107319000D02*
X59845000Y-107319000D01*
X63221000Y-107359000D02*
X59759000Y-107359000D01*
X63303000Y-107399000D02*
X59677000Y-107399000D01*
X63380000Y-107439000D02*
X59600000Y-107439000D01*
X63454000Y-107479000D02*
X59526000Y-107479000D01*
X63524000Y-107519000D02*
X59456000Y-107519000D01*
X60450000Y-107559000D02*
X59388000Y-107559000D01*
X63592000Y-107559000D02*
X62530000Y-107559000D01*
X60450000Y-107599000D02*
X59324000Y-107599000D01*
X63656000Y-107599000D02*
X62530000Y-107599000D01*
X60450000Y-107639000D02*
X59262000Y-107639000D01*
X63718000Y-107639000D02*
X62530000Y-107639000D01*
X60450000Y-107679000D02*
X59203000Y-107679000D01*
X63777000Y-107679000D02*
X62530000Y-107679000D01*
X60450000Y-107719000D02*
X59145000Y-107719000D01*
X63835000Y-107719000D02*
X62530000Y-107719000D01*
X60450000Y-107759000D02*
X59090000Y-107759000D01*
X63890000Y-107759000D02*
X62530000Y-107759000D01*
X60450000Y-107799000D02*
X59036000Y-107799000D01*
X63944000Y-107799000D02*
X62530000Y-107799000D01*
X60450000Y-107839000D02*
X58985000Y-107839000D01*
X63995000Y-107839000D02*
X62530000Y-107839000D01*
X60450000Y-107879000D02*
X58934000Y-107879000D01*
X64046000Y-107879000D02*
X62530000Y-107879000D01*
X60450000Y-107919000D02*
X58886000Y-107919000D01*
X64094000Y-107919000D02*
X62530000Y-107919000D01*
X60450000Y-107959000D02*
X58839000Y-107959000D01*
X64141000Y-107959000D02*
X62530000Y-107959000D01*
X60450000Y-107999000D02*
X58793000Y-107999000D01*
X64187000Y-107999000D02*
X62530000Y-107999000D01*
X60450000Y-108039000D02*
X58749000Y-108039000D01*
X64231000Y-108039000D02*
X62530000Y-108039000D01*
X60450000Y-108079000D02*
X58706000Y-108079000D01*
X64274000Y-108079000D02*
X62530000Y-108079000D01*
X60450000Y-108119000D02*
X58664000Y-108119000D01*
X64316000Y-108119000D02*
X62530000Y-108119000D01*
X60450000Y-108159000D02*
X58623000Y-108159000D01*
X64357000Y-108159000D02*
X62530000Y-108159000D01*
X60450000Y-108199000D02*
X58583000Y-108199000D01*
X64397000Y-108199000D02*
X62530000Y-108199000D01*
X60450000Y-108239000D02*
X58545000Y-108239000D01*
X64435000Y-108239000D02*
X62530000Y-108239000D01*
X60450000Y-108279000D02*
X58507000Y-108279000D01*
X64473000Y-108279000D02*
X62530000Y-108279000D01*
X60450000Y-108319000D02*
X58471000Y-108319000D01*
X64509000Y-108319000D02*
X62530000Y-108319000D01*
X60450000Y-108359000D02*
X58435000Y-108359000D01*
X64545000Y-108359000D02*
X62530000Y-108359000D01*
X60450000Y-108399000D02*
X58400000Y-108399000D01*
X64580000Y-108399000D02*
X62530000Y-108399000D01*
X60450000Y-108439000D02*
X58366000Y-108439000D01*
X64614000Y-108439000D02*
X62530000Y-108439000D01*
X60450000Y-108479000D02*
X58334000Y-108479000D01*
X64646000Y-108479000D02*
X62530000Y-108479000D01*
X60450000Y-108519000D02*
X58301000Y-108519000D01*
X64679000Y-108519000D02*
X62530000Y-108519000D01*
X60450000Y-108559000D02*
X58270000Y-108559000D01*
X64710000Y-108559000D02*
X62530000Y-108559000D01*
X60450000Y-108599000D02*
X58240000Y-108599000D01*
X64740000Y-108599000D02*
X62530000Y-108599000D01*
X60450000Y-108639000D02*
X58210000Y-108639000D01*
X64770000Y-108639000D02*
X62530000Y-108639000D01*
X60450000Y-108679000D02*
X58181000Y-108679000D01*
X64799000Y-108679000D02*
X62530000Y-108679000D01*
X60450000Y-108719000D02*
X58152000Y-108719000D01*
X64828000Y-108719000D02*
X62530000Y-108719000D01*
X60450000Y-108759000D02*
X58125000Y-108759000D01*
X64855000Y-108759000D02*
X62530000Y-108759000D01*
X60450000Y-108799000D02*
X58098000Y-108799000D01*
X64882000Y-108799000D02*
X62530000Y-108799000D01*
X60450000Y-108839000D02*
X58072000Y-108839000D01*
X64908000Y-108839000D02*
X62530000Y-108839000D01*
X60450000Y-108879000D02*
X58046000Y-108879000D01*
X64934000Y-108879000D02*
X62530000Y-108879000D01*
X60450000Y-108919000D02*
X58021000Y-108919000D01*
X64959000Y-108919000D02*
X62530000Y-108919000D01*
X60450000Y-108959000D02*
X57997000Y-108959000D01*
X64983000Y-108959000D02*
X62530000Y-108959000D01*
X60450000Y-108999000D02*
X57973000Y-108999000D01*
X65007000Y-108999000D02*
X62530000Y-108999000D01*
X60450000Y-109039000D02*
X57950000Y-109039000D01*
X65030000Y-109039000D02*
X62530000Y-109039000D01*
X60450000Y-109079000D02*
X57928000Y-109079000D01*
X65052000Y-109079000D02*
X62530000Y-109079000D01*
X60450000Y-109119000D02*
X57906000Y-109119000D01*
X65074000Y-109119000D02*
X62530000Y-109119000D01*
X60450000Y-109159000D02*
X57884000Y-109159000D01*
X65096000Y-109159000D02*
X62530000Y-109159000D01*
X60450000Y-109199000D02*
X57863000Y-109199000D01*
X65117000Y-109199000D02*
X62530000Y-109199000D01*
X60450000Y-109239000D02*
X57843000Y-109239000D01*
X65137000Y-109239000D02*
X62530000Y-109239000D01*
X60450000Y-109279000D02*
X57824000Y-109279000D01*
X65156000Y-109279000D02*
X62530000Y-109279000D01*
X60450000Y-109319000D02*
X57804000Y-109319000D01*
X65176000Y-109319000D02*
X62530000Y-109319000D01*
X60450000Y-109359000D02*
X57786000Y-109359000D01*
X65194000Y-109359000D02*
X62530000Y-109359000D01*
X60450000Y-109399000D02*
X57768000Y-109399000D01*
X65212000Y-109399000D02*
X62530000Y-109399000D01*
X60450000Y-109439000D02*
X57750000Y-109439000D01*
X65230000Y-109439000D02*
X62530000Y-109439000D01*
X60450000Y-109479000D02*
X57733000Y-109479000D01*
X65247000Y-109479000D02*
X62530000Y-109479000D01*
X60450000Y-109519000D02*
X57716000Y-109519000D01*
X65264000Y-109519000D02*
X62530000Y-109519000D01*
X60450000Y-109559000D02*
X57700000Y-109559000D01*
X65280000Y-109559000D02*
X62530000Y-109559000D01*
X60450000Y-109599000D02*
X57685000Y-109599000D01*
X65295000Y-109599000D02*
X62530000Y-109599000D01*
X65311000Y-109639000D02*
X57669000Y-109639000D01*
X65325000Y-109679000D02*
X57655000Y-109679000D01*
X65340000Y-109719000D02*
X57640000Y-109719000D01*
X65353000Y-109759000D02*
X57627000Y-109759000D01*
X65367000Y-109799000D02*
X57613000Y-109799000D01*
X65379000Y-109839000D02*
X57601000Y-109839000D01*
X65392000Y-109879000D02*
X57588000Y-109879000D01*
X65404000Y-109919000D02*
X57576000Y-109919000D01*
X65415000Y-109959000D02*
X57565000Y-109959000D01*
X65426000Y-109999000D02*
X57554000Y-109999000D01*
X65437000Y-110039000D02*
X57543000Y-110039000D01*
X65447000Y-110079000D02*
X57533000Y-110079000D01*
X65457000Y-110119000D02*
X57523000Y-110119000D01*
X65466000Y-110159000D02*
X57514000Y-110159000D01*
X65475000Y-110199000D02*
X57505000Y-110199000D01*
X65484000Y-110239000D02*
X57496000Y-110239000D01*
X65492000Y-110279000D02*
X57488000Y-110279000D01*
X65500000Y-110319000D02*
X57480000Y-110319000D01*
X65507000Y-110359000D02*
X57473000Y-110359000D01*
X65514000Y-110400000D02*
X57466000Y-110400000D01*
X65520000Y-110440000D02*
X57460000Y-110440000D01*
X65527000Y-110480000D02*
X57453000Y-110480000D01*
X65532000Y-110520000D02*
X57448000Y-110520000D01*
X65538000Y-110560000D02*
X57442000Y-110560000D01*
X65542000Y-110600000D02*
X57438000Y-110600000D01*
X65547000Y-110640000D02*
X57433000Y-110640000D01*
X65551000Y-110680000D02*
X57429000Y-110680000D01*
X65555000Y-110720000D02*
X57425000Y-110720000D01*
X65558000Y-110760000D02*
X57422000Y-110760000D01*
X65561000Y-110800000D02*
X57419000Y-110800000D01*
X65564000Y-110840000D02*
X57416000Y-110840000D01*
X65566000Y-110880000D02*
X57414000Y-110880000D01*
X65567000Y-110920000D02*
X57413000Y-110920000D01*
X65569000Y-110960000D02*
X57411000Y-110960000D01*
X65570000Y-111000000D02*
X57410000Y-111000000D01*
X65570000Y-111040000D02*
X57410000Y-111040000D01*
X65570000Y-111080000D02*
X57410000Y-111080000D01*
X65610000Y-111080000D02*
G75*
G03*
X65610000Y-111080000I-4120000J0D01*
G01*
%TO.C,C5*%
X72940000Y-140720000D02*
G75*
G03*
X72940000Y-140720000I-4120000J0D01*
G01*
X68820000Y-136640000D02*
X68820000Y-144800000D01*
X68780000Y-136640000D02*
X68780000Y-144800000D01*
X68740000Y-136640000D02*
X68740000Y-144800000D01*
X68700000Y-136641000D02*
X68700000Y-144799000D01*
X68660000Y-136643000D02*
X68660000Y-144797000D01*
X68620000Y-136644000D02*
X68620000Y-144796000D01*
X68580000Y-136646000D02*
X68580000Y-144794000D01*
X68540000Y-136649000D02*
X68540000Y-144791000D01*
X68500000Y-136652000D02*
X68500000Y-144788000D01*
X68460000Y-136655000D02*
X68460000Y-144785000D01*
X68420000Y-136659000D02*
X68420000Y-144781000D01*
X68380000Y-136663000D02*
X68380000Y-144777000D01*
X68340000Y-136668000D02*
X68340000Y-144772000D01*
X68300000Y-136672000D02*
X68300000Y-144768000D01*
X68260000Y-136678000D02*
X68260000Y-144762000D01*
X68220000Y-136683000D02*
X68220000Y-144757000D01*
X68180000Y-136690000D02*
X68180000Y-144750000D01*
X68140000Y-136696000D02*
X68140000Y-144744000D01*
X68099000Y-136703000D02*
X68099000Y-144737000D01*
X68059000Y-136710000D02*
X68059000Y-144730000D01*
X68019000Y-136718000D02*
X68019000Y-144722000D01*
X67979000Y-136726000D02*
X67979000Y-144714000D01*
X67939000Y-136735000D02*
X67939000Y-144705000D01*
X67899000Y-136744000D02*
X67899000Y-144696000D01*
X67859000Y-136753000D02*
X67859000Y-144687000D01*
X67819000Y-136763000D02*
X67819000Y-144677000D01*
X67779000Y-136773000D02*
X67779000Y-144667000D01*
X67739000Y-136784000D02*
X67739000Y-144656000D01*
X67699000Y-136795000D02*
X67699000Y-144645000D01*
X67659000Y-136806000D02*
X67659000Y-144634000D01*
X67619000Y-136818000D02*
X67619000Y-144622000D01*
X67579000Y-136831000D02*
X67579000Y-144609000D01*
X67539000Y-136843000D02*
X67539000Y-144597000D01*
X67499000Y-136857000D02*
X67499000Y-144583000D01*
X67459000Y-136870000D02*
X67459000Y-144570000D01*
X67419000Y-136885000D02*
X67419000Y-144555000D01*
X67379000Y-136899000D02*
X67379000Y-144541000D01*
X67339000Y-136915000D02*
X67339000Y-139680000D01*
X67339000Y-141760000D02*
X67339000Y-144525000D01*
X67299000Y-136930000D02*
X67299000Y-139680000D01*
X67299000Y-141760000D02*
X67299000Y-144510000D01*
X67259000Y-136946000D02*
X67259000Y-139680000D01*
X67259000Y-141760000D02*
X67259000Y-144494000D01*
X67219000Y-136963000D02*
X67219000Y-139680000D01*
X67219000Y-141760000D02*
X67219000Y-144477000D01*
X67179000Y-136980000D02*
X67179000Y-139680000D01*
X67179000Y-141760000D02*
X67179000Y-144460000D01*
X67139000Y-136998000D02*
X67139000Y-139680000D01*
X67139000Y-141760000D02*
X67139000Y-144442000D01*
X67099000Y-137016000D02*
X67099000Y-139680000D01*
X67099000Y-141760000D02*
X67099000Y-144424000D01*
X67059000Y-137034000D02*
X67059000Y-139680000D01*
X67059000Y-141760000D02*
X67059000Y-144406000D01*
X67019000Y-137054000D02*
X67019000Y-139680000D01*
X67019000Y-141760000D02*
X67019000Y-144386000D01*
X66979000Y-137073000D02*
X66979000Y-139680000D01*
X66979000Y-141760000D02*
X66979000Y-144367000D01*
X66939000Y-137093000D02*
X66939000Y-139680000D01*
X66939000Y-141760000D02*
X66939000Y-144347000D01*
X66899000Y-137114000D02*
X66899000Y-139680000D01*
X66899000Y-141760000D02*
X66899000Y-144326000D01*
X66859000Y-137136000D02*
X66859000Y-139680000D01*
X66859000Y-141760000D02*
X66859000Y-144304000D01*
X66819000Y-137158000D02*
X66819000Y-139680000D01*
X66819000Y-141760000D02*
X66819000Y-144282000D01*
X66779000Y-137180000D02*
X66779000Y-139680000D01*
X66779000Y-141760000D02*
X66779000Y-144260000D01*
X66739000Y-137203000D02*
X66739000Y-139680000D01*
X66739000Y-141760000D02*
X66739000Y-144237000D01*
X66699000Y-137227000D02*
X66699000Y-139680000D01*
X66699000Y-141760000D02*
X66699000Y-144213000D01*
X66659000Y-137251000D02*
X66659000Y-139680000D01*
X66659000Y-141760000D02*
X66659000Y-144189000D01*
X66619000Y-137276000D02*
X66619000Y-139680000D01*
X66619000Y-141760000D02*
X66619000Y-144164000D01*
X66579000Y-137302000D02*
X66579000Y-139680000D01*
X66579000Y-141760000D02*
X66579000Y-144138000D01*
X66539000Y-137328000D02*
X66539000Y-139680000D01*
X66539000Y-141760000D02*
X66539000Y-144112000D01*
X66499000Y-137355000D02*
X66499000Y-139680000D01*
X66499000Y-141760000D02*
X66499000Y-144085000D01*
X66459000Y-137382000D02*
X66459000Y-139680000D01*
X66459000Y-141760000D02*
X66459000Y-144058000D01*
X66419000Y-137411000D02*
X66419000Y-139680000D01*
X66419000Y-141760000D02*
X66419000Y-144029000D01*
X66379000Y-137440000D02*
X66379000Y-139680000D01*
X66379000Y-141760000D02*
X66379000Y-144000000D01*
X66339000Y-137470000D02*
X66339000Y-139680000D01*
X66339000Y-141760000D02*
X66339000Y-143970000D01*
X66299000Y-137500000D02*
X66299000Y-139680000D01*
X66299000Y-141760000D02*
X66299000Y-143940000D01*
X66259000Y-137531000D02*
X66259000Y-139680000D01*
X66259000Y-141760000D02*
X66259000Y-143909000D01*
X66219000Y-137564000D02*
X66219000Y-139680000D01*
X66219000Y-141760000D02*
X66219000Y-143876000D01*
X66179000Y-137596000D02*
X66179000Y-139680000D01*
X66179000Y-141760000D02*
X66179000Y-143844000D01*
X66139000Y-137630000D02*
X66139000Y-139680000D01*
X66139000Y-141760000D02*
X66139000Y-143810000D01*
X66099000Y-137665000D02*
X66099000Y-139680000D01*
X66099000Y-141760000D02*
X66099000Y-143775000D01*
X66059000Y-137701000D02*
X66059000Y-139680000D01*
X66059000Y-141760000D02*
X66059000Y-143739000D01*
X66019000Y-137737000D02*
X66019000Y-139680000D01*
X66019000Y-141760000D02*
X66019000Y-143703000D01*
X65979000Y-137775000D02*
X65979000Y-139680000D01*
X65979000Y-141760000D02*
X65979000Y-143665000D01*
X65939000Y-137813000D02*
X65939000Y-139680000D01*
X65939000Y-141760000D02*
X65939000Y-143627000D01*
X65899000Y-137853000D02*
X65899000Y-139680000D01*
X65899000Y-141760000D02*
X65899000Y-143587000D01*
X65859000Y-137894000D02*
X65859000Y-139680000D01*
X65859000Y-141760000D02*
X65859000Y-143546000D01*
X65819000Y-137936000D02*
X65819000Y-139680000D01*
X65819000Y-141760000D02*
X65819000Y-143504000D01*
X65779000Y-137979000D02*
X65779000Y-139680000D01*
X65779000Y-141760000D02*
X65779000Y-143461000D01*
X65739000Y-138023000D02*
X65739000Y-139680000D01*
X65739000Y-141760000D02*
X65739000Y-143417000D01*
X65699000Y-138069000D02*
X65699000Y-139680000D01*
X65699000Y-141760000D02*
X65699000Y-143371000D01*
X65659000Y-138116000D02*
X65659000Y-139680000D01*
X65659000Y-141760000D02*
X65659000Y-143324000D01*
X65619000Y-138164000D02*
X65619000Y-139680000D01*
X65619000Y-141760000D02*
X65619000Y-143276000D01*
X65579000Y-138215000D02*
X65579000Y-139680000D01*
X65579000Y-141760000D02*
X65579000Y-143225000D01*
X65539000Y-138266000D02*
X65539000Y-139680000D01*
X65539000Y-141760000D02*
X65539000Y-143174000D01*
X65499000Y-138320000D02*
X65499000Y-139680000D01*
X65499000Y-141760000D02*
X65499000Y-143120000D01*
X65459000Y-138375000D02*
X65459000Y-139680000D01*
X65459000Y-141760000D02*
X65459000Y-143065000D01*
X65419000Y-138433000D02*
X65419000Y-139680000D01*
X65419000Y-141760000D02*
X65419000Y-143007000D01*
X65379000Y-138492000D02*
X65379000Y-139680000D01*
X65379000Y-141760000D02*
X65379000Y-142948000D01*
X65339000Y-138554000D02*
X65339000Y-139680000D01*
X65339000Y-141760000D02*
X65339000Y-142886000D01*
X65299000Y-138618000D02*
X65299000Y-139680000D01*
X65299000Y-141760000D02*
X65299000Y-142822000D01*
X65259000Y-138686000D02*
X65259000Y-142754000D01*
X65219000Y-138756000D02*
X65219000Y-142684000D01*
X65179000Y-138830000D02*
X65179000Y-142610000D01*
X65139000Y-138907000D02*
X65139000Y-142533000D01*
X65099000Y-138989000D02*
X65099000Y-142451000D01*
X65059000Y-139075000D02*
X65059000Y-142365000D01*
X65019000Y-139168000D02*
X65019000Y-142272000D01*
X64979000Y-139267000D02*
X64979000Y-142173000D01*
X64939000Y-139374000D02*
X64939000Y-142066000D01*
X64899000Y-139491000D02*
X64899000Y-141949000D01*
X64859000Y-139622000D02*
X64859000Y-141818000D01*
X64819000Y-139772000D02*
X64819000Y-141668000D01*
X64779000Y-139952000D02*
X64779000Y-141488000D01*
X64739000Y-140187000D02*
X64739000Y-141253000D01*
X73229698Y-138405000D02*
X72429698Y-138405000D01*
X72829698Y-138005000D02*
X72829698Y-138805000D01*
%TO.C,J6*%
D12*
X321492380Y-113899523D02*
X321492380Y-113280476D01*
X321873333Y-113613809D01*
X321873333Y-113470952D01*
X321920952Y-113375714D01*
X321968571Y-113328095D01*
X322063809Y-113280476D01*
X322301904Y-113280476D01*
X322397142Y-113328095D01*
X322444761Y-113375714D01*
X322492380Y-113470952D01*
X322492380Y-113756666D01*
X322444761Y-113851904D01*
X322397142Y-113899523D01*
X322492380Y-112804285D02*
X322492380Y-112613809D01*
X322444761Y-112518571D01*
X322397142Y-112470952D01*
X322254285Y-112375714D01*
X322063809Y-112328095D01*
X321682857Y-112328095D01*
X321587619Y-112375714D01*
X321540000Y-112423333D01*
X321492380Y-112518571D01*
X321492380Y-112709047D01*
X321540000Y-112804285D01*
X321587619Y-112851904D01*
X321682857Y-112899523D01*
X321920952Y-112899523D01*
X322016190Y-112851904D01*
X322063809Y-112804285D01*
X322111428Y-112709047D01*
X322111428Y-112518571D01*
X322063809Y-112423333D01*
X322016190Y-112375714D01*
X321920952Y-112328095D01*
X328585714Y-114115714D02*
X329252380Y-114115714D01*
X328204761Y-114353809D02*
X328919047Y-114591904D01*
X328919047Y-113972857D01*
X328252380Y-113401428D02*
X328252380Y-113306190D01*
X328300000Y-113210952D01*
X328347619Y-113163333D01*
X328442857Y-113115714D01*
X328633333Y-113068095D01*
X328871428Y-113068095D01*
X329061904Y-113115714D01*
X329157142Y-113163333D01*
X329204761Y-113210952D01*
X329252380Y-113306190D01*
X329252380Y-113401428D01*
X329204761Y-113496666D01*
X329157142Y-113544285D01*
X329061904Y-113591904D01*
X328871428Y-113639523D01*
X328633333Y-113639523D01*
X328442857Y-113591904D01*
X328347619Y-113544285D01*
X328300000Y-113496666D01*
X328252380Y-113401428D01*
X322922380Y-61044285D02*
X322922380Y-61615714D01*
X322922380Y-61330000D02*
X321922380Y-61330000D01*
X322065238Y-61425238D01*
X322160476Y-61520476D01*
X322208095Y-61615714D01*
X328447619Y-60215714D02*
X328400000Y-60168095D01*
X328352380Y-60072857D01*
X328352380Y-59834761D01*
X328400000Y-59739523D01*
X328447619Y-59691904D01*
X328542857Y-59644285D01*
X328638095Y-59644285D01*
X328780952Y-59691904D01*
X329352380Y-60263333D01*
X329352380Y-59644285D01*
%TO.C,C1*%
X67097142Y-110913333D02*
X67144761Y-110865714D01*
X67192380Y-110722857D01*
X67192380Y-110627619D01*
X67144761Y-110484761D01*
X67049523Y-110389523D01*
X66954285Y-110341904D01*
X66763809Y-110294285D01*
X66620952Y-110294285D01*
X66430476Y-110341904D01*
X66335238Y-110389523D01*
X66240000Y-110484761D01*
X66192380Y-110627619D01*
X66192380Y-110722857D01*
X66240000Y-110865714D01*
X66287619Y-110913333D01*
X67192380Y-111865714D02*
X67192380Y-111294285D01*
X67192380Y-111580000D02*
X66192380Y-111580000D01*
X66335238Y-111484761D01*
X66430476Y-111389523D01*
X66478095Y-111294285D01*
%TD*%
M02*
