M48
; DRILL file {KiCad 5.1.7-a382d34a8~88~ubuntu18.04.1} date Wed Apr 28 22:46:55 2021
; FORMAT={-:-/ absolute / inch / decimal}
; #@! TF.CreationDate,2021-04-28T22:46:55-04:00
; #@! TF.GenerationSoftware,Kicad,Pcbnew,5.1.7-a382d34a8~88~ubuntu18.04.1
FMAT,2
INCH
T1C0.0157
T2C0.0295
T3C0.0315
T4C0.0320
T5C0.0354
T6C0.0394
T7C0.0400
T8C0.0413
T9C0.0430
T10C0.0433
T11C0.0472
T12C0.0512
T13C0.0551
T14C0.0591
T15C0.0630
T16C0.0709
T17C0.0787
T18C0.1575
T19C0.0945
T20C0.1575
T21C0.1772
%
G90
G05
T1
X2.4478Y-4.2126
X3.4487Y-5.388
X3.6061Y-2.3632
X4.4861Y-2.775
X4.577Y-2.2896
X4.5966Y-2.7187
X4.626Y-2.6063
X4.6437Y-2.4598
X4.6468Y-5.0411
X4.6504Y-2.555
X4.6681Y-2.5161
X4.7063Y-4.6425
X4.7076Y-2.5697
X4.7093Y-4.9997
X4.7209Y-3.9204
X4.776Y-2.4975
X4.805Y-2.4151
X4.8276Y-5.1781
X4.8512Y-4.835
X4.8564Y-3.0881
X4.9186Y-1.911
X4.9328Y-3.2036
X4.9393Y-2.7187
X4.9717Y-4.1039
X4.9745Y-3.912
X5.1339Y-3.6956
X5.1444Y-3.3055
X5.1531Y-3.5021
X5.1588Y-4.5709
X5.1737Y-3.5427
X5.187Y-4.2028
X5.1888Y-3.8578
X5.1933Y-4.538
X5.1974Y-3.9788
X5.2268Y-3.8266
X5.2427Y-4.0143
X5.3057Y-4.7557
X5.3099Y-1.9045
X5.3431Y-2.2251
X5.4006Y-2.2574
X5.4396Y-3.3915
X5.4884Y-5.8935
X5.5186Y-3.3915
X5.7203Y-1.9764
X5.729Y-3.1384
X5.7942Y-4.1328
X5.8061Y-5.2887
X5.8069Y-2.0108
X5.818Y-3.9606
X5.8466Y-3.458
X5.8754Y-3.5199
X5.8817Y-3.3813
X5.8854Y-2.6575
X5.8896Y-2.211
X6.0049Y-4.3946
X6.021Y-3.2729
X6.032Y-3.8299
X6.0402Y-2.2107
X6.043Y-3.2358
X6.0649Y-3.2727
X6.0806Y-4.9681
X6.0811Y-2.1039
X6.0833Y-5.0806
X6.088Y-2.9567
X6.0898Y-3.6018
X6.1082Y-3.543
X6.1182Y-4.3604
X6.1279Y-5.1741
X6.1467Y-5.1254
X6.1768Y-1.8671
X6.1826Y-4.8566
X6.1859Y-2.7575
X6.1912Y-3.2154
X6.2135Y-5.2413
X6.2135Y-5.432
X6.2268Y-3.509
X6.3229Y-4.538
X6.3464Y-3.6219
X6.3683Y-3.3856
X6.3779Y-3.7901
X6.3915Y-2.3694
X6.401Y-4.1581
X6.407Y-3.5304
X6.4379Y-3.003
X6.4717Y-2.4325
X6.4717Y-2.6567
X6.5044Y-3.9686
X6.5327Y-2.8936
X6.5758Y-5.222
X6.5917Y-4.5524
X6.6413Y-4.0516
X6.644Y-2.8379
X6.6829Y-4.1815
X6.7269Y-2.7664
X6.7328Y-4.064
X6.7668Y-3.3478
X6.768Y-1.7291
X6.7691Y-4.889
X6.7932Y-2.8946
X6.7999Y-4.9149
X6.8089Y-3.1084
X6.8108Y-4.0412
X6.8226Y-5.0041
X6.8375Y-2.7061
X6.8504Y-3.9862
X6.8509Y-3.0618
X6.8543Y-3.591
X6.8602Y-4.2402
X6.867Y-4.1177
X6.8878Y-4.2126
X6.9187Y-4.2862
X6.939Y-3.5039
X6.9529Y-4.0369
X6.9725Y-2.4644
X7.0144Y-5.2409
X7.0394Y-4.5659
X7.059Y-4.0952
X7.0595Y-2.4008
X7.0691Y-4.2233
X7.0772Y-5.118
X7.0786Y-2.9796
X7.0863Y-3.9582
X7.0907Y-5.2404
X7.1018Y-4.0154
X7.1041Y-3.7991
X7.1122Y-3.5527
X7.1198Y-3.1061
X7.1245Y-4.2369
X7.1351Y-3.9929
X7.1395Y-5.228
X7.1756Y-4.1348
X7.2025Y-4.1637
X7.2102Y-4.2371
X7.2246Y-3.0995
X7.2288Y-4.1931
X7.2305Y-2.8035
X7.2637Y-3.5233
X7.2638Y-2.5197
X7.2928Y-2.4422
X7.2942Y-2.7061
X7.295Y-3.5889
X7.3006Y-3.8234
X7.3065Y-3.5085
X7.3356Y-3.5753
X7.3811Y-4.2368
X7.4018Y-3.4698
X7.4134Y-3.5214
X7.4578Y-5.942
X7.4579Y-4.3744
X7.4646Y-2.3152
X7.4696Y-6.035
X7.4769Y-3.4078
X7.4948Y-3.8429
X7.5219Y-3.3659
X7.5231Y-2.4731
X7.5357Y-3.8132
X7.5553Y-3.4832
X7.6011Y-5.8043
X7.6181Y-3.587
X7.6475Y-1.9626
X7.6615Y-4.167
X7.7172Y-4.2365
X7.7354Y-5.9486
X7.7423Y-3.7061
X7.7599Y-4.2382
X7.768Y-3.0559
X7.7735Y-2.2521
X7.8526Y-5.0041
X7.874Y-2.5394
X7.9867Y-4.3451
X8.0876Y-2.7362
X8.1935Y-2.0132
X8.2128Y-2.2618
X8.2229Y-2.8501
X8.2258Y-4.7557
X8.3083Y-5.7252
X8.3169Y-4.8031
X8.3764Y-3.1807
X8.3764Y-4.067
X8.4277Y-3.6242
X8.4359Y-4.1595
X8.4374Y-3.1546
X8.4483Y-3.7976
X8.4509Y-3.993
X8.4577Y-4.8281
X8.478Y-2.8484
X8.503Y-1.7636
X8.51Y-3.9154
X8.585Y-4.7244
X8.5967Y-3.0612
X8.6614Y-3.9567
X8.7931Y-1.7636
X8.8941Y-2.5241
X9.0084Y-4.2773
X9.02Y-5.773
X9.0247Y-3.4458
X9.0531Y-2.0276
X9.0925Y-2.0276
X9.1142Y-3.9567
X9.1623Y-5.2236
X9.207Y-2.3426
X9.2119Y-2.1844
X9.2571Y-5.0103
X9.2635Y-2.4292
X9.2637Y-2.2364
X9.3071Y-2.9649
X9.3103Y-4.056
X9.3106Y-3.2858
X9.35Y-3.2858
X9.3584Y-3.2317
X9.3654Y-5.2214
X9.4263Y-2.6545
X9.4768Y-5.2219
X9.505Y-3.4159
X9.5979Y-5.2806
X9.6037Y-5.4581
X9.7007Y-5.6043
X9.7095Y-5.7153
X9.7383Y-5.8794
X9.7768Y-3.1638
X9.7846Y-3.676
X9.7999Y-3.5159
X9.8141Y-3.2415
X9.8641Y-3.6236
X9.9016Y-5.3346
X10.1124Y-5.5259
X10.1308Y-5.5648
X10.2486Y-2.1629
X10.2643Y-2.3636
X10.2674Y-2.6534
X10.2714Y-2.5195
X10.2953Y-5.6299
X10.3979Y-4.7492
X10.4035Y-4.6762
X10.4037Y-5.4924
X10.4945Y-4.8992
X10.5076Y-5.4656
X10.5209Y-5.525
X10.5414Y-3.2176
X10.56Y-4.6946
X10.5734Y-3.74
X10.5926Y-2.2091
X10.6015Y-4.7036
X10.6052Y-2.0091
X10.6124Y-5.4083
X10.6196Y-2.9139
X10.629Y-5.2214
X10.6326Y-3.0148
X10.6349Y-1.6025
X10.6403Y-5.5372
X10.643Y-4.5256
X10.742Y-4.5949
X10.7725Y-3.9925
X10.8006Y-3.0433
X10.8006Y-3.4458
X10.8006Y-3.676
X10.8006Y-3.924
X10.907Y-3.2176
X10.9194Y-4.95
X10.9276Y-3.9706
X10.9337Y-5.1024
X10.9869Y-4.102
X11.0326Y-4.038
X11.0727Y-4.0056
X11.0881Y-2.674
X11.1436Y-5.5928
X11.2621Y-3.8758
X11.2757Y-5.7412
X11.2837Y-4.0965
X11.2994Y-4.2056
X11.3025Y-4.2774
X11.312Y-5.9606
X11.328Y-4.0966
X11.3406Y-2.9293
X11.3683Y-4.9606
X11.3726Y-4.0973
X11.3726Y-4.2044
X11.3851Y-5.0802
X11.3996Y-4.3896
X11.4189Y-4.2056
X11.4486Y-4.097
X11.4514Y-4.229
X11.4643Y-2.8878
X11.467Y-4.0507
X11.5059Y-4.2479
X11.5233Y-4.2035
X11.5332Y-4.3187
X11.5378Y-5.1896
X11.5403Y-4.3661
X11.5415Y-5.7126
X11.5566Y-5.5606
X11.5646Y-5.2894
X11.5699Y-5.1014
X11.5717Y-5.5153
X11.5857Y-5.4064
X11.6309Y-2.9478
X11.6349Y-4.2712
X11.6407Y-4.4144
X11.6776Y-4.5052
X11.7136Y-4.1924
X11.7237Y-4.891
X11.7525Y-4.7115
X11.7554Y-3.8378
X11.7839Y-4.0504
X11.7949Y-3.8334
X11.8587Y-4.2074
X11.873Y-2.6393
X11.8854Y-5.1812
X11.8927Y-2.3277
X11.9046Y-2.0032
X11.9161Y-2.9855
X11.9183Y-3.2771
X11.9326Y-3.8369
X11.9587Y-1.998
X11.9626Y-3.3209
X11.9784Y-3.0693
X11.9869Y-5.1769
X11.9885Y-3.1628
X12.007Y-4.0828
X12.0356Y-4.0538
X12.0439Y-3.3968
X12.055Y-4.7785
X12.0607Y-4.1321
X12.0934Y-3.3616
X12.1093Y-2.6058
X12.1155Y-3.9999
X12.1679Y-3.4803
X12.1864Y-2.8544
X12.2232Y-3.2917
X12.2543Y-3.4358
X12.2814Y-3.6303
X12.3425Y-2.9921
X12.369Y-2.3905
X12.3809Y-3.5352
X12.4239Y-3.5803
X12.4623Y-4.0746
X12.4866Y-3.2546
X12.4987Y-3.8347
X12.5Y-3.0315
X12.5309Y-3.0925
X12.5394Y-2.9439
X12.6952Y-2.4271
X12.7049Y-3.2589
X12.8338Y-3.219
X12.8416Y-4.0257
X12.8454Y-4.1737
X12.856Y-2.5539
X13.3108Y-4.8427
X13.4071Y-3.317
T2
X5.3953Y-4.4634
X5.4453Y-4.4634
X5.4953Y-4.4634
T3
X4.4406Y-4.8031
X4.4406Y-5.1969
X8.4634Y-3.3031
X8.4634Y-3.7031
X5.2512Y-1.7984
X5.2512Y-2.1921
X8.0122Y-1.2193
X8.0122Y-1.7193
X8.0122Y-1.9193
X8.3122Y-1.2193
X8.3122Y-1.8193
X12.2766Y-5.6055
X12.2766Y-5.9992
X5.7709Y-3.3638
X5.7709Y-3.7638
X9.7043Y-2.3984
X9.7831Y-2.3984
X9.6339Y-1.5866
X9.6339Y-1.6866
X9.6339Y-1.7866
X9.6339Y-1.8866
X9.6339Y-1.9866
X9.6339Y-2.0866
X9.6339Y-2.1866
X9.9339Y-1.5866
X9.9339Y-1.6866
X9.9339Y-1.7866
X9.9339Y-1.8866
X9.9339Y-1.9866
X9.9339Y-2.0866
X9.9339Y-2.1866
X4.861Y-2.2469
X4.861Y-2.4437
X2.4209Y-4.2748
X2.4209Y-4.4717
X5.7295Y-2.6063
X5.8083Y-2.6063
X12.3315Y-4.5969
X12.3315Y-4.9969
X2.611Y-5.5402
X2.8079Y-5.5402
X4.4045Y-1.5189
X4.4045Y-1.7157
X6.8827Y-4.4878
X6.9827Y-4.4878
X7.0827Y-4.4878
X7.1827Y-4.4878
X7.2827Y-4.4878
X7.3827Y-4.4878
X7.4827Y-4.4878
X7.5827Y-4.4878
X7.6827Y-4.4878
X7.7827Y-4.4878
X11.0961Y-4.3701
X11.0961Y-4.7638
X3.8399Y-5.4882
X3.8399Y-5.8882
X5.1169Y-3.4016
X5.1169Y-3.8016
X6.5307Y-1.8555
X6.7276Y-1.8555
X10.3195Y-1.6051
X10.7132Y-1.6051
X4.863Y-1.8819
X4.863Y-2.0787
X7.687Y-2.1618
X7.687Y-2.2618
X7.687Y-2.3618
X7.687Y-2.4618
X7.687Y-2.5618
X7.687Y-2.6618
X7.687Y-2.7618
X7.687Y-2.8618
X7.687Y-2.9618
X7.687Y-3.0618
X7.687Y-3.1618
X7.687Y-3.2618
X7.687Y-3.3618
X7.687Y-3.4618
X7.687Y-3.5618
X7.687Y-3.6618
X7.687Y-3.7618
X7.687Y-3.8618
X7.687Y-3.9618
X7.687Y-4.0618
X8.287Y-2.1618
X8.287Y-2.2618
X8.287Y-2.3618
X8.287Y-2.4618
X8.287Y-2.5618
X8.287Y-2.6618
X8.287Y-2.7618
X8.287Y-2.8618
X8.287Y-2.9618
X8.287Y-3.0618
X8.287Y-3.1618
X8.287Y-3.2618
X8.287Y-3.3618
X8.287Y-3.4618
X8.287Y-3.5618
X8.287Y-3.6618
X8.287Y-3.7618
X8.287Y-3.8618
X8.287Y-3.9618
X8.287Y-4.0618
X5.2807Y-5.3043
X5.2807Y-5.4043
X5.2807Y-5.5043
X5.2807Y-5.6043
X5.2807Y-5.7043
X5.2807Y-5.8043
X5.2807Y-5.9043
X5.2807Y-6.0043
X5.5807Y-5.3043
X5.5807Y-5.4043
X5.5807Y-5.5043
X5.5807Y-5.6043
X5.5807Y-5.7043
X5.5807Y-5.8043
X5.5807Y-5.9043
X5.5807Y-6.0043
X8.3886Y-2.6457
X8.3886Y-3.0457
X10.9831Y-3.9433
X11.0618Y-3.9433
X3.6849Y-5.4882
X3.6849Y-5.8882
X3.8335Y-6.0827
X3.8335Y-6.3827
X5.176Y-4.626
X5.3728Y-4.626
X5.2334Y-6.1772
X5.6271Y-6.1772
X8.0474Y-6.1772
X8.4411Y-6.1772
X12.1638Y-5.6528
X12.1638Y-5.9528
X3.9949Y-5.4882
X3.9949Y-5.8882
X10.2087Y-4.1492
X10.2087Y-4.2492
X10.2087Y-4.3492
X10.2087Y-4.4492
X10.2087Y-4.5492
X10.2087Y-4.6492
X10.2087Y-4.7492
X10.2087Y-4.8492
X10.2087Y-4.9492
X10.2087Y-5.0492
X10.2087Y-5.1492
X10.2087Y-5.2492
X10.2087Y-5.3492
X10.2087Y-5.4492
X10.2087Y-5.5492
X10.2087Y-5.6492
X10.2087Y-5.7492
X10.2087Y-5.8492
X10.2087Y-5.9492
X10.2087Y-6.0492
X10.8087Y-4.1492
X10.8087Y-4.2492
X10.8087Y-4.3492
X10.8087Y-4.4492
X10.8087Y-4.5492
X10.8087Y-4.6492
X10.8087Y-4.7492
X10.8087Y-4.8492
X10.8087Y-4.9492
X10.8087Y-5.0492
X10.8087Y-5.1492
X10.8087Y-5.2492
X10.8087Y-5.3492
X10.8087Y-5.4492
X10.8087Y-5.5492
X10.8087Y-5.6492
X10.8087Y-5.7492
X10.8087Y-5.8492
X10.8087Y-5.9492
X10.8087Y-6.0492
X8.4661Y-1.4
X8.4661Y-1.7
X4.1815Y-2.6657
X4.1815Y-2.7657
X4.1815Y-2.8657
X4.1815Y-2.9657
X4.1815Y-3.0657
X4.1815Y-3.1657
X4.1815Y-3.2657
X4.1815Y-3.3657
X4.1815Y-3.4657
X4.1815Y-3.5657
X4.1815Y-3.6657
X4.1815Y-3.7657
X4.1815Y-3.8657
X4.1815Y-3.9657
X4.1815Y-4.0657
X4.1815Y-4.1657
X4.1815Y-4.2657
X4.1815Y-4.3657
X4.1815Y-4.4657
X4.1815Y-4.5657
X4.7815Y-2.6657
X4.7815Y-2.7657
X4.7815Y-2.8657
X4.7815Y-2.9657
X4.7815Y-3.0657
X4.7815Y-3.1657
X4.7815Y-3.2657
X4.7815Y-3.3657
X4.7815Y-3.4657
X4.7815Y-3.5657
X4.7815Y-3.6657
X4.7815Y-3.7657
X4.7815Y-3.8657
X4.7815Y-3.9657
X4.7815Y-4.0657
X4.7815Y-4.1657
X4.7815Y-4.2657
X4.7815Y-4.3657
X4.7815Y-4.4657
X4.7815Y-4.5657
X5.9606Y-2.1575
X5.9606Y-2.2575
X5.9606Y-2.3575
X5.9606Y-2.4575
X5.9606Y-2.5575
X5.9606Y-2.6575
X5.9606Y-2.7575
X5.9606Y-2.8575
X5.9606Y-2.9575
X5.9606Y-3.0575
X6.2606Y-2.1575
X6.2606Y-2.2575
X6.2606Y-2.3575
X6.2606Y-2.4575
X6.2606Y-2.5575
X6.2606Y-2.6575
X6.2606Y-2.7575
X6.2606Y-2.8575
X6.2606Y-2.9575
X6.2606Y-3.0575
X5.2496Y-3.5642
X5.6433Y-3.5642
X10.3228Y-3.9453
X10.7165Y-3.9453
X5.2969Y-3.7559
X5.2969Y-3.8559
X5.2969Y-3.9559
X5.2969Y-4.0559
X5.5969Y-3.7559
X5.5969Y-3.8559
X5.5969Y-3.9559
X5.5969Y-4.0559
X12.2031Y-4.6638
X12.2031Y-4.9638
X7.4539Y-3.7795
X7.4539Y-4.1732
X9.5846Y-1.3878
X9.9783Y-1.3878
X8.1091Y-4.1969
X8.3059Y-4.1969
X12.2636Y-1.8268
X12.2636Y-2.2268
X12.4551Y-4.5969
X12.4551Y-4.9969
X5.6665Y-1.8071
X5.6665Y-2.2008
X12.5224Y-2.0906
X12.5224Y-2.2874
X4.361Y-1.8575
X4.361Y-2.0543
X10.0185Y-5.3614
X10.0185Y-5.6614
X3.0008Y-5.0709
X3.3945Y-5.0709
X6.6169Y-4.2402
X7.0106Y-4.2402
X6.6404Y-6.1772
X7.0341Y-6.1772
X12.3228Y-5.2673
X12.3228Y-5.3461
X5.4713Y-4.2441
X5.6681Y-4.2441
X11.3199Y-1.6165
X11.7136Y-1.6165
X5.5394Y-1.9004
X5.5394Y-2.0972
X5.9606Y-3.4606
X5.9606Y-3.5606
X5.9606Y-3.6606
X5.9606Y-3.7606
X5.9606Y-3.8606
X5.9606Y-3.9606
X5.9606Y-4.0606
X5.9606Y-4.1606
X5.9606Y-4.2606
X5.9606Y-4.3606
X6.2606Y-3.4606
X6.2606Y-3.5606
X6.2606Y-3.6606
X6.2606Y-3.7606
X6.2606Y-3.8606
X6.2606Y-3.9606
X6.2606Y-4.0606
X6.2606Y-4.1606
X6.2606Y-4.2606
X6.2606Y-4.3606
X7.3911Y-5.3043
X7.3911Y-5.4043
X7.3911Y-5.5043
X7.3911Y-5.6043
X7.3911Y-5.7043
X7.3911Y-5.8043
X7.3911Y-5.9043
X7.3911Y-6.0043
X7.6911Y-5.3043
X7.6911Y-5.4043
X7.6911Y-5.5043
X7.6911Y-5.6043
X7.6911Y-5.7043
X7.6911Y-5.8043
X7.6911Y-5.9043
X7.6911Y-6.0043
X4.9047Y-4.0508
X4.9047Y-4.4508
X12.6567Y-1.8598
X12.6567Y-2.2598
X11.2165Y-1.8091
X11.2165Y-1.9091
X11.2165Y-2.0091
X11.2165Y-2.1091
X11.2165Y-2.2091
X11.2165Y-2.3091
X11.2165Y-2.4091
X11.2165Y-2.5091
X11.2165Y-2.6091
X11.2165Y-2.7091
X11.2165Y-2.8091
X11.2165Y-2.9091
X11.8165Y-1.8091
X11.8165Y-1.9091
X11.8165Y-2.0091
X11.8165Y-2.1091
X11.8165Y-2.2091
X11.8165Y-2.3091
X11.8165Y-2.4091
X11.8165Y-2.5091
X11.8165Y-2.6091
X11.8165Y-2.7091
X11.8165Y-2.8091
X11.8165Y-2.9091
X8.5067Y-2.6457
X8.5067Y-3.0457
X3.6957Y-6.0827
X3.6957Y-6.3827
X8.0946Y-5.3043
X8.0946Y-5.4043
X8.0946Y-5.5043
X8.0946Y-5.6043
X8.0946Y-5.7043
X8.0946Y-5.8043
X8.0946Y-5.9043
X8.0946Y-6.0043
X8.3946Y-5.3043
X8.3946Y-5.4043
X8.3946Y-5.5043
X8.3946Y-5.6043
X8.3946Y-5.7043
X8.3946Y-5.8043
X8.3946Y-5.9043
X8.3946Y-6.0043
X12.7953Y-2.0551
X12.7953Y-2.252
X5.8098Y-4.0512
X5.8098Y-4.4512
X3.048Y-5.3425
X3.048Y-5.4425
X3.048Y-5.5425
X3.048Y-5.6425
X3.048Y-5.7425
X3.048Y-5.8425
X3.048Y-5.9425
X3.048Y-6.0425
X3.348Y-5.3425
X3.348Y-5.4425
X3.348Y-5.5425
X3.348Y-5.6425
X3.348Y-5.7425
X3.348Y-5.8425
X3.348Y-5.9425
X3.348Y-6.0425
X2.5083Y-6.102
X2.902Y-6.102
X5.9369Y-6.1772
X6.3306Y-6.1772
X8.7508Y-6.1772
X9.1445Y-6.1772
X5.9841Y-5.3043
X5.9841Y-5.4043
X5.9841Y-5.5043
X5.9841Y-5.6043
X5.9841Y-5.7043
X5.9841Y-5.8043
X5.9841Y-5.9043
X5.9841Y-6.0043
X6.2841Y-5.3043
X6.2841Y-5.4043
X6.2841Y-5.5043
X6.2841Y-5.6043
X6.2841Y-5.7043
X6.2841Y-5.8043
X6.2841Y-5.9043
X6.2841Y-6.0043
X9.6209Y-2.5858
X9.6209Y-2.6858
X9.6209Y-2.7858
X9.6209Y-2.8858
X9.6209Y-2.9858
X9.6209Y-3.0858
X9.6209Y-3.1858
X9.6209Y-3.2858
X9.9209Y-2.5858
X9.9209Y-2.6858
X9.9209Y-2.7858
X9.9209Y-2.8858
X9.9209Y-2.9858
X9.9209Y-3.0858
X9.9209Y-3.1858
X9.9209Y-3.2858
X9.8256Y-4.4016
X9.8256Y-4.8016
X5.2618Y-4.2457
X5.3602Y-4.2457
X9.4543Y-6.1772
X9.848Y-6.1772
X12.0768Y-2.5091
X12.0768Y-2.7059
X5.9134Y-3.2311
X6.3071Y-3.2311
X9.4736Y-4.402
X9.4736Y-4.802
X12.4508Y-2.4776
X12.4508Y-2.8713
X10.2161Y-1.8091
X10.2161Y-1.9091
X10.2161Y-2.0091
X10.2161Y-2.1091
X10.2161Y-2.2091
X10.2161Y-2.3091
X10.2161Y-2.4091
X10.2161Y-2.5091
X10.2161Y-2.6091
X10.2161Y-2.7091
X10.2161Y-2.8091
X10.2161Y-2.9091
X10.8161Y-1.8091
X10.8161Y-1.9091
X10.8161Y-2.0091
X10.8161Y-2.1091
X10.8161Y-2.2091
X10.8161Y-2.3091
X10.8161Y-2.4091
X10.8161Y-2.5091
X10.8161Y-2.6091
X10.8161Y-2.7091
X10.8161Y-2.8091
X10.8161Y-2.9091
X5.276Y-2.3091
X5.6697Y-2.3091
X5.4004Y-1.9016
X5.4004Y-2.0984
X9.9791Y-4.4134
X9.9791Y-4.8134
X7.5346Y-1.9327
X7.5346Y-2.1295
X10.0461Y-2.6024
X10.0461Y-2.9961
X4.9634Y-3.4016
X4.9634Y-3.8016
X6.6876Y-5.3043
X6.6876Y-5.4043
X6.6876Y-5.5043
X6.6876Y-5.6043
X6.6876Y-5.7043
X6.6876Y-5.8043
X6.6876Y-5.9043
X6.6876Y-6.0043
X6.9876Y-5.3043
X6.9876Y-5.4043
X6.9876Y-5.5043
X6.9876Y-5.6043
X6.9876Y-5.7043
X6.9876Y-5.8043
X6.9876Y-5.9043
X6.9876Y-6.0043
X7.3439Y-6.1772
X7.7376Y-6.1772
X3.0008Y-5.1953
X3.3945Y-5.1953
X12.1374Y-1.8268
X12.1374Y-2.2268
X9.613Y-4.1693
X9.7075Y-3.5
X9.8059Y-4.1693
X12.5264Y-1.6457
X12.5264Y-1.8425
X4.3327Y-1.1813
X4.3327Y-1.3781
X5.2969Y-2.4555
X5.2969Y-2.5555
X5.2969Y-2.6555
X5.2969Y-2.7555
X5.2969Y-2.8555
X5.2969Y-2.9555
X5.2969Y-3.0555
X5.2969Y-3.1555
X5.2969Y-3.2555
X5.2969Y-3.3555
X5.5969Y-2.4555
X5.5969Y-2.5555
X5.5969Y-2.6555
X5.5969Y-2.7555
X5.5969Y-2.8555
X5.5969Y-2.9555
X5.5969Y-3.0555
X5.5969Y-3.1555
X5.5969Y-3.2555
X5.5969Y-3.3555
X8.461Y-1.9839
X8.461Y-2.3839
X4.4154Y-2.2413
X4.4154Y-2.4382
X2.502Y-5.7933
X2.902Y-5.7933
X4.5299Y-6.1772
X4.9236Y-6.1772
X4.5772Y-5.3043
X4.5772Y-5.4043
X4.5772Y-5.5043
X4.5772Y-5.6043
X4.5772Y-5.7043
X4.5772Y-5.8043
X4.5772Y-5.9043
X4.5772Y-6.0043
X4.8772Y-5.3043
X4.8772Y-5.4043
X4.8772Y-5.5043
X4.8772Y-5.6043
X4.8772Y-5.7043
X4.8772Y-5.8043
X4.8772Y-5.9043
X4.8772Y-6.0043
X11.2193Y-4.1606
X11.2193Y-4.2606
X11.2193Y-4.3606
X11.2193Y-4.4606
X11.2193Y-4.5606
X11.2193Y-4.6606
X11.2193Y-4.7606
X11.2193Y-4.8606
X11.2193Y-4.9606
X11.2193Y-5.0606
X11.2193Y-5.1606
X11.2193Y-5.2606
X11.2193Y-5.3606
X11.2193Y-5.4606
X11.2193Y-5.5606
X11.2193Y-5.6606
X11.2193Y-5.7606
X11.2193Y-5.8606
X11.2193Y-5.9606
X11.2193Y-6.0606
X11.8193Y-4.1606
X11.8193Y-4.2606
X11.8193Y-4.3606
X11.8193Y-4.4606
X11.8193Y-4.5606
X11.8193Y-4.6606
X11.8193Y-4.7606
X11.8193Y-4.8606
X11.8193Y-4.9606
X11.8193Y-5.0606
X11.8193Y-5.1606
X11.8193Y-5.2606
X11.8193Y-5.3606
X11.8193Y-5.4606
X11.8193Y-5.5606
X11.8193Y-5.6606
X11.8193Y-5.7606
X11.8193Y-5.8606
X11.8193Y-5.9606
X11.8193Y-6.0606
X8.9713Y-4.063
X9.365Y-4.063
X9.5016Y-5.3043
X9.5016Y-5.4043
X9.5016Y-5.5043
X9.5016Y-5.6043
X9.5016Y-5.7043
X9.5016Y-5.8043
X9.5016Y-5.9043
X9.5016Y-6.0043
X9.8016Y-5.3043
X9.8016Y-5.4043
X9.8016Y-5.5043
X9.8016Y-5.6043
X9.8016Y-5.7043
X9.8016Y-5.8043
X9.8016Y-5.9043
X9.8016Y-6.0043
X3.5299Y-5.4882
X3.5299Y-5.8882
X9.5067Y-2.1378
X9.5067Y-2.3346
X8.7981Y-5.3043
X8.7981Y-5.4043
X8.7981Y-5.5043
X8.7981Y-5.6043
X8.7981Y-5.7043
X8.7981Y-5.8043
X8.7981Y-5.9043
X8.7981Y-6.0043
X9.0981Y-5.3043
X9.0981Y-5.4043
X9.0981Y-5.5043
X9.0981Y-5.6043
X9.0981Y-5.7043
X9.0981Y-5.8043
X9.0981Y-5.9043
X9.0981Y-6.0043
X12.3898Y-1.8268
X12.3898Y-2.2268
X5.1539Y-4.0508
X5.1539Y-4.4508
X12.3996Y-5.5984
X12.3996Y-5.9984
X5.9673Y-1.9843
X6.361Y-1.9843
X6.5831Y-2.1618
X6.5831Y-2.2618
X6.5831Y-2.3618
X6.5831Y-2.4618
X6.5831Y-2.5618
X6.5831Y-2.6618
X6.5831Y-2.7618
X6.5831Y-2.8618
X6.5831Y-2.9618
X6.5831Y-3.0618
X6.5831Y-3.1618
X6.5831Y-3.2618
X6.5831Y-3.3618
X6.5831Y-3.4618
X6.5831Y-3.5618
X6.5831Y-3.6618
X6.5831Y-3.7618
X6.5831Y-3.8618
X6.5831Y-3.9618
X6.5831Y-4.0618
X7.1831Y-2.1618
X7.1831Y-2.2618
X7.1831Y-2.3618
X7.1831Y-2.4618
X7.1831Y-2.5618
X7.1831Y-2.6618
X7.1831Y-2.7618
X7.1831Y-2.8618
X7.1831Y-2.9618
X7.1831Y-3.0618
X7.1831Y-3.1618
X7.1831Y-3.2618
X7.1831Y-3.3618
X7.1831Y-3.4618
X7.1831Y-3.5618
X7.1831Y-3.6618
X7.1831Y-3.7618
X7.1831Y-3.8618
X7.1831Y-3.9618
X7.1831Y-4.0618
T4
X4.7209Y-1.8622
X4.7209Y-2.4122
X4.5579Y-1.8622
X4.5579Y-2.4122
X10.9504Y-4.2146
X10.9504Y-4.7646
X9.6732Y-4.3358
X9.6732Y-4.8858
T5
X5.1154Y-1.9374
X5.1154Y-2.3374
X4.9878Y-1.9374
X4.9878Y-2.3374
X5.0307Y-4.0551
X5.0307Y-4.4551
T6
X9.0256Y-2.6677
X9.0256Y-2.7677
X9.0256Y-2.8677
X9.0256Y-2.9677
X9.0256Y-3.0677
X9.0256Y-3.1677
X9.0256Y-3.2677
X6.8768Y-4.6366
X6.9768Y-4.6366
X7.0768Y-4.6366
X7.1768Y-4.6366
X7.2768Y-4.6366
X7.3768Y-4.6366
X7.4768Y-4.6366
X7.5768Y-4.6366
X7.6768Y-4.6366
X7.7768Y-4.6366
X7.8768Y-4.6366
X7.9768Y-4.6366
X8.0768Y-4.6366
X8.1768Y-4.6366
X8.2768Y-4.6366
X8.3768Y-4.6366
X9.2429Y-4.4921
X9.2429Y-4.689
T7
X10.8957Y-1.1535
X11.0728Y-1.1535
T8
X10.1244Y-3.8311
X10.1244Y-4.028
T9
X12.7897Y-2.4803
X12.7897Y-2.5803
X12.7897Y-2.6803
X12.7897Y-2.7803
X12.7897Y-2.8803
X12.7897Y-2.9803
X12.7897Y-3.0803
X12.7897Y-3.1803
X12.7897Y-3.2803
X12.7897Y-3.3803
X12.7897Y-3.4803
X12.7897Y-3.5803
X12.7897Y-3.6803
X12.7897Y-3.7803
X12.7897Y-3.8803
X12.7897Y-3.9803
X12.7897Y-4.0803
X12.7897Y-4.1803
X12.7897Y-4.2803
X12.7897Y-4.3803
X12.9457Y-2.4803
X12.9457Y-2.5803
X12.9457Y-2.6803
X12.9457Y-2.7803
X12.9457Y-2.8803
X12.9457Y-2.9803
X12.9457Y-3.0803
X12.9457Y-3.1803
X12.9457Y-3.2803
X12.9457Y-3.3803
X12.9457Y-3.4803
X12.9457Y-3.5803
X12.9457Y-3.6803
X12.9457Y-3.7803
X12.9457Y-3.8803
X12.9457Y-3.9803
X12.9457Y-4.0803
X12.9457Y-4.1803
X12.9457Y-4.2803
X12.9457Y-4.3803
T10
X3.8681Y-3.7846
X3.8681Y-4.1846
X3.735Y-3.7846
X3.735Y-4.1846
T11
X5.8157Y-1.8791
X5.8157Y-2.3791
X7.3559Y-1.8776
X7.3559Y-2.3776
X2.2917Y-5.9579
X2.8917Y-5.9579
X3.1516Y-4.2799
X3.1516Y-4.5752
T12
X6.3366Y-1.5492
X6.435Y-1.1555
X6.435Y-1.5492
X6.435Y-1.6476
X6.5335Y-1.1555
X6.5335Y-1.6476
X6.7303Y-1.1555
X6.7303Y-1.6476
X6.8287Y-1.1555
X6.8287Y-1.5492
X6.8287Y-1.6476
X6.9272Y-1.5492
X5.4839Y-1.5492
X5.5823Y-1.1555
X5.5823Y-1.6476
X5.6807Y-1.1555
X5.7791Y-1.5492
X5.7791Y-1.7461
X5.8776Y-1.1555
X5.976Y-1.1555
X5.976Y-1.6476
X6.0744Y-1.5492
X8.0134Y-1.4173
X8.0134Y-1.5773
X8.0134Y-2.0173
X8.3134Y-1.5173
X8.3134Y-2.0173
X4.6146Y-1.5492
X4.713Y-1.1555
X4.713Y-1.6476
X4.8114Y-1.1555
X4.9098Y-1.5492
X4.9098Y-1.7461
X5.0083Y-1.1555
X5.1067Y-1.1555
X5.1067Y-1.6476
X5.2051Y-1.5492
X1.8913Y-4.8303
X1.8913Y-5.2602
X7.2028Y-1.5492
X7.3012Y-1.1555
X7.3012Y-1.6476
X7.3996Y-1.1555
X7.498Y-1.5492
X7.5965Y-1.1555
X7.6949Y-1.1555
X7.6949Y-1.6476
X7.7933Y-1.5492
T13
X3.7079Y-2.5362
X3.7075Y-3.0445
X2.6402Y-4.0827
T14
X10.8465Y-1.252
X11.122Y-1.252
T15
X3.7213Y-4.3713
X3.7213Y-4.9713
X3.9504Y-4.3713
X3.9504Y-4.9713
T16
X3.9319Y-1.7142
X3.9319Y-1.8717
X3.9319Y-2.0291
X4.1681Y-1.7142
X4.1681Y-1.8717
X4.1681Y-2.0291
T18
X13.1307Y-2.1428
X13.1307Y-4.7178
X1.226Y-5.0457
X2.415Y-5.0457
T19
X5.4839Y-1.3524
X4.6146Y-1.3524
X5.2051Y-1.3524
X7.2028Y-1.3524
X7.7933Y-1.3524
X6.3366Y-1.3524
X6.9272Y-1.3524
X6.0744Y-1.3524
T20
X11.8504Y-1.2795
X1.122Y-6.3177
T21
X0.7874Y-6.3189
T17
G00X8.8091Y-1.1417
M15
G01X8.6516Y-1.1417
M16
G05
G00X8.8091Y-3.7402
M15
G01X8.6516Y-3.7402
M16
G05
G00X9.3996Y-1.1417
M15
G01X9.2421Y-1.1417
M16
G05
G00X9.3996Y-3.7402
M15
G01X9.2421Y-3.7402
M16
G05
T0
M30
