%TF.GenerationSoftware,KiCad,Pcbnew,5.1.7-a382d34a8~88~ubuntu18.04.1*%
%TF.CreationDate,2021-04-28T22:46:49-04:00*%
%TF.ProjectId,coco2,636f636f-322e-46b6-9963-61645f706362,1.0.1*%
%TF.SameCoordinates,Original*%
%TF.FileFunction,Other,Fab,Bot*%
%FSLAX46Y46*%
G04 Gerber Fmt 4.6, Leading zero omitted, Abs format (unit mm)*
G04 Created by KiCad (PCBNEW 5.1.7-a382d34a8~88~ubuntu18.04.1) date 2021-04-28 22:46:49*
%MOMM*%
%LPD*%
G01*
G04 APERTURE LIST*
%ADD10C,0.100000*%
%ADD11C,0.150000*%
G04 APERTURE END LIST*
D10*
%TO.C,C1*%
X65490000Y-111080000D02*
G75*
G03*
X65490000Y-111080000I-4000000J0D01*
G01*
X63237500Y-114506759D02*
X63237500Y-113706759D01*
X63637500Y-114106759D02*
X62837500Y-114106759D01*
%TO.C,C5*%
X71846759Y-138572500D02*
X71846759Y-139372500D01*
X72246759Y-138972500D02*
X71446759Y-138972500D01*
X72820000Y-140720000D02*
G75*
G03*
X72820000Y-140720000I-4000000J0D01*
G01*
%TD*%
%TO.C,C1*%
D11*
X55787619Y-106818095D02*
X55740000Y-106865714D01*
X55692380Y-106960952D01*
X55692380Y-107199047D01*
X55740000Y-107294285D01*
X55787619Y-107341904D01*
X55882857Y-107389523D01*
X55978095Y-107389523D01*
X56120952Y-107341904D01*
X56692380Y-106770476D01*
X56692380Y-107389523D01*
X55787619Y-107770476D02*
X55740000Y-107818095D01*
X55692380Y-107913333D01*
X55692380Y-108151428D01*
X55740000Y-108246666D01*
X55787619Y-108294285D01*
X55882857Y-108341904D01*
X55978095Y-108341904D01*
X56120952Y-108294285D01*
X56692380Y-107722857D01*
X56692380Y-108341904D01*
X55692380Y-108960952D02*
X55692380Y-109056190D01*
X55740000Y-109151428D01*
X55787619Y-109199047D01*
X55882857Y-109246666D01*
X56073333Y-109294285D01*
X56311428Y-109294285D01*
X56501904Y-109246666D01*
X56597142Y-109199047D01*
X56644761Y-109151428D01*
X56692380Y-109056190D01*
X56692380Y-108960952D01*
X56644761Y-108865714D01*
X56597142Y-108818095D01*
X56501904Y-108770476D01*
X56311428Y-108722857D01*
X56073333Y-108722857D01*
X55882857Y-108770476D01*
X55787619Y-108818095D01*
X55740000Y-108865714D01*
X55692380Y-108960952D01*
X56025714Y-110151428D02*
X56692380Y-110151428D01*
X56025714Y-109722857D02*
X56549523Y-109722857D01*
X56644761Y-109770476D01*
X56692380Y-109865714D01*
X56692380Y-110008571D01*
X56644761Y-110103809D01*
X56597142Y-110151428D01*
X56168571Y-110960952D02*
X56168571Y-110627619D01*
X56692380Y-110627619D02*
X55692380Y-110627619D01*
X55692380Y-111103809D01*
X56692380Y-113532380D02*
X56692380Y-112960952D01*
X56692380Y-113246666D02*
X55692380Y-113246666D01*
X55835238Y-113151428D01*
X55930476Y-113056190D01*
X55978095Y-112960952D01*
X55692380Y-114389523D02*
X55692380Y-114199047D01*
X55740000Y-114103809D01*
X55787619Y-114056190D01*
X55930476Y-113960952D01*
X56120952Y-113913333D01*
X56501904Y-113913333D01*
X56597142Y-113960952D01*
X56644761Y-114008571D01*
X56692380Y-114103809D01*
X56692380Y-114294285D01*
X56644761Y-114389523D01*
X56597142Y-114437142D01*
X56501904Y-114484761D01*
X56263809Y-114484761D01*
X56168571Y-114437142D01*
X56120952Y-114389523D01*
X56073333Y-114294285D01*
X56073333Y-114103809D01*
X56120952Y-114008571D01*
X56168571Y-113960952D01*
X56263809Y-113913333D01*
X55692380Y-114770476D02*
X56692380Y-115103809D01*
X55692380Y-115437142D01*
%TO.C,C5*%
X72081904Y-146422380D02*
X72653333Y-146422380D01*
X72367619Y-146422380D02*
X72367619Y-145422380D01*
X72462857Y-145565238D01*
X72558095Y-145660476D01*
X72653333Y-145708095D01*
X71462857Y-145422380D02*
X71367619Y-145422380D01*
X71272380Y-145470000D01*
X71224761Y-145517619D01*
X71177142Y-145612857D01*
X71129523Y-145803333D01*
X71129523Y-146041428D01*
X71177142Y-146231904D01*
X71224761Y-146327142D01*
X71272380Y-146374761D01*
X71367619Y-146422380D01*
X71462857Y-146422380D01*
X71558095Y-146374761D01*
X71605714Y-146327142D01*
X71653333Y-146231904D01*
X71700952Y-146041428D01*
X71700952Y-145803333D01*
X71653333Y-145612857D01*
X71605714Y-145517619D01*
X71558095Y-145470000D01*
X71462857Y-145422380D01*
X70510476Y-145422380D02*
X70415238Y-145422380D01*
X70320000Y-145470000D01*
X70272380Y-145517619D01*
X70224761Y-145612857D01*
X70177142Y-145803333D01*
X70177142Y-146041428D01*
X70224761Y-146231904D01*
X70272380Y-146327142D01*
X70320000Y-146374761D01*
X70415238Y-146422380D01*
X70510476Y-146422380D01*
X70605714Y-146374761D01*
X70653333Y-146327142D01*
X70700952Y-146231904D01*
X70748571Y-146041428D01*
X70748571Y-145803333D01*
X70700952Y-145612857D01*
X70653333Y-145517619D01*
X70605714Y-145470000D01*
X70510476Y-145422380D01*
X69320000Y-145755714D02*
X69320000Y-146422380D01*
X69748571Y-145755714D02*
X69748571Y-146279523D01*
X69700952Y-146374761D01*
X69605714Y-146422380D01*
X69462857Y-146422380D01*
X69367619Y-146374761D01*
X69320000Y-146327142D01*
X68510476Y-145898571D02*
X68843809Y-145898571D01*
X68843809Y-146422380D02*
X68843809Y-145422380D01*
X68367619Y-145422380D01*
X66700952Y-146422380D02*
X67272380Y-146422380D01*
X66986666Y-146422380D02*
X66986666Y-145422380D01*
X67081904Y-145565238D01*
X67177142Y-145660476D01*
X67272380Y-145708095D01*
X65843809Y-145422380D02*
X66034285Y-145422380D01*
X66129523Y-145470000D01*
X66177142Y-145517619D01*
X66272380Y-145660476D01*
X66320000Y-145850952D01*
X66320000Y-146231904D01*
X66272380Y-146327142D01*
X66224761Y-146374761D01*
X66129523Y-146422380D01*
X65939047Y-146422380D01*
X65843809Y-146374761D01*
X65796190Y-146327142D01*
X65748571Y-146231904D01*
X65748571Y-145993809D01*
X65796190Y-145898571D01*
X65843809Y-145850952D01*
X65939047Y-145803333D01*
X66129523Y-145803333D01*
X66224761Y-145850952D01*
X66272380Y-145898571D01*
X66320000Y-145993809D01*
X65415238Y-145755714D02*
X65177142Y-146422380D01*
X64939047Y-145755714D01*
X69026666Y-135787142D02*
X69074285Y-135834761D01*
X69217142Y-135882380D01*
X69312380Y-135882380D01*
X69455238Y-135834761D01*
X69550476Y-135739523D01*
X69598095Y-135644285D01*
X69645714Y-135453809D01*
X69645714Y-135310952D01*
X69598095Y-135120476D01*
X69550476Y-135025238D01*
X69455238Y-134930000D01*
X69312380Y-134882380D01*
X69217142Y-134882380D01*
X69074285Y-134930000D01*
X69026666Y-134977619D01*
X68121904Y-134882380D02*
X68598095Y-134882380D01*
X68645714Y-135358571D01*
X68598095Y-135310952D01*
X68502857Y-135263333D01*
X68264761Y-135263333D01*
X68169523Y-135310952D01*
X68121904Y-135358571D01*
X68074285Y-135453809D01*
X68074285Y-135691904D01*
X68121904Y-135787142D01*
X68169523Y-135834761D01*
X68264761Y-135882380D01*
X68502857Y-135882380D01*
X68598095Y-135834761D01*
X68645714Y-135787142D01*
%TD*%
M02*
