M48
; DRILL file {KiCad 5.1.7-a382d34a8~88~ubuntu18.04.1} date Tue Mar 30 18:09:09 2021
; FORMAT={-:-/ absolute / inch / decimal}
; #@! TF.CreationDate,2021-03-30T18:09:09-04:00
; #@! TF.GenerationSoftware,Kicad,Pcbnew,5.1.7-a382d34a8~88~ubuntu18.04.1
FMAT,2
INCH
T1C0.0157
T2C0.0295
T3C0.0315
T4C0.0320
T5C0.0354
T6C0.0394
T7C0.0400
T8C0.0430
T9C0.0433
T10C0.0472
T11C0.0512
T12C0.0551
T13C0.0591
T14C0.0630
T15C0.0709
T16C0.0787
T17C0.1250
T18C0.1575
T19C0.0945
T20C0.1575
%
G90
G05
T1
X4.436Y-5.7283
X5.4369Y-6.9038
X5.5943Y-3.8789
X6.4743Y-4.2907
X6.5651Y-3.8054
X6.5848Y-4.2344
X6.6142Y-4.122
X6.6319Y-3.9755
X6.635Y-6.5569
X6.6386Y-4.0707
X6.6562Y-4.0318
X6.6945Y-6.1582
X6.6958Y-4.0854
X6.6975Y-6.5155
X6.7096Y-5.4367
X6.7642Y-4.0133
X6.7931Y-3.9308
X6.8157Y-6.6939
X6.8394Y-6.3507
X6.8446Y-4.6039
X6.9068Y-3.4268
X6.921Y-4.7193
X6.9275Y-4.2344
X6.9598Y-5.6196
X6.9627Y-5.4278
X7.1221Y-5.2113
X7.1326Y-4.8213
X7.1412Y-5.0178
X7.147Y-6.0866
X7.1619Y-5.0584
X7.177Y-5.3735
X7.1815Y-6.0537
X7.1856Y-5.4945
X7.1862Y-5.7398
X7.215Y-5.3423
X7.2309Y-5.5301
X7.2939Y-6.2714
X7.2981Y-3.4203
X7.3313Y-3.7408
X7.3887Y-3.7732
X7.4278Y-4.9072
X7.4766Y-7.4093
X7.5068Y-4.9072
X7.7085Y-3.4922
X7.7172Y-4.6542
X7.7824Y-5.6486
X7.7943Y-6.8044
X7.7951Y-3.5265
X7.8062Y-5.4764
X7.8348Y-4.9738
X7.8636Y-5.0356
X7.8698Y-4.897
X7.8736Y-4.1732
X7.8778Y-3.7268
X7.9931Y-5.9104
X8.0092Y-4.7887
X8.0202Y-5.3457
X8.0284Y-3.7264
X8.0312Y-4.7516
X8.0531Y-4.7885
X8.0688Y-6.4838
X8.0693Y-3.6197
X8.0715Y-6.5963
X8.0761Y-4.4724
X8.078Y-5.1176
X8.0964Y-5.0588
X8.1064Y-5.8761
X8.1161Y-6.6898
X8.1349Y-6.6411
X8.165Y-3.3829
X8.1708Y-6.3724
X8.1741Y-4.2732
X8.1794Y-4.7311
X8.2016Y-6.757
X8.2016Y-6.9477
X8.2149Y-5.0247
X8.3111Y-6.0537
X8.3346Y-5.1377
X8.3565Y-4.9014
X8.366Y-5.3058
X8.3796Y-3.8851
X8.3892Y-5.6738
X8.3952Y-5.0462
X8.4261Y-4.5188
X8.4598Y-3.9482
X8.4598Y-4.1724
X8.4817Y-5.4951
X8.5209Y-4.4093
X8.564Y-6.7378
X8.5799Y-6.0681
X8.6295Y-5.5673
X8.6322Y-4.3536
X8.6711Y-5.6972
X8.715Y-4.2821
X8.721Y-5.5798
X8.755Y-4.8635
X8.7562Y-3.2449
X8.7573Y-6.4047
X8.7814Y-4.4104
X8.7881Y-6.4306
X8.797Y-4.6242
X8.801Y-5.5543
X8.8107Y-6.5198
X8.8257Y-4.2219
X8.8289Y-5.5264
X8.8391Y-4.5776
X8.8424Y-5.1067
X8.8484Y-5.7559
X8.8552Y-5.6335
X8.876Y-5.7283
X8.9022Y-4.9984
X8.9069Y-5.802
X8.9411Y-5.5526
X8.9607Y-3.9802
X9.0026Y-6.7566
X9.0276Y-6.0681
X9.0471Y-5.6109
X9.0477Y-3.9166
X9.0573Y-5.7391
X9.0653Y-6.6337
X9.0668Y-4.4954
X9.0745Y-5.474
X9.0788Y-6.7562
X9.09Y-5.5311
X9.0923Y-5.0684
X9.0923Y-5.3149
X9.108Y-4.6219
X9.1127Y-5.7526
X9.1233Y-5.5087
X9.1277Y-6.7438
X9.1638Y-5.6506
X9.1907Y-5.6794
X9.1984Y-5.7528
X9.2127Y-4.6153
X9.217Y-5.7088
X9.2187Y-4.3193
X9.2315Y-4.0371
X9.2519Y-5.0391
X9.281Y-3.9579
X9.2824Y-4.2219
X9.2831Y-5.1047
X9.2887Y-5.3392
X9.2947Y-5.0242
X9.3238Y-5.091
X9.3692Y-5.7525
X9.3899Y-4.9855
X9.4016Y-5.0372
X9.446Y-7.4577
X9.4461Y-5.8902
X9.4528Y-3.831
X9.465Y-4.9236
X9.483Y-5.3586
X9.5101Y-4.8817
X9.5113Y-3.9889
X9.5239Y-5.3289
X9.5435Y-4.999
X9.5893Y-7.3201
X9.6063Y-5.1027
X9.6357Y-3.4784
X9.6497Y-5.6827
X9.7054Y-5.7522
X9.7236Y-7.4644
X9.7305Y-5.2219
X9.7481Y-5.7539
X9.7561Y-4.5716
X9.7617Y-3.7678
X9.8408Y-6.5198
X9.8743Y-4.0329
X9.9749Y-5.8608
X10.0758Y-4.252
X10.1817Y-3.529
X10.201Y-3.7776
X10.2111Y-4.3659
X10.214Y-6.2714
X10.2904Y-6.3181
X10.2965Y-7.241
X10.3646Y-4.6965
X10.3646Y-5.5827
X10.4159Y-5.1399
X10.4241Y-5.6752
X10.4256Y-4.6703
X10.4365Y-5.3133
X10.4391Y-5.5087
X10.4459Y-6.3438
X10.4662Y-4.3641
X10.4911Y-3.2793
X10.5028Y-5.4219
X10.5732Y-6.2532
X10.5849Y-4.577
X10.7171Y-5.3916
X10.7813Y-3.2793
X10.8823Y-4.0399
X10.9966Y-5.7931
X11.0082Y-7.2887
X11.0129Y-4.9616
X11.0413Y-3.5433
X11.0807Y-3.5433
X11.1505Y-6.7393
X11.1952Y-3.8583
X11.2001Y-3.7001
X11.2453Y-6.5261
X11.2517Y-3.945
X11.2519Y-3.7522
X11.2574Y-5.3916
X11.2953Y-4.4806
X11.2975Y-5.5692
X11.2988Y-4.8016
X11.3382Y-4.8016
X11.3466Y-4.7475
X11.3536Y-6.7372
X11.4145Y-4.1703
X11.465Y-6.7376
X11.4932Y-4.9316
X11.5751Y-6.8054
X11.5919Y-6.9739
X11.6889Y-7.1201
X11.6977Y-7.2311
X11.7265Y-7.3952
X11.7649Y-4.6795
X11.7728Y-5.1917
X11.7881Y-5.0317
X11.8023Y-4.7573
X11.8522Y-5.1393
X11.8595Y-6.8595
X12.1006Y-7.0417
X12.119Y-7.0805
X12.2368Y-3.6786
X12.2525Y-3.8794
X12.2556Y-4.1691
X12.2596Y-4.0353
X12.3021Y-7.135
X12.3861Y-6.265
X12.3919Y-7.0081
X12.397Y-6.1626
X12.4672Y-6.415
X12.4957Y-6.9813
X12.5092Y-7.0407
X12.5296Y-4.7333
X12.5482Y-6.2103
X12.5808Y-3.7248
X12.5897Y-6.2194
X12.5933Y-3.5248
X12.6006Y-6.924
X12.6078Y-4.4297
X12.6172Y-6.7371
X12.6207Y-4.5305
X12.6231Y-3.1183
X12.6285Y-7.053
X12.6312Y-6.0414
X12.7302Y-6.1107
X12.7607Y-5.5083
X12.7887Y-4.5591
X12.7887Y-4.9616
X12.7887Y-5.1917
X12.7887Y-5.4397
X12.8951Y-4.7333
X12.9075Y-6.4657
X12.9158Y-5.4863
X12.9219Y-6.6182
X12.9751Y-5.6178
X13.0208Y-5.5538
X13.0609Y-5.5213
X13.0763Y-4.1898
X13.1318Y-7.1085
X13.2503Y-5.3916
X13.2639Y-7.2569
X13.2719Y-5.6123
X13.2876Y-5.7213
X13.2907Y-5.7932
X13.3002Y-7.4764
X13.3162Y-5.6124
X13.3288Y-4.4451
X13.3564Y-6.4764
X13.3608Y-5.613
X13.3608Y-5.7202
X13.3733Y-6.5959
X13.3878Y-5.9054
X13.4071Y-5.7214
X13.4368Y-5.6128
X13.4396Y-5.7448
X13.4525Y-4.4036
X13.4552Y-5.5665
X13.5113Y-5.7201
X13.5133Y-5.7636
X13.5207Y-5.8217
X13.526Y-6.7053
X13.5296Y-7.2284
X13.5338Y-5.8766
X13.5448Y-7.0764
X13.5528Y-6.8051
X13.5599Y-7.0311
X13.5614Y-6.6175
X13.5739Y-6.9222
X13.6213Y-5.9301
X13.6231Y-5.7869
X13.6382Y-4.4634
X13.6657Y-6.021
X13.7018Y-5.7082
X13.7407Y-6.2272
X13.7436Y-5.3535
X13.7721Y-5.5661
X13.8469Y-5.7231
X13.8735Y-4.155
X13.8736Y-6.6969
X13.8919Y-4.4691
X13.8929Y-3.5189
X13.8994Y-3.8434
X13.9065Y-4.7928
X13.9117Y-3.5672
X13.9508Y-4.8367
X13.9666Y-4.5851
X13.9767Y-4.6785
X13.9952Y-5.5985
X14.0237Y-5.5696
X14.0321Y-4.9125
X14.0489Y-5.6478
X14.0816Y-4.8774
X14.1036Y-5.5157
X14.1561Y-4.9961
X14.1746Y-4.3701
X14.2068Y-6.4845
X14.2114Y-4.8074
X14.2425Y-4.9515
X14.2696Y-5.1461
X14.3614Y-4.514
X14.4239Y-4.4515
X14.4465Y-5.1087
X14.5329Y-5.1961
X14.5365Y-4.766
X14.6337Y-4.2518
X14.6364Y-4.6211
X14.6492Y-4.7711
X14.7297Y-5.3512
X14.7602Y-5.2477
X15.4122Y-6.3585
X15.465Y-4.3447
T2
X7.3835Y-5.9791
X7.4335Y-5.9791
X7.4835Y-5.9791
T3
X12.2043Y-3.3248
X12.2043Y-3.4248
X12.2043Y-3.5248
X12.2043Y-3.6248
X12.2043Y-3.7248
X12.2043Y-3.8248
X12.2043Y-3.9248
X12.2043Y-4.0248
X12.2043Y-4.1248
X12.2043Y-4.2248
X12.2043Y-4.3248
X12.2043Y-4.4248
X12.8043Y-3.3248
X12.8043Y-3.4248
X12.8043Y-3.5248
X12.8043Y-3.6248
X12.8043Y-3.7248
X12.8043Y-3.8248
X12.8043Y-3.9248
X12.8043Y-4.0248
X12.8043Y-4.1248
X12.8043Y-4.2248
X12.8043Y-4.3248
X12.8043Y-4.4248
X5.8281Y-7.0039
X5.8281Y-7.4039
X7.1421Y-5.5665
X7.1421Y-5.9665
X7.25Y-5.7614
X7.3484Y-5.7614
X5.6731Y-7.0039
X5.6731Y-7.4039
X14.6843Y-3.3756
X14.6843Y-3.7756
X7.285Y-3.9713
X7.285Y-4.0713
X7.285Y-4.1713
X7.285Y-4.2713
X7.285Y-4.3713
X7.285Y-4.4713
X7.285Y-4.5713
X7.285Y-4.6713
X7.285Y-4.7713
X7.285Y-4.8713
X7.585Y-3.9713
X7.585Y-4.0713
X7.585Y-4.1713
X7.585Y-4.2713
X7.585Y-4.3713
X7.585Y-4.4713
X7.585Y-4.5713
X7.585Y-4.6713
X7.585Y-4.7713
X7.585Y-4.8713
X10.4949Y-4.1614
X10.4949Y-4.5614
X7.9723Y-6.8201
X7.9723Y-6.9201
X7.9723Y-7.0201
X7.9723Y-7.1201
X7.9723Y-7.2201
X7.9723Y-7.3201
X7.9723Y-7.4201
X7.9723Y-7.5201
X8.2723Y-6.8201
X8.2723Y-6.9201
X8.2723Y-7.0201
X8.2723Y-7.1201
X8.2723Y-7.2201
X8.2723Y-7.3201
X8.2723Y-7.4201
X8.2723Y-7.5201
X11.4618Y-5.9177
X11.4618Y-6.3177
X8.6051Y-5.7559
X8.9988Y-5.7559
X7.9555Y-3.5
X8.3492Y-3.5
X12.1126Y-5.3469
X12.1126Y-5.5437
X14.5614Y-6.1126
X14.5614Y-6.5126
X11.4898Y-6.8201
X11.4898Y-6.9201
X11.4898Y-7.0201
X11.4898Y-7.1201
X11.4898Y-7.2201
X11.4898Y-7.3201
X11.4898Y-7.4201
X11.4898Y-7.5201
X11.7898Y-6.8201
X11.7898Y-6.9201
X11.7898Y-7.0201
X11.7898Y-7.1201
X11.7898Y-7.2201
X11.7898Y-7.3201
X11.7898Y-7.4201
X11.7898Y-7.5201
X4.4965Y-7.6177
X4.8902Y-7.6177
X9.5228Y-3.4484
X9.5228Y-3.6453
X10.739Y-7.6929
X11.1327Y-7.6929
X10.4516Y-4.8189
X10.4516Y-5.2189
X12.0067Y-6.8772
X12.0067Y-7.1772
X12.9713Y-5.4591
X13.05Y-5.4591
X7.7177Y-4.122
X7.7965Y-4.122
X12.3077Y-3.1209
X12.7014Y-3.1209
X6.5654Y-6.8201
X6.5654Y-6.9201
X6.5654Y-7.0201
X6.5654Y-7.1201
X6.5654Y-7.2201
X6.5654Y-7.3201
X6.5654Y-7.4201
X6.5654Y-7.5201
X6.8654Y-6.8201
X6.8654Y-6.9201
X6.8654Y-7.0201
X6.8654Y-7.1201
X6.8654Y-7.2201
X6.8654Y-7.3201
X6.8654Y-7.4201
X6.8654Y-7.5201
X10.3768Y-4.1614
X10.3768Y-4.5614
X11.8138Y-5.9173
X11.8138Y-6.3173
X8.6758Y-6.8201
X8.6758Y-6.9201
X8.6758Y-7.0201
X8.6758Y-7.1201
X8.6758Y-7.2201
X8.6758Y-7.3201
X8.6758Y-7.4201
X8.6758Y-7.5201
X8.9758Y-6.8201
X8.9758Y-6.9201
X8.9758Y-7.0201
X8.9758Y-7.1201
X8.9758Y-7.2201
X8.9758Y-7.3201
X8.9758Y-7.4201
X8.9758Y-7.5201
X11.9673Y-5.9291
X11.9673Y-6.3291
X10.0828Y-6.8201
X10.0828Y-6.9201
X10.0828Y-7.0201
X10.0828Y-7.1201
X10.0828Y-7.2201
X10.0828Y-7.3201
X10.0828Y-7.4201
X10.0828Y-7.5201
X10.3828Y-6.8201
X10.3828Y-6.9201
X10.3828Y-7.0201
X10.3828Y-7.1201
X10.3828Y-7.2201
X10.3828Y-7.3201
X10.3828Y-7.4201
X10.3828Y-7.5201
X7.3886Y-3.4173
X7.3886Y-3.6142
X4.4091Y-5.7906
X4.4091Y-5.9874
X5.6839Y-7.5984
X5.6839Y-7.8984
X10.0356Y-7.6929
X10.4293Y-7.6929
X9.3793Y-6.8201
X9.3793Y-6.9201
X9.3793Y-7.0201
X9.3793Y-7.1201
X9.3793Y-7.2201
X9.3793Y-7.3201
X9.3793Y-7.4201
X9.3793Y-7.5201
X9.6793Y-6.8201
X9.6793Y-6.9201
X9.6793Y-7.0201
X9.6793Y-7.1201
X9.6793Y-7.2201
X9.6793Y-7.3201
X9.6793Y-7.4201
X9.6793Y-7.5201
X5.0362Y-6.8583
X5.0362Y-6.9583
X5.0362Y-7.0583
X5.0362Y-7.1583
X5.0362Y-7.2583
X5.0362Y-7.3583
X5.0362Y-7.4583
X5.0362Y-7.5583
X5.3362Y-6.8583
X5.3362Y-6.9583
X5.3362Y-7.0583
X5.3362Y-7.1583
X5.3362Y-7.2583
X5.3362Y-7.3583
X5.3362Y-7.4583
X5.3362Y-7.5583
X7.285Y-5.2717
X7.285Y-5.3717
X7.285Y-5.4717
X7.285Y-5.5717
X7.585Y-5.2717
X7.585Y-5.3717
X7.585Y-5.4717
X7.585Y-5.5717
X9.6752Y-3.6776
X9.6752Y-3.7776
X9.6752Y-3.8776
X9.6752Y-3.9776
X9.6752Y-4.0776
X9.6752Y-4.1776
X9.6752Y-4.2776
X9.6752Y-4.3776
X9.6752Y-4.4776
X9.6752Y-4.5776
X9.6752Y-4.6776
X9.6752Y-4.7776
X9.6752Y-4.8776
X9.6752Y-4.9776
X9.6752Y-5.0776
X9.6752Y-5.1776
X9.6752Y-5.2776
X9.6752Y-5.3776
X9.6752Y-5.4776
X9.6752Y-5.5776
X10.2752Y-3.6776
X10.2752Y-3.7776
X10.2752Y-3.8776
X10.2752Y-3.9776
X10.2752Y-4.0776
X10.2752Y-4.1776
X10.2752Y-4.2776
X10.2752Y-4.3776
X10.2752Y-4.4776
X10.2752Y-4.5776
X10.2752Y-4.6776
X10.2752Y-4.7776
X10.2752Y-4.8776
X10.2752Y-4.9776
X10.2752Y-5.0776
X10.2752Y-5.1776
X10.2752Y-5.2776
X10.2752Y-5.3776
X10.2752Y-5.4776
X10.2752Y-5.5776
X13.2075Y-5.6764
X13.2075Y-5.7764
X13.2075Y-5.8764
X13.2075Y-5.9764
X13.2075Y-6.0764
X13.2075Y-6.1764
X13.2075Y-6.2764
X13.2075Y-6.3764
X13.2075Y-6.4764
X13.2075Y-6.5764
X13.2075Y-6.6764
X13.2075Y-6.7764
X13.2075Y-6.8764
X13.2075Y-6.9764
X13.2075Y-7.0764
X13.2075Y-7.1764
X13.2075Y-7.2764
X13.2075Y-7.3764
X13.2075Y-7.4764
X13.2075Y-7.5764
X13.8075Y-5.6764
X13.8075Y-5.7764
X13.8075Y-5.8764
X13.8075Y-5.9764
X13.8075Y-6.0764
X13.8075Y-6.1764
X13.8075Y-6.2764
X13.8075Y-6.3764
X13.8075Y-6.4764
X13.8075Y-6.5764
X13.8075Y-6.6764
X13.8075Y-6.7764
X13.8075Y-6.8764
X13.8075Y-6.9764
X13.8075Y-7.0764
X13.8075Y-7.1764
X13.8075Y-7.2764
X13.8075Y-7.3764
X13.8075Y-7.4764
X13.8075Y-7.5764
X7.9488Y-3.6732
X7.9488Y-3.7732
X7.9488Y-3.8732
X7.9488Y-3.9732
X7.9488Y-4.0732
X7.9488Y-4.1732
X7.9488Y-4.2732
X7.9488Y-4.3732
X7.9488Y-4.4732
X7.9488Y-4.5732
X8.2488Y-3.6732
X8.2488Y-3.7732
X8.2488Y-3.8732
X8.2488Y-3.9732
X8.2488Y-4.0732
X8.2488Y-4.1732
X8.2488Y-4.2732
X8.2488Y-4.3732
X8.2488Y-4.4732
X8.2488Y-4.5732
X14.065Y-4.0248
X14.065Y-4.2217
X8.5189Y-3.3713
X8.7157Y-3.3713
X7.9016Y-4.7469
X8.2953Y-4.7469
X14.439Y-3.9933
X14.439Y-4.387
X14.3094Y-6.1795
X14.3094Y-6.4795
X7.2689Y-6.8201
X7.2689Y-6.9201
X7.2689Y-7.0201
X7.2689Y-7.1201
X7.2689Y-7.2201
X7.2689Y-7.3201
X7.2689Y-7.4201
X7.2689Y-7.5201
X7.5689Y-6.8201
X7.5689Y-6.9201
X7.5689Y-7.0201
X7.5689Y-7.1201
X7.5689Y-7.2201
X7.5689Y-7.3201
X7.5689Y-7.4201
X7.5689Y-7.5201
X7.1642Y-6.1417
X7.361Y-6.1417
X11.4425Y-7.6929
X11.8362Y-7.6929
X6.3209Y-2.697
X6.3209Y-2.8939
X6.3492Y-3.3732
X6.3492Y-3.5701
X6.1697Y-4.1815
X6.1697Y-4.2815
X6.1697Y-4.3815
X6.1697Y-4.4815
X6.1697Y-4.5815
X6.1697Y-4.6815
X6.1697Y-4.7815
X6.1697Y-4.8815
X6.1697Y-4.9815
X6.1697Y-5.0815
X6.1697Y-5.1815
X6.1697Y-5.2815
X6.1697Y-5.3815
X6.1697Y-5.4815
X6.1697Y-5.5815
X6.1697Y-5.6815
X6.1697Y-5.7815
X6.1697Y-5.8815
X6.1697Y-5.9815
X6.1697Y-6.0815
X6.7697Y-4.1815
X6.7697Y-4.2815
X6.7697Y-4.3815
X6.7697Y-4.4815
X6.7697Y-4.5815
X6.7697Y-4.6815
X6.7697Y-4.7815
X6.7697Y-4.8815
X6.7697Y-4.9815
X6.7697Y-5.0815
X6.7697Y-5.1815
X6.7697Y-5.2815
X6.7697Y-5.3815
X6.7697Y-5.4815
X6.7697Y-5.5815
X6.7697Y-5.6815
X6.7697Y-5.7815
X6.7697Y-5.8815
X6.7697Y-5.9815
X6.7697Y-6.0815
X13.0843Y-5.8858
X13.0843Y-6.2795
X6.5181Y-7.6929
X6.9118Y-7.6929
X11.6925Y-3.9142
X11.7713Y-3.9142
X10.0004Y-2.735
X10.0004Y-3.235
X10.0004Y-3.435
X10.3004Y-2.735
X10.3004Y-3.335
X8.5713Y-3.6776
X8.5713Y-3.7776
X8.5713Y-3.8776
X8.5713Y-3.9776
X8.5713Y-4.0776
X8.5713Y-4.1776
X8.5713Y-4.2776
X8.5713Y-4.3776
X8.5713Y-4.4776
X8.5713Y-4.5776
X8.5713Y-4.6776
X8.5713Y-4.7776
X8.5713Y-4.8776
X8.5713Y-4.9776
X8.5713Y-5.0776
X8.5713Y-5.1776
X8.5713Y-5.2776
X8.5713Y-5.3776
X8.5713Y-5.4776
X8.5713Y-5.5776
X9.1713Y-3.6776
X9.1713Y-3.7776
X9.1713Y-3.8776
X9.1713Y-3.9776
X9.1713Y-4.0776
X9.1713Y-4.1776
X9.1713Y-4.2776
X9.1713Y-4.3776
X9.1713Y-4.4776
X9.1713Y-4.5776
X9.1713Y-4.6776
X9.1713Y-4.7776
X9.1713Y-4.8776
X9.1713Y-4.9776
X9.1713Y-5.0776
X9.1713Y-5.1776
X9.1713Y-5.2776
X9.1713Y-5.3776
X9.1713Y-5.4776
X9.1713Y-5.5776
X10.4492Y-3.4996
X10.4492Y-3.8996
X11.622Y-3.1024
X11.622Y-3.2024
X11.622Y-3.3024
X11.622Y-3.4024
X11.622Y-3.5024
X11.622Y-3.6024
X11.622Y-3.7024
X11.922Y-3.1024
X11.922Y-3.2024
X11.922Y-3.3024
X11.922Y-3.4024
X11.922Y-3.5024
X11.922Y-3.6024
X11.922Y-3.7024
X12.0343Y-4.1181
X12.0343Y-4.5118
X7.2378Y-5.0799
X7.6315Y-5.0799
X7.9251Y-7.6929
X8.3188Y-7.6929
X11.4949Y-3.6535
X11.4949Y-3.8504
X11.6091Y-4.1016
X11.6091Y-4.2016
X11.6091Y-4.3016
X11.6091Y-4.4016
X11.6091Y-4.5016
X11.6091Y-4.6016
X11.6091Y-4.7016
X11.6091Y-4.8016
X11.9091Y-4.1016
X11.9091Y-4.2016
X11.9091Y-4.3016
X11.9091Y-4.4016
X11.9091Y-4.5016
X11.9091Y-4.6016
X11.9091Y-4.7016
X11.9091Y-4.8016
X6.4287Y-6.3189
X6.4287Y-6.7126
X14.2911Y-3.3425
X14.2911Y-3.7425
X4.989Y-6.711
X5.3827Y-6.711
X7.7591Y-4.8795
X7.7591Y-5.2795
X7.2642Y-3.8248
X7.6579Y-3.8248
X6.8512Y-3.3976
X6.8512Y-3.5945
X6.9516Y-4.9173
X6.9516Y-5.3173
X11.5728Y-2.9035
X11.9665Y-2.9035
X4.4902Y-7.3091
X4.8902Y-7.3091
X4.5992Y-7.0559
X4.7961Y-7.0559
X5.8217Y-7.5984
X5.8217Y-7.8984
X14.8177Y-3.5709
X14.8177Y-3.7677
X7.2216Y-7.6929
X7.6153Y-7.6929
X14.4222Y-7.1213
X14.4222Y-7.515
X10.4543Y-2.9157
X10.4543Y-3.2157
X10.9594Y-5.5787
X11.3531Y-5.5787
X9.332Y-7.6929
X9.7257Y-7.6929
X6.3927Y-3.0346
X6.3927Y-3.2315
X7.4594Y-5.7598
X7.6563Y-5.7598
X6.8929Y-5.5665
X6.8929Y-5.9665
X14.165Y-3.3425
X14.165Y-3.7425
X9.4421Y-5.2953
X9.4421Y-5.689
X8.8709Y-6.0035
X8.9709Y-6.0035
X9.0709Y-6.0035
X9.1709Y-6.0035
X9.2709Y-6.0035
X9.3709Y-6.0035
X9.4709Y-6.0035
X9.5709Y-6.0035
X9.6709Y-6.0035
X9.7709Y-6.0035
X14.3094Y-7.1685
X14.3094Y-7.4685
X13.3081Y-3.1323
X13.7018Y-3.1323
X10.0972Y-5.7126
X10.2941Y-5.7126
X10.7863Y-6.8201
X10.7863Y-6.9201
X10.7863Y-7.0201
X10.7863Y-7.1201
X10.7863Y-7.2201
X10.7863Y-7.3201
X10.7863Y-7.4201
X10.7863Y-7.5201
X11.0863Y-6.8201
X11.0863Y-6.9201
X11.0863Y-7.0201
X11.0863Y-7.1201
X11.0863Y-7.2201
X11.0863Y-7.3201
X11.0863Y-7.4201
X11.0863Y-7.5201
X14.55Y-3.6063
X14.55Y-3.8031
X14.4378Y-6.1126
X14.4378Y-6.5126
X6.8492Y-3.7626
X6.8492Y-3.9594
X11.6012Y-5.685
X11.6957Y-5.0157
X11.7941Y-5.685
X4.989Y-6.5866
X5.3827Y-6.5866
X14.5539Y-3.1614
X14.5539Y-3.3583
X7.9488Y-4.9764
X7.9488Y-5.0764
X7.9488Y-5.1764
X7.9488Y-5.2764
X7.9488Y-5.3764
X7.9488Y-5.4764
X7.9488Y-5.5764
X7.9488Y-5.6764
X7.9488Y-5.7764
X7.9488Y-5.8764
X8.2488Y-4.9764
X8.2488Y-5.0764
X8.2488Y-5.1764
X8.2488Y-5.2764
X8.2488Y-5.3764
X8.2488Y-5.4764
X8.2488Y-5.5764
X8.2488Y-5.6764
X8.2488Y-5.7764
X8.2488Y-5.8764
X7.2394Y-3.3142
X7.2394Y-3.7079
X7.5276Y-3.4161
X7.5276Y-3.613
X7.1051Y-4.9173
X7.1051Y-5.3173
X8.6286Y-7.6929
X9.0223Y-7.6929
X7.6547Y-3.3228
X7.6547Y-3.7165
X12.311Y-5.461
X12.7047Y-5.461
X14.4335Y-6.7831
X14.4335Y-6.8618
X6.4035Y-3.7571
X6.4035Y-3.9539
X5.9831Y-7.0039
X5.9831Y-7.4039
X5.5181Y-7.0039
X5.5181Y-7.4039
X7.798Y-5.5669
X7.798Y-5.9669
X14.4173Y-3.3425
X14.4173Y-3.7425
X14.5453Y-7.1142
X14.5453Y-7.5142
X13.2047Y-3.3248
X13.2047Y-3.4248
X13.2047Y-3.5248
X13.2047Y-3.6248
X13.2047Y-3.7248
X13.2047Y-3.8248
X13.2047Y-3.9248
X13.2047Y-4.0248
X13.2047Y-4.1248
X13.2047Y-4.2248
X13.2047Y-4.3248
X13.2047Y-4.4248
X13.8047Y-3.3248
X13.8047Y-3.4248
X13.8047Y-3.5248
X13.8047Y-3.6248
X13.8047Y-3.7248
X13.8047Y-3.8248
X13.8047Y-3.9248
X13.8047Y-4.0248
X13.8047Y-4.1248
X13.8047Y-4.2248
X13.8047Y-4.3248
X13.8047Y-4.4248
X12.1969Y-5.665
X12.1969Y-5.765
X12.1969Y-5.865
X12.1969Y-5.965
X12.1969Y-6.065
X12.1969Y-6.165
X12.1969Y-6.265
X12.1969Y-6.365
X12.1969Y-6.465
X12.1969Y-6.565
X12.1969Y-6.665
X12.1969Y-6.765
X12.1969Y-6.865
X12.1969Y-6.965
X12.1969Y-7.065
X12.1969Y-7.165
X12.1969Y-7.265
X12.1969Y-7.365
X12.1969Y-7.465
X12.1969Y-7.565
X12.7969Y-5.665
X12.7969Y-5.765
X12.7969Y-5.865
X12.7969Y-5.965
X12.7969Y-6.065
X12.7969Y-6.165
X12.7969Y-6.265
X12.7969Y-6.365
X12.7969Y-6.465
X12.7969Y-6.565
X12.7969Y-6.665
X12.7969Y-6.765
X12.7969Y-6.865
X12.7969Y-6.965
X12.7969Y-7.065
X12.7969Y-7.165
X12.7969Y-7.265
X12.7969Y-7.365
X12.7969Y-7.465
X12.7969Y-7.565
T4
X6.7091Y-3.378
X6.7091Y-3.928
X12.9386Y-5.7303
X12.9386Y-6.2803
X6.5461Y-3.378
X6.5461Y-3.928
X11.6614Y-5.8516
X11.6614Y-6.4016
T5
X7.0189Y-5.5709
X7.0189Y-5.9709
X6.976Y-3.4531
X6.976Y-3.8531
X7.1035Y-3.4531
X7.1035Y-3.8531
T6
X11.0154Y-4.2165
X11.0154Y-4.3165
X11.0154Y-4.4165
X11.0154Y-4.5165
X11.0154Y-4.6165
X11.0154Y-4.7165
X11.0154Y-4.8165
X11.2311Y-6.0079
X11.2311Y-6.2047
X8.865Y-6.1524
X8.965Y-6.1524
X9.065Y-6.1524
X9.165Y-6.1524
X9.265Y-6.1524
X9.365Y-6.1524
X9.465Y-6.1524
X9.565Y-6.1524
X9.665Y-6.1524
X9.765Y-6.1524
X9.865Y-6.1524
X9.965Y-6.1524
X10.065Y-6.1524
X10.165Y-6.1524
X10.265Y-6.1524
X10.365Y-6.1524
T7
X12.926Y-2.6693
X13.1031Y-2.6693
T8
X14.8428Y-3.9961
X14.8428Y-4.0961
X14.8428Y-4.1961
X14.8428Y-4.2961
X14.8428Y-4.3961
X14.8428Y-4.4961
X14.8428Y-4.5961
X14.8428Y-4.6961
X14.8428Y-4.7961
X14.8428Y-4.8961
X14.8428Y-4.9961
X14.8428Y-5.0961
X14.8428Y-5.1961
X14.8428Y-5.2961
X14.8428Y-5.3961
X14.8428Y-5.4961
X14.8428Y-5.5961
X14.8428Y-5.6961
X14.8428Y-5.7961
X14.8428Y-5.8961
X14.9988Y-3.9961
X14.9988Y-4.0961
X14.9988Y-4.1961
X14.9988Y-4.2961
X14.9988Y-4.3961
X14.9988Y-4.4961
X14.9988Y-4.5961
X14.9988Y-4.6961
X14.9988Y-4.7961
X14.9988Y-4.8961
X14.9988Y-4.9961
X14.9988Y-5.0961
X14.9988Y-5.1961
X14.9988Y-5.2961
X14.9988Y-5.3961
X14.9988Y-5.4961
X14.9988Y-5.5961
X14.9988Y-5.6961
X14.9988Y-5.7961
X14.9988Y-5.8961
T9
X5.8563Y-5.3004
X5.8563Y-5.7004
X5.7232Y-5.3004
X5.7232Y-5.7004
T10
X9.3441Y-3.3933
X9.3441Y-3.8933
X5.1398Y-5.7957
X5.1398Y-6.0909
X4.2799Y-7.4736
X4.8799Y-7.4736
X7.8039Y-3.3949
X7.8039Y-3.8949
T11
X8.4232Y-2.6713
X8.4232Y-3.065
X8.5217Y-2.6713
X8.5217Y-3.1634
X8.7185Y-2.6713
X8.7185Y-3.1634
X8.8169Y-2.6713
X8.8169Y-3.065
X7.472Y-3.065
X7.5705Y-2.6713
X7.5705Y-3.1634
X7.6689Y-2.6713
X7.7673Y-3.065
X7.7673Y-3.2618
X7.8657Y-2.6713
X7.9642Y-2.6713
X7.9642Y-3.1634
X8.0626Y-3.065
X10.0016Y-2.9331
X10.0016Y-3.0931
X10.0016Y-3.5331
X10.3016Y-3.0331
X10.3016Y-3.5331
X3.8795Y-6.3461
X3.8795Y-6.776
X6.6028Y-3.065
X6.7012Y-2.6713
X6.7012Y-3.1634
X6.7996Y-2.6713
X6.898Y-3.065
X6.898Y-3.2618
X6.9965Y-2.6713
X7.0949Y-2.6713
X7.0949Y-3.1634
X7.1933Y-3.065
X9.1909Y-3.065
X9.2894Y-2.6713
X9.2894Y-3.1634
X9.3878Y-2.6713
X9.4862Y-3.065
X9.5846Y-2.6713
X9.6831Y-2.6713
X9.6831Y-3.1634
X9.7815Y-3.065
T12
X5.6957Y-4.5602
X5.6961Y-4.052
X4.6283Y-5.5984
T13
X12.8768Y-2.7677
X13.1524Y-2.7677
T14
X5.7094Y-5.887
X5.7094Y-6.487
X5.9386Y-5.887
X5.9386Y-6.487
T15
X5.9201Y-3.2299
X5.9201Y-3.3874
X5.9201Y-3.5449
X6.1563Y-3.2299
X6.1563Y-3.3874
X6.1563Y-3.5449
T17
X15.1838Y-3.6586
X15.1838Y-6.2336
T18
X3.2142Y-6.5614
X4.4031Y-6.5614
T19
X6.6028Y-2.8681
X7.1933Y-2.8681
X9.1909Y-2.8681
X9.7815Y-2.8681
X8.3248Y-2.8681
X8.9154Y-2.8681
X7.472Y-2.8681
X8.0626Y-2.8681
T20
X13.8386Y-2.7953
X3.0886Y-7.8335
X2.7539Y-7.8346
T16
G00X10.7791Y-2.6906
M15
G01X10.661Y-2.6906
M16
G05
G00X10.7791Y-5.289
M15
G01X10.661Y-5.289
M16
G05
G00X11.3697Y-2.6906
M15
G01X11.2516Y-2.6906
M16
G05
G00X11.3697Y-5.289
M15
G01X11.2516Y-5.289
M16
G05
T0
M30
