%TF.GenerationSoftware,KiCad,Pcbnew,5.1.7-a382d34a8~88~ubuntu18.04.1*%
%TF.CreationDate,2021-03-30T18:08:33-04:00*%
%TF.ProjectId,coco2,636f636f-322e-46b6-9963-61645f706362,1*%
%TF.SameCoordinates,Original*%
%TF.FileFunction,Soldermask,Bot*%
%TF.FilePolarity,Negative*%
%FSLAX46Y46*%
G04 Gerber Fmt 4.6, Leading zero omitted, Abs format (unit mm)*
G04 Created by KiCad (PCBNEW 5.1.7-a382d34a8~88~ubuntu18.04.1) date 2021-03-30 18:08:33*
%MOMM*%
%LPD*%
G01*
G04 APERTURE LIST*
%ADD10C,1.778000*%
%ADD11C,2.540000*%
%ADD12C,1.950000*%
%ADD13C,2.400000*%
%ADD14R,1.950000X1.950000*%
%ADD15O,1.800000X1.800000*%
%ADD16R,1.800000X1.800000*%
%ADD17O,2.400000X2.400000*%
%ADD18C,1.320800*%
%ADD19R,1.320800X1.320800*%
%ADD20O,1.600000X1.600000*%
%ADD21R,1.600000X1.600000*%
%ADD22C,1.600000*%
%ADD23R,2.400000X2.400000*%
%ADD24C,2.000000*%
%ADD25R,2.200000X2.200000*%
%ADD26O,2.200000X2.200000*%
%ADD27R,3.200000X3.200000*%
%ADD28O,3.200000X3.200000*%
%ADD29C,2.600000*%
%ADD30C,1.600200*%
%ADD31C,3.175000*%
%ADD32R,2.600000X2.600000*%
%ADD33C,6.350000*%
%ADD34O,1.050000X1.500000*%
%ADD35R,1.050000X1.500000*%
%ADD36C,3.044000*%
%ADD37C,1.500000*%
%ADD38R,1.700000X1.700000*%
%ADD39O,1.700000X1.700000*%
%ADD40O,7.000000X4.000000*%
%ADD41C,1.700000*%
%ADD42C,4.000000*%
G04 APERTURE END LIST*
D10*
%TO.C,S2*%
X328320000Y-67800000D03*
X332820000Y-67800000D03*
D11*
X327070000Y-70300000D03*
X334070000Y-70300000D03*
%TD*%
D12*
%TO.C,J4*%
X235950000Y-67850000D03*
X245950000Y-67850000D03*
X248450000Y-77850000D03*
D13*
X248450000Y-72850000D03*
X233450000Y-72850000D03*
D12*
X235950000Y-80350000D03*
X245950000Y-80350000D03*
D14*
X233450000Y-77850000D03*
D12*
X240950000Y-77850000D03*
X238450000Y-67850000D03*
X243450000Y-67850000D03*
%TD*%
%TO.C,J3*%
X223950000Y-67850000D03*
X213950000Y-67850000D03*
D13*
X226450000Y-72850000D03*
X211450000Y-72850000D03*
D12*
X216450000Y-80350000D03*
X221450000Y-80350000D03*
D14*
X213950000Y-77850000D03*
D12*
X223950000Y-77850000D03*
X216450000Y-67850000D03*
X221450000Y-67850000D03*
%TD*%
%TO.C,J2*%
X202290000Y-67850000D03*
X192290000Y-67850000D03*
X197290000Y-82850000D03*
X204790000Y-77850000D03*
D13*
X204790000Y-72850000D03*
X189790000Y-72850000D03*
D12*
X192290000Y-80350000D03*
X202290000Y-80350000D03*
D14*
X189790000Y-77850000D03*
D12*
X197290000Y-77850000D03*
X194790000Y-67850000D03*
X199790000Y-67850000D03*
%TD*%
%TO.C,J1*%
X180210000Y-67850000D03*
X170210000Y-67850000D03*
X175210000Y-82850000D03*
X182710000Y-77850000D03*
D13*
X182710000Y-72850000D03*
X167710000Y-72850000D03*
D12*
X170210000Y-80350000D03*
X180210000Y-80350000D03*
D14*
X167710000Y-77850000D03*
D12*
X175210000Y-77850000D03*
X172710000Y-67850000D03*
X177710000Y-67850000D03*
%TD*%
D15*
%TO.C,CR7*%
X177190000Y-97870000D03*
D16*
X177190000Y-87710000D03*
%TD*%
D15*
%TO.C,CR8*%
X180430000Y-97870000D03*
D16*
X180430000Y-87710000D03*
%TD*%
D15*
%TO.C,CR13*%
X178280000Y-151660000D03*
D16*
X178280000Y-141500000D03*
%TD*%
D17*
%TO.C,R2*%
X108710000Y-189830000D03*
D13*
X123950000Y-189830000D03*
%TD*%
D18*
%TO.C,FB1*%
X166270000Y-99770000D03*
D19*
X166270000Y-85800000D03*
%TD*%
D18*
%TO.C,FB2*%
X170410000Y-99770000D03*
D19*
X170410000Y-85800000D03*
%TD*%
D18*
%TO.C,FB4*%
X296200000Y-148630000D03*
D19*
X296200000Y-162600000D03*
%TD*%
D18*
%TO.C,FB7*%
X328640000Y-145550000D03*
D19*
X328640000Y-159520000D03*
%TD*%
D20*
%TO.C,U11*%
X302490000Y-104180000D03*
X294870000Y-121960000D03*
X302490000Y-106720000D03*
X294870000Y-119420000D03*
X302490000Y-109260000D03*
X294870000Y-116880000D03*
X302490000Y-111800000D03*
X294870000Y-114340000D03*
X302490000Y-114340000D03*
X294870000Y-111800000D03*
X302490000Y-116880000D03*
X294870000Y-109260000D03*
X302490000Y-119420000D03*
X294870000Y-106720000D03*
X302490000Y-121960000D03*
D21*
X294870000Y-104180000D03*
%TD*%
D20*
%TO.C,U8*%
X260990000Y-93410000D03*
X245750000Y-141670000D03*
X260990000Y-95950000D03*
X245750000Y-139130000D03*
X260990000Y-98490000D03*
X245750000Y-136590000D03*
X260990000Y-101030000D03*
X245750000Y-134050000D03*
X260990000Y-103570000D03*
X245750000Y-131510000D03*
X260990000Y-106110000D03*
X245750000Y-128970000D03*
X260990000Y-108650000D03*
X245750000Y-126430000D03*
X260990000Y-111190000D03*
X245750000Y-123890000D03*
X260990000Y-113730000D03*
X245750000Y-121350000D03*
X260990000Y-116270000D03*
X245750000Y-118810000D03*
X260990000Y-118810000D03*
X245750000Y-116270000D03*
X260990000Y-121350000D03*
X245750000Y-113730000D03*
X260990000Y-123890000D03*
X245750000Y-111190000D03*
X260990000Y-126430000D03*
X245750000Y-108650000D03*
X260990000Y-128970000D03*
X245750000Y-106110000D03*
X260990000Y-131510000D03*
X245750000Y-103570000D03*
X260990000Y-134050000D03*
X245750000Y-101030000D03*
X260990000Y-136590000D03*
X245750000Y-98490000D03*
X260990000Y-139130000D03*
X245750000Y-95950000D03*
X260990000Y-141670000D03*
D21*
X245750000Y-93410000D03*
%TD*%
D20*
%TO.C,U22*%
X325040000Y-143890000D03*
X309800000Y-192150000D03*
X325040000Y-146430000D03*
X309800000Y-189610000D03*
X325040000Y-148970000D03*
X309800000Y-187070000D03*
X325040000Y-151510000D03*
X309800000Y-184530000D03*
X325040000Y-154050000D03*
X309800000Y-181990000D03*
X325040000Y-156590000D03*
X309800000Y-179450000D03*
X325040000Y-159130000D03*
X309800000Y-176910000D03*
X325040000Y-161670000D03*
X309800000Y-174370000D03*
X325040000Y-164210000D03*
X309800000Y-171830000D03*
X325040000Y-166750000D03*
X309800000Y-169290000D03*
X325040000Y-169290000D03*
X309800000Y-166750000D03*
X325040000Y-171830000D03*
X309800000Y-164210000D03*
X325040000Y-174370000D03*
X309800000Y-161670000D03*
X325040000Y-176910000D03*
X309800000Y-159130000D03*
X325040000Y-179450000D03*
X309800000Y-156590000D03*
X325040000Y-181990000D03*
X309800000Y-154050000D03*
X325040000Y-184530000D03*
X309800000Y-151510000D03*
X325040000Y-187070000D03*
X309800000Y-148970000D03*
X325040000Y-189610000D03*
X309800000Y-146430000D03*
X325040000Y-192150000D03*
D21*
X309800000Y-143890000D03*
%TD*%
%TO.C,U12*%
X309990000Y-84450000D03*
D20*
X325230000Y-112390000D03*
X309990000Y-86990000D03*
X325230000Y-109850000D03*
X309990000Y-89530000D03*
X325230000Y-107310000D03*
X309990000Y-92070000D03*
X325230000Y-104770000D03*
X309990000Y-94610000D03*
X325230000Y-102230000D03*
X309990000Y-97150000D03*
X325230000Y-99690000D03*
X309990000Y-99690000D03*
X325230000Y-97150000D03*
X309990000Y-102230000D03*
X325230000Y-94610000D03*
X309990000Y-104770000D03*
X325230000Y-92070000D03*
X309990000Y-107310000D03*
X325230000Y-89530000D03*
X309990000Y-109850000D03*
X325230000Y-86990000D03*
X309990000Y-112390000D03*
X325230000Y-84450000D03*
%TD*%
D21*
%TO.C,U13*%
X335400000Y-84450000D03*
D20*
X350640000Y-112390000D03*
X335400000Y-86990000D03*
X350640000Y-109850000D03*
X335400000Y-89530000D03*
X350640000Y-107310000D03*
X335400000Y-92070000D03*
X350640000Y-104770000D03*
X335400000Y-94610000D03*
X350640000Y-102230000D03*
X335400000Y-97150000D03*
X350640000Y-99690000D03*
X335400000Y-99690000D03*
X350640000Y-97150000D03*
X335400000Y-102230000D03*
X350640000Y-94610000D03*
X335400000Y-104770000D03*
X350640000Y-92070000D03*
X335400000Y-107310000D03*
X350640000Y-89530000D03*
X335400000Y-109850000D03*
X350640000Y-86990000D03*
X335400000Y-112390000D03*
X350640000Y-84450000D03*
%TD*%
%TO.C,U5*%
X209520000Y-93300000D03*
X201900000Y-116160000D03*
X209520000Y-95840000D03*
X201900000Y-113620000D03*
X209520000Y-98380000D03*
X201900000Y-111080000D03*
X209520000Y-100920000D03*
X201900000Y-108540000D03*
X209520000Y-103460000D03*
X201900000Y-106000000D03*
X209520000Y-106000000D03*
X201900000Y-103460000D03*
X209520000Y-108540000D03*
X201900000Y-100920000D03*
X209520000Y-111080000D03*
X201900000Y-98380000D03*
X209520000Y-113620000D03*
X201900000Y-95840000D03*
X209520000Y-116160000D03*
D21*
X201900000Y-93300000D03*
%TD*%
D20*
%TO.C,U6*%
X209520000Y-126400000D03*
X201900000Y-149260000D03*
X209520000Y-128940000D03*
X201900000Y-146720000D03*
X209520000Y-131480000D03*
X201900000Y-144180000D03*
X209520000Y-134020000D03*
X201900000Y-141640000D03*
X209520000Y-136560000D03*
X201900000Y-139100000D03*
X209520000Y-139100000D03*
X201900000Y-136560000D03*
X209520000Y-141640000D03*
X201900000Y-134020000D03*
X209520000Y-144180000D03*
X201900000Y-131480000D03*
X209520000Y-146720000D03*
X201900000Y-128940000D03*
X209520000Y-149260000D03*
D21*
X201900000Y-126400000D03*
%TD*%
D20*
%TO.C,U10*%
X302820000Y-78800000D03*
X295200000Y-94040000D03*
X302820000Y-81340000D03*
X295200000Y-91500000D03*
X302820000Y-83880000D03*
X295200000Y-88960000D03*
X302820000Y-86420000D03*
X295200000Y-86420000D03*
X302820000Y-88960000D03*
X295200000Y-83880000D03*
X302820000Y-91500000D03*
X295200000Y-81340000D03*
X302820000Y-94040000D03*
D21*
X295200000Y-78800000D03*
%TD*%
D22*
%TO.C,C1*%
X111990000Y-147080000D03*
D21*
X111990000Y-152080000D03*
%TD*%
D23*
%TO.C,C2*%
X130550000Y-154710000D03*
D13*
X130550000Y-147210000D03*
%TD*%
D20*
%TO.C,C3*%
X136720000Y-167300000D03*
D22*
X126720000Y-167300000D03*
%TD*%
%TO.C,C4*%
X126720000Y-170460000D03*
D20*
X136720000Y-170460000D03*
%TD*%
D21*
%TO.C,C5*%
X121820000Y-179220000D03*
D22*
X116820000Y-179220000D03*
%TD*%
%TO.C,C6*%
X114210000Y-193490000D03*
D20*
X124210000Y-193490000D03*
%TD*%
D21*
%TO.C,C11*%
X357250000Y-102230000D03*
D22*
X357250000Y-107230000D03*
%TD*%
D20*
%TO.C,C15*%
X183880000Y-84180000D03*
D22*
X183880000Y-94180000D03*
%TD*%
%TO.C,C18*%
X194430000Y-94400000D03*
D20*
X194430000Y-84400000D03*
%TD*%
D22*
%TO.C,C19*%
X184510000Y-97150000D03*
D20*
X194510000Y-97150000D03*
%TD*%
%TO.C,C21*%
X202070000Y-88900000D03*
D22*
X212070000Y-88900000D03*
%TD*%
D20*
%TO.C,C24*%
X193840000Y-129030000D03*
D22*
X183840000Y-129030000D03*
%TD*%
%TO.C,C25*%
X200700000Y-120570000D03*
D20*
X210700000Y-120570000D03*
%TD*%
D22*
%TO.C,C26*%
X186650000Y-146340000D03*
X184150000Y-146340000D03*
%TD*%
%TO.C,C28*%
X163290000Y-170500000D03*
D20*
X163290000Y-160500000D03*
%TD*%
%TO.C,C29*%
X218570000Y-146200000D03*
D22*
X228570000Y-146200000D03*
%TD*%
D20*
%TO.C,C30*%
X239830000Y-144500000D03*
D22*
X239830000Y-134500000D03*
%TD*%
D20*
%TO.C,C32*%
X288370000Y-141700000D03*
D22*
X278370000Y-141700000D03*
%TD*%
%TO.C,C33*%
X303950000Y-73750000D03*
D20*
X293950000Y-73750000D03*
%TD*%
%TO.C,C34*%
X305670000Y-114600000D03*
D22*
X305670000Y-104600000D03*
%TD*%
%TO.C,C35*%
X312615000Y-79270000D03*
D20*
X322615000Y-79270000D03*
%TD*%
D22*
%TO.C,C36*%
X338025000Y-79560000D03*
D20*
X348025000Y-79560000D03*
%TD*%
D22*
%TO.C,C37*%
X369670000Y-85300000D03*
X369670000Y-80300000D03*
%TD*%
%TO.C,C38*%
X369570000Y-96600000D03*
X369570000Y-91600000D03*
%TD*%
%TO.C,C39*%
X376370000Y-90700000D03*
X376370000Y-95700000D03*
%TD*%
D20*
%TO.C,C40*%
X366750000Y-101430000D03*
D22*
X366750000Y-111430000D03*
%TD*%
%TO.C,C43*%
X307660000Y-140810000D03*
X307660000Y-135810000D03*
%TD*%
D24*
%TO.C,C44*%
X285270000Y-152600000D03*
X285270000Y-157600000D03*
%TD*%
D22*
%TO.C,C45*%
X312700000Y-138710000D03*
D20*
X322700000Y-138710000D03*
%TD*%
%TO.C,C47*%
X332340000Y-159500000D03*
D22*
X332340000Y-149500000D03*
%TD*%
D21*
%TO.C,C48*%
X366610000Y-172290000D03*
D22*
X366610000Y-174290000D03*
%TD*%
D20*
%TO.C,C50*%
X165560000Y-195400000D03*
D22*
X175560000Y-195400000D03*
%TD*%
%TO.C,C51*%
X193429000Y-195400000D03*
D20*
X183429000Y-195400000D03*
%TD*%
%TO.C,C52*%
X201297000Y-195400000D03*
D22*
X211297000Y-195400000D03*
%TD*%
%TO.C,C53*%
X229166000Y-195400000D03*
D20*
X219166000Y-195400000D03*
%TD*%
%TO.C,C54*%
X237034000Y-195400000D03*
D22*
X247034000Y-195400000D03*
%TD*%
%TO.C,C55*%
X264903000Y-195400000D03*
D20*
X254903000Y-195400000D03*
%TD*%
%TO.C,C56*%
X272771000Y-195400000D03*
D22*
X282771000Y-195400000D03*
%TD*%
%TO.C,C57*%
X300640000Y-195400000D03*
D20*
X290640000Y-195400000D03*
%TD*%
D22*
%TO.C,C58*%
X366325000Y-180880000D03*
D20*
X366325000Y-190880000D03*
%TD*%
D22*
%TO.C,C59*%
X261470000Y-145100000D03*
X256470000Y-145100000D03*
%TD*%
%TO.C,C60*%
X186970000Y-156000000D03*
X181970000Y-156000000D03*
%TD*%
%TO.C,C61*%
X291970000Y-97800000D03*
X291970000Y-92800000D03*
%TD*%
D25*
%TO.C,CR1*%
X145370000Y-134630000D03*
D26*
X145370000Y-144790000D03*
%TD*%
%TO.C,CR2*%
X148750000Y-144790000D03*
D25*
X148750000Y-134630000D03*
%TD*%
D27*
%TO.C,CR3*%
X145020000Y-149530000D03*
D28*
X145020000Y-164770000D03*
%TD*%
%TO.C,CR4*%
X150840000Y-164770000D03*
D27*
X150840000Y-149530000D03*
%TD*%
D20*
%TO.C,CR5*%
X144370000Y-200620000D03*
D21*
X144370000Y-193000000D03*
%TD*%
D20*
%TO.C,CR6*%
X147870000Y-200620000D03*
D21*
X147870000Y-193000000D03*
%TD*%
%TO.C,CR9*%
X265540000Y-81680000D03*
D20*
X265540000Y-74060000D03*
%TD*%
%TO.C,CR10*%
X304970000Y-174680000D03*
D21*
X304970000Y-182300000D03*
%TD*%
%TO.C,CR11*%
X363460000Y-164580000D03*
D20*
X363460000Y-156960000D03*
%TD*%
D21*
%TO.C,CR12*%
X363460000Y-189700000D03*
D20*
X363460000Y-182080000D03*
%TD*%
D29*
%TO.C,E1*%
X117560000Y-142200000D03*
%TD*%
%TO.C,E2*%
X144680000Y-102920000D03*
%TD*%
%TO.C,E3*%
X144670000Y-115830000D03*
%TD*%
D30*
%TO.C,J6*%
X380970000Y-101500000D03*
X380970000Y-104040000D03*
X380970000Y-106580000D03*
X380970000Y-109120000D03*
X380970000Y-111660000D03*
X380970000Y-114200000D03*
X380970000Y-116740000D03*
X380970000Y-119280000D03*
X380970000Y-121820000D03*
X380970000Y-124360000D03*
X380970000Y-126900000D03*
X380970000Y-129440000D03*
X380970000Y-131980000D03*
X380970000Y-134520000D03*
X380970000Y-137060000D03*
X380970000Y-139600000D03*
X380970000Y-142140000D03*
X380970000Y-144680000D03*
X380970000Y-147220000D03*
X380970000Y-149760000D03*
X377007600Y-101500000D03*
X377007600Y-104040000D03*
X377007600Y-106580000D03*
X377007600Y-109120000D03*
X377007600Y-111660000D03*
X377007600Y-114200000D03*
X377007600Y-116740000D03*
X377007600Y-119280000D03*
X377007600Y-121820000D03*
X377007600Y-124360000D03*
X377007600Y-126900000D03*
X377007600Y-129440000D03*
X377007600Y-131980000D03*
X377007600Y-134520000D03*
X377007600Y-137060000D03*
X377007600Y-139600000D03*
X377007600Y-142140000D03*
X377007600Y-144680000D03*
X377007600Y-147220000D03*
X377007600Y-149760000D03*
D31*
X385669000Y-92927500D03*
X385669000Y-158332500D03*
%TD*%
D20*
%TO.C,K1*%
X254010000Y-69470000D03*
X261630000Y-84710000D03*
X254010000Y-82170000D03*
X261630000Y-69470000D03*
X254010000Y-87250000D03*
%TD*%
D32*
%TO.C,Q1*%
X98540000Y-172110000D03*
D29*
X98540000Y-161190000D03*
D33*
X111840000Y-166660000D03*
X81640000Y-166660000D03*
%TD*%
D34*
%TO.C,Q2*%
X188810000Y-151870000D03*
X190080000Y-151870000D03*
D35*
X187540000Y-151870000D03*
%TD*%
D22*
%TO.C,R1*%
X114050000Y-185650000D03*
D20*
X124210000Y-185650000D03*
%TD*%
D22*
%TO.C,R3*%
X140160000Y-188060000D03*
D20*
X140160000Y-177900000D03*
%TD*%
%TO.C,R4*%
X151970000Y-188060000D03*
D22*
X151970000Y-177900000D03*
%TD*%
D20*
%TO.C,R5*%
X175080000Y-141390000D03*
D22*
X175080000Y-151550000D03*
%TD*%
%TO.C,R6*%
X181410000Y-151550000D03*
D20*
X181410000Y-141390000D03*
%TD*%
D22*
%TO.C,R7*%
X176570000Y-124900000D03*
D20*
X176570000Y-135060000D03*
%TD*%
D22*
%TO.C,R8*%
X180470000Y-124900000D03*
D20*
X180470000Y-135060000D03*
%TD*%
%TO.C,R9*%
X198070000Y-151560000D03*
D22*
X198070000Y-141400000D03*
%TD*%
D20*
%TO.C,R10*%
X197080000Y-123940000D03*
D22*
X197080000Y-134100000D03*
%TD*%
%TO.C,R12*%
X265410000Y-99050000D03*
D20*
X265410000Y-88890000D03*
%TD*%
%TO.C,R13*%
X266570000Y-115860000D03*
D22*
X266570000Y-105700000D03*
%TD*%
%TO.C,R14*%
X265470000Y-122400000D03*
D20*
X265470000Y-132560000D03*
%TD*%
%TO.C,R15*%
X291130000Y-150310000D03*
D22*
X291130000Y-160470000D03*
%TD*%
D20*
%TO.C,R16*%
X359790000Y-84900000D03*
D22*
X359790000Y-95060000D03*
%TD*%
%TO.C,R17*%
X362995000Y-84900000D03*
D20*
X362995000Y-95060000D03*
%TD*%
%TO.C,R18*%
X366200000Y-95060000D03*
D22*
X366200000Y-84900000D03*
%TD*%
D20*
%TO.C,R19*%
X372980000Y-85740000D03*
D22*
X372980000Y-95900000D03*
%TD*%
D20*
%TO.C,R20*%
X366720000Y-155260000D03*
D22*
X366720000Y-165420000D03*
%TD*%
%TO.C,R21*%
X369860000Y-165420000D03*
D20*
X369860000Y-155260000D03*
%TD*%
D22*
%TO.C,R22*%
X369450000Y-190860000D03*
D20*
X369450000Y-180700000D03*
%TD*%
%TO.C,R24*%
X303970000Y-160760000D03*
D22*
X303970000Y-150600000D03*
%TD*%
%TO.C,R25*%
X263570000Y-105700000D03*
D20*
X263570000Y-115860000D03*
%TD*%
D22*
%TO.C,R26*%
X300070000Y-150300000D03*
D20*
X300070000Y-160460000D03*
%TD*%
D21*
%TO.C,RP1*%
X225320000Y-152490000D03*
D20*
X227860000Y-152490000D03*
X230400000Y-152490000D03*
X232940000Y-152490000D03*
X235480000Y-152490000D03*
X238020000Y-152490000D03*
X240560000Y-152490000D03*
X243100000Y-152490000D03*
X245640000Y-152490000D03*
X248180000Y-152490000D03*
%TD*%
D36*
%TO.C,S1*%
X150370000Y-82040000D03*
X150370000Y-86040000D03*
X150370000Y-90040000D03*
X156370000Y-82040000D03*
X156370000Y-86040000D03*
X156370000Y-90040000D03*
%TD*%
D21*
%TO.C,U1*%
X127920000Y-174200000D03*
D20*
X135540000Y-191980000D03*
X127920000Y-176740000D03*
X135540000Y-189440000D03*
X127920000Y-179280000D03*
X135540000Y-186900000D03*
X127920000Y-181820000D03*
X135540000Y-184360000D03*
X127920000Y-184360000D03*
X135540000Y-181820000D03*
X127920000Y-186900000D03*
X135540000Y-179280000D03*
X127920000Y-189440000D03*
X135540000Y-176740000D03*
X127920000Y-191980000D03*
X135540000Y-174200000D03*
%TD*%
D21*
%TO.C,U2*%
X156710000Y-106210000D03*
D20*
X171950000Y-154470000D03*
X156710000Y-108750000D03*
X171950000Y-151930000D03*
X156710000Y-111290000D03*
X171950000Y-149390000D03*
X156710000Y-113830000D03*
X171950000Y-146850000D03*
X156710000Y-116370000D03*
X171950000Y-144310000D03*
X156710000Y-118910000D03*
X171950000Y-141770000D03*
X156710000Y-121450000D03*
X171950000Y-139230000D03*
X156710000Y-123990000D03*
X171950000Y-136690000D03*
X156710000Y-126530000D03*
X171950000Y-134150000D03*
X156710000Y-129070000D03*
X171950000Y-131610000D03*
X156710000Y-131610000D03*
X171950000Y-129070000D03*
X156710000Y-134150000D03*
X171950000Y-126530000D03*
X156710000Y-136690000D03*
X171950000Y-123990000D03*
X156710000Y-139230000D03*
X171950000Y-121450000D03*
X156710000Y-141770000D03*
X171950000Y-118910000D03*
X156710000Y-144310000D03*
X171950000Y-116370000D03*
X156710000Y-146850000D03*
X171950000Y-113830000D03*
X156710000Y-149390000D03*
X171950000Y-111290000D03*
X156710000Y-151930000D03*
X171950000Y-108750000D03*
X156710000Y-154470000D03*
X171950000Y-106210000D03*
%TD*%
D21*
%TO.C,U3*%
X185040000Y-100870000D03*
D20*
X192660000Y-123730000D03*
X185040000Y-103410000D03*
X192660000Y-121190000D03*
X185040000Y-105950000D03*
X192660000Y-118650000D03*
X185040000Y-108490000D03*
X192660000Y-116110000D03*
X185040000Y-111030000D03*
X192660000Y-113570000D03*
X185040000Y-113570000D03*
X192660000Y-111030000D03*
X185040000Y-116110000D03*
X192660000Y-108490000D03*
X185040000Y-118650000D03*
X192660000Y-105950000D03*
X185040000Y-121190000D03*
X192660000Y-103410000D03*
X185040000Y-123730000D03*
X192660000Y-100870000D03*
%TD*%
D21*
%TO.C,U4*%
X185040000Y-133900000D03*
D20*
X192660000Y-141520000D03*
X185040000Y-136440000D03*
X192660000Y-138980000D03*
X185040000Y-138980000D03*
X192660000Y-136440000D03*
X185040000Y-141520000D03*
X192660000Y-133900000D03*
%TD*%
%TO.C,U7*%
X232950000Y-93410000D03*
X217710000Y-141670000D03*
X232950000Y-95950000D03*
X217710000Y-139130000D03*
X232950000Y-98490000D03*
X217710000Y-136590000D03*
X232950000Y-101030000D03*
X217710000Y-134050000D03*
X232950000Y-103570000D03*
X217710000Y-131510000D03*
X232950000Y-106110000D03*
X217710000Y-128970000D03*
X232950000Y-108650000D03*
X217710000Y-126430000D03*
X232950000Y-111190000D03*
X217710000Y-123890000D03*
X232950000Y-113730000D03*
X217710000Y-121350000D03*
X232950000Y-116270000D03*
X217710000Y-118810000D03*
X232950000Y-118810000D03*
X217710000Y-116270000D03*
X232950000Y-121350000D03*
X217710000Y-113730000D03*
X232950000Y-123890000D03*
X217710000Y-111190000D03*
X232950000Y-126430000D03*
X217710000Y-108650000D03*
X232950000Y-128970000D03*
X217710000Y-106110000D03*
X232950000Y-131510000D03*
X217710000Y-103570000D03*
X232950000Y-134050000D03*
X217710000Y-101030000D03*
X232950000Y-136590000D03*
X217710000Y-98490000D03*
X232950000Y-139130000D03*
X217710000Y-95950000D03*
X232950000Y-141670000D03*
D21*
X217710000Y-93410000D03*
%TD*%
%TO.C,U14*%
X166760000Y-173230000D03*
D20*
X174380000Y-191010000D03*
X166760000Y-175770000D03*
X174380000Y-188470000D03*
X166760000Y-178310000D03*
X174380000Y-185930000D03*
X166760000Y-180850000D03*
X174380000Y-183390000D03*
X166760000Y-183390000D03*
X174380000Y-180850000D03*
X166760000Y-185930000D03*
X174380000Y-178310000D03*
X166760000Y-188470000D03*
X174380000Y-175770000D03*
X166760000Y-191010000D03*
X174380000Y-173230000D03*
%TD*%
%TO.C,U15*%
X192249000Y-173230000D03*
X184629000Y-191010000D03*
X192249000Y-175770000D03*
X184629000Y-188470000D03*
X192249000Y-178310000D03*
X184629000Y-185930000D03*
X192249000Y-180850000D03*
X184629000Y-183390000D03*
X192249000Y-183390000D03*
X184629000Y-180850000D03*
X192249000Y-185930000D03*
X184629000Y-178310000D03*
X192249000Y-188470000D03*
X184629000Y-175770000D03*
X192249000Y-191010000D03*
D21*
X184629000Y-173230000D03*
%TD*%
%TO.C,U16*%
X202497000Y-173230000D03*
D20*
X210117000Y-191010000D03*
X202497000Y-175770000D03*
X210117000Y-188470000D03*
X202497000Y-178310000D03*
X210117000Y-185930000D03*
X202497000Y-180850000D03*
X210117000Y-183390000D03*
X202497000Y-183390000D03*
X210117000Y-180850000D03*
X202497000Y-185930000D03*
X210117000Y-178310000D03*
X202497000Y-188470000D03*
X210117000Y-175770000D03*
X202497000Y-191010000D03*
X210117000Y-173230000D03*
%TD*%
D21*
%TO.C,U17*%
X220366000Y-173230000D03*
D20*
X227986000Y-191010000D03*
X220366000Y-175770000D03*
X227986000Y-188470000D03*
X220366000Y-178310000D03*
X227986000Y-185930000D03*
X220366000Y-180850000D03*
X227986000Y-183390000D03*
X220366000Y-183390000D03*
X227986000Y-180850000D03*
X220366000Y-185930000D03*
X227986000Y-178310000D03*
X220366000Y-188470000D03*
X227986000Y-175770000D03*
X220366000Y-191010000D03*
X227986000Y-173230000D03*
%TD*%
%TO.C,U18*%
X245854000Y-173230000D03*
X238234000Y-191010000D03*
X245854000Y-175770000D03*
X238234000Y-188470000D03*
X245854000Y-178310000D03*
X238234000Y-185930000D03*
X245854000Y-180850000D03*
X238234000Y-183390000D03*
X245854000Y-183390000D03*
X238234000Y-180850000D03*
X245854000Y-185930000D03*
X238234000Y-178310000D03*
X245854000Y-188470000D03*
X238234000Y-175770000D03*
X245854000Y-191010000D03*
D21*
X238234000Y-173230000D03*
%TD*%
D20*
%TO.C,U19*%
X263723000Y-173230000D03*
X256103000Y-191010000D03*
X263723000Y-175770000D03*
X256103000Y-188470000D03*
X263723000Y-178310000D03*
X256103000Y-185930000D03*
X263723000Y-180850000D03*
X256103000Y-183390000D03*
X263723000Y-183390000D03*
X256103000Y-180850000D03*
X263723000Y-185930000D03*
X256103000Y-178310000D03*
X263723000Y-188470000D03*
X256103000Y-175770000D03*
X263723000Y-191010000D03*
D21*
X256103000Y-173230000D03*
%TD*%
D20*
%TO.C,U20*%
X281591000Y-173230000D03*
X273971000Y-191010000D03*
X281591000Y-175770000D03*
X273971000Y-188470000D03*
X281591000Y-178310000D03*
X273971000Y-185930000D03*
X281591000Y-180850000D03*
X273971000Y-183390000D03*
X281591000Y-183390000D03*
X273971000Y-180850000D03*
X281591000Y-185930000D03*
X273971000Y-178310000D03*
X281591000Y-188470000D03*
X273971000Y-175770000D03*
X281591000Y-191010000D03*
D21*
X273971000Y-173230000D03*
%TD*%
%TO.C,U21*%
X291840000Y-173230000D03*
D20*
X299460000Y-191010000D03*
X291840000Y-175770000D03*
X299460000Y-188470000D03*
X291840000Y-178310000D03*
X299460000Y-185930000D03*
X291840000Y-180850000D03*
X299460000Y-183390000D03*
X291840000Y-183390000D03*
X299460000Y-180850000D03*
X291840000Y-185930000D03*
X299460000Y-178310000D03*
X291840000Y-188470000D03*
X299460000Y-175770000D03*
X291840000Y-191010000D03*
X299460000Y-173230000D03*
%TD*%
D21*
%TO.C,U23*%
X335470000Y-144180000D03*
D20*
X350710000Y-192440000D03*
X335470000Y-146720000D03*
X350710000Y-189900000D03*
X335470000Y-149260000D03*
X350710000Y-187360000D03*
X335470000Y-151800000D03*
X350710000Y-184820000D03*
X335470000Y-154340000D03*
X350710000Y-182280000D03*
X335470000Y-156880000D03*
X350710000Y-179740000D03*
X335470000Y-159420000D03*
X350710000Y-177200000D03*
X335470000Y-161960000D03*
X350710000Y-174660000D03*
X335470000Y-164500000D03*
X350710000Y-172120000D03*
X335470000Y-167040000D03*
X350710000Y-169580000D03*
X335470000Y-169580000D03*
X350710000Y-167040000D03*
X335470000Y-172120000D03*
X350710000Y-164500000D03*
X335470000Y-174660000D03*
X350710000Y-161960000D03*
X335470000Y-177200000D03*
X350710000Y-159420000D03*
X335470000Y-179740000D03*
X350710000Y-156880000D03*
X335470000Y-182280000D03*
X350710000Y-154340000D03*
X335470000Y-184820000D03*
X350710000Y-151800000D03*
X335470000Y-187360000D03*
X350710000Y-149260000D03*
X335470000Y-189900000D03*
X350710000Y-146720000D03*
X335470000Y-192440000D03*
X350710000Y-144180000D03*
%TD*%
D37*
%TO.C,X1*%
X299570000Y-144400000D03*
X294670000Y-144400000D03*
X297070000Y-127400000D03*
%TD*%
D38*
%TO.C,J5*%
X225170000Y-156270000D03*
D39*
X227710000Y-156270000D03*
X230250000Y-156270000D03*
X232790000Y-156270000D03*
X235330000Y-156270000D03*
X237870000Y-156270000D03*
X240410000Y-156270000D03*
X242950000Y-156270000D03*
X245490000Y-156270000D03*
X248030000Y-156270000D03*
X250570000Y-156270000D03*
X253110000Y-156270000D03*
X255650000Y-156270000D03*
X258190000Y-156270000D03*
X260730000Y-156270000D03*
X263270000Y-156270000D03*
%TD*%
D40*
%TO.C,U9*%
X272290000Y-68340000D03*
X287290000Y-68340000D03*
X287290000Y-134340000D03*
X272290000Y-134340000D03*
D38*
X279790000Y-107100000D03*
D41*
X279790000Y-109640000D03*
X279790000Y-112180000D03*
X279790000Y-114720000D03*
X279790000Y-117260000D03*
X279790000Y-119800000D03*
X279790000Y-122340000D03*
%TD*%
D22*
%TO.C,C7*%
X160550000Y-68505000D03*
X160550000Y-73505000D03*
%TD*%
%TO.C,C8*%
X162375000Y-82080000D03*
X162375000Y-77080000D03*
%TD*%
%TO.C,C9*%
X161270000Y-85680000D03*
X161270000Y-90680000D03*
%TD*%
%TO.C,C10*%
X162650000Y-95430000D03*
X162650000Y-100430000D03*
%TD*%
%TO.C,C13*%
X174020000Y-91300000D03*
X174020000Y-86300000D03*
%TD*%
%TO.C,C16*%
X187670000Y-91800000D03*
X187670000Y-86800000D03*
%TD*%
%TO.C,C17*%
X191200000Y-91770000D03*
X191200000Y-86770000D03*
%TD*%
%TO.C,C22*%
X216380000Y-85630000D03*
X221380000Y-85630000D03*
%TD*%
%TO.C,C23*%
X241880000Y-87590000D03*
X241880000Y-92590000D03*
%TD*%
%TO.C,C27*%
X194470000Y-146300000D03*
X189470000Y-146300000D03*
%TD*%
%TO.C,C14*%
X173970000Y-100570000D03*
X173970000Y-95570000D03*
%TD*%
D13*
%TO.C,R11*%
X198220000Y-98930000D03*
D17*
X198220000Y-86230000D03*
%TD*%
D22*
%TO.C,C20*%
X196030000Y-104700000D03*
X198030000Y-104700000D03*
%TD*%
D13*
%TO.C,R23*%
X237340000Y-98890000D03*
D17*
X237340000Y-86190000D03*
%TD*%
D21*
%TO.C,C62*%
X298990000Y-99420000D03*
D22*
X296990000Y-99420000D03*
%TD*%
D21*
%TO.C,C46*%
X329470000Y-138660000D03*
D22*
X331470000Y-138660000D03*
%TD*%
D20*
%TO.C,R27*%
X144097000Y-188060000D03*
D22*
X144097000Y-177900000D03*
%TD*%
%TO.C,R28*%
X148033000Y-177900000D03*
D20*
X148033000Y-188060000D03*
%TD*%
D42*
%TO.C,H1*%
X69950000Y-199000000D03*
%TD*%
%TO.C,H2*%
X78450000Y-198970000D03*
%TD*%
%TO.C,H3*%
X351500000Y-71000000D03*
%TD*%
D12*
%TO.C,K2*%
X254040000Y-89740000D03*
D14*
X261660000Y-89740000D03*
D12*
X261660000Y-77040000D03*
X254040000Y-78564000D03*
X254040000Y-74500000D03*
%TD*%
M02*
