%TF.GenerationSoftware,KiCad,Pcbnew,5.1.5+dfsg1-2build2*%
%TF.CreationDate,2021-10-05T23:16:15-04:00*%
%TF.ProjectId,coco3,636f636f-332e-46b6-9963-61645f706362,1.1.0*%
%TF.SameCoordinates,Original*%
%TF.FileFunction,Soldermask,Bot*%
%TF.FilePolarity,Negative*%
%FSLAX46Y46*%
G04 Gerber Fmt 4.6, Leading zero omitted, Abs format (unit mm)*
G04 Created by KiCad (PCBNEW 5.1.5+dfsg1-2build2) date 2021-10-05 23:16:15*
%MOMM*%
%LPD*%
G04 APERTURE LIST*
%ADD10C,1.950000*%
%ADD11O,2.500000X15.500000*%
%ADD12O,15.500000X2.500000*%
%ADD13R,1.700000X1.700000*%
%ADD14O,1.700000X1.700000*%
%ADD15O,1.701800X2.717800*%
%ADD16O,2.717800X1.701800*%
%ADD17C,1.600000*%
%ADD18R,1.600000X1.600000*%
%ADD19R,2.400000X2.400000*%
%ADD20C,2.400000*%
%ADD21C,4.000000*%
%ADD22C,1.600200*%
%ADD23C,0.100000*%
%ADD24O,4.100000X3.160000*%
%ADD25O,3.200000X3.200000*%
%ADD26R,3.200000X3.200000*%
%ADD27R,2.200000X2.200000*%
%ADD28O,2.200000X2.200000*%
%ADD29O,1.600000X1.600000*%
%ADD30R,1.800000X1.800000*%
%ADD31O,1.800000X1.800000*%
%ADD32C,1.422400*%
%ADD33R,1.422400X1.422400*%
%ADD34R,1.050000X1.500000*%
%ADD35O,1.050000X1.500000*%
%ADD36R,1.950000X1.950000*%
%ADD37O,2.000000X2.000000*%
%ADD38C,2.000000*%
%ADD39O,3.500000X3.500000*%
%ADD40R,2.000000X1.905000*%
%ADD41O,2.000000X1.905000*%
%ADD42R,1.500000X1.050000*%
%ADD43O,1.500000X1.050000*%
%ADD44O,2.400000X2.400000*%
%ADD45C,3.044000*%
%ADD46C,1.778000*%
%ADD47C,2.540000*%
%ADD48C,2.250000*%
%ADD49C,1.308000*%
%ADD50C,2.100000*%
%ADD51C,1.030000*%
%ADD52O,5.500000X3.500000*%
%ADD53C,1.240000*%
%ADD54C,1.400000*%
%ADD55O,1.400000X1.400000*%
G04 APERTURE END LIST*
D10*
%TO.C,RF1*%
X199796000Y-76774000D03*
X214796000Y-76774000D03*
X209796000Y-76774000D03*
X204796000Y-76774000D03*
D11*
X189321000Y-50274000D03*
X224921000Y-50274000D03*
D12*
X207296000Y-19649000D03*
X207296000Y-80149000D03*
%TD*%
D13*
%TO.C,CN4*%
X157551400Y-105574000D03*
D14*
X160091400Y-105574000D03*
X162631400Y-105574000D03*
X165171400Y-105574000D03*
X167711400Y-105574000D03*
X170251400Y-105574000D03*
X172791400Y-105574000D03*
X175331400Y-105574000D03*
X177871400Y-105574000D03*
X180411400Y-105574000D03*
X182951400Y-105574000D03*
X185491400Y-105574000D03*
%TD*%
D13*
%TO.C,CN6*%
X114301000Y-72074000D03*
D14*
X114301000Y-69534000D03*
X114301000Y-66994000D03*
X114301000Y-64454000D03*
X114301000Y-61914000D03*
X114301000Y-59374000D03*
X114301000Y-56834000D03*
X114301000Y-54294000D03*
X114301000Y-51754000D03*
X114301000Y-49214000D03*
X114301000Y-46674000D03*
X114301000Y-44134000D03*
%TD*%
D13*
%TO.C,CN5*%
X114301000Y-102574000D03*
D14*
X114301000Y-100034000D03*
X114301000Y-97494000D03*
X114301000Y-94954000D03*
X114301000Y-92414000D03*
X114301000Y-89874000D03*
X114301000Y-87334000D03*
X114301000Y-84794000D03*
X114301000Y-82254000D03*
X114301000Y-79714000D03*
X114301000Y-77174000D03*
X114301000Y-74634000D03*
%TD*%
D15*
%TO.C,J5A1001*%
X249501400Y-25874000D03*
D16*
X249501400Y-21374000D03*
%TD*%
D15*
%TO.C,J5B1001*%
X264001400Y-25874000D03*
D16*
X264001400Y-21374000D03*
%TD*%
D17*
%TO.C,C1*%
X256291000Y-59674000D03*
X256291000Y-54674000D03*
%TD*%
D18*
%TO.C,C2*%
X272621000Y-37544000D03*
D17*
X274621000Y-37544000D03*
%TD*%
%TO.C,C3*%
X294951000Y-49864000D03*
D18*
X292951000Y-49864000D03*
%TD*%
D17*
%TO.C,C4*%
X274201000Y-111724000D03*
X269201000Y-111724000D03*
%TD*%
%TO.C,C6*%
X121901000Y-164674000D03*
X116901000Y-164674000D03*
%TD*%
%TO.C,C7*%
X133201000Y-164674000D03*
X128201000Y-164674000D03*
%TD*%
%TO.C,C8*%
X241701000Y-101424000D03*
X241701000Y-106424000D03*
%TD*%
D18*
%TO.C,C9*%
X235931000Y-105544000D03*
D17*
X235931000Y-103544000D03*
%TD*%
%TO.C,C10*%
X227301000Y-106374000D03*
X227301000Y-101374000D03*
%TD*%
%TO.C,C11*%
X284701000Y-106924000D03*
X284701000Y-111924000D03*
%TD*%
%TO.C,C12*%
X248051000Y-126524000D03*
X243051000Y-126524000D03*
%TD*%
%TO.C,C13*%
X104601400Y-139574000D03*
X99601400Y-139574000D03*
%TD*%
%TO.C,C14*%
X50001400Y-162074000D03*
X50001400Y-157074000D03*
%TD*%
%TO.C,C15*%
X56051400Y-163444000D03*
D18*
X56051400Y-158444000D03*
%TD*%
D17*
%TO.C,C16*%
X103801400Y-42944000D03*
X103801400Y-47944000D03*
%TD*%
%TO.C,C17*%
X100801400Y-64324000D03*
X100801400Y-69324000D03*
%TD*%
%TO.C,C18*%
X103961400Y-68624000D03*
X103961400Y-63624000D03*
%TD*%
%TO.C,C19*%
X103801400Y-53274000D03*
X103801400Y-58274000D03*
%TD*%
%TO.C,C20*%
X96801400Y-47944000D03*
X96801400Y-42944000D03*
%TD*%
%TO.C,C21*%
X97801400Y-58974000D03*
X97801400Y-53974000D03*
%TD*%
%TO.C,C22*%
X99901400Y-42244000D03*
X99901400Y-47244000D03*
%TD*%
%TO.C,C23*%
X97701400Y-63624000D03*
X97701400Y-68624000D03*
%TD*%
%TO.C,C24*%
X147371000Y-39504000D03*
X144871000Y-39504000D03*
%TD*%
%TO.C,C25*%
X165151000Y-52324000D03*
X165151000Y-47324000D03*
%TD*%
%TO.C,C26*%
X300551000Y-104274000D03*
X300551000Y-109274000D03*
%TD*%
D18*
%TO.C,C27*%
X291801000Y-105874000D03*
D17*
X296801000Y-105874000D03*
%TD*%
%TO.C,C28*%
X66001400Y-136074000D03*
X71001400Y-136074000D03*
%TD*%
D19*
%TO.C,C29*%
X70901400Y-112774000D03*
D20*
X75901400Y-112774000D03*
%TD*%
D17*
%TO.C,C30*%
X66001400Y-140974000D03*
X71001400Y-140974000D03*
%TD*%
D18*
%TO.C,C31*%
X74661400Y-128774000D03*
D17*
X79661400Y-128774000D03*
%TD*%
%TO.C,C32*%
X96801400Y-96024000D03*
X101801400Y-96024000D03*
%TD*%
%TO.C,C33*%
X101801400Y-92924000D03*
X96801400Y-92924000D03*
%TD*%
%TO.C,C34*%
X254141000Y-44474000D03*
X254141000Y-49474000D03*
%TD*%
%TO.C,C35*%
X91951400Y-67124000D03*
X86951400Y-67124000D03*
%TD*%
%TO.C,C36*%
X86951400Y-70174000D03*
X91951400Y-70174000D03*
%TD*%
%TO.C,C37*%
X240781000Y-88344000D03*
X235781000Y-88344000D03*
%TD*%
%TO.C,C38*%
X210601000Y-91374000D03*
X210601000Y-96374000D03*
%TD*%
%TO.C,C39*%
X179901000Y-63214000D03*
X179901000Y-68214000D03*
%TD*%
%TO.C,C40*%
X179776000Y-98614000D03*
X179776000Y-93614000D03*
%TD*%
%TO.C,C41*%
X179901000Y-83414000D03*
X179901000Y-78414000D03*
%TD*%
%TO.C,C42*%
X279301000Y-144574000D03*
X279301000Y-149574000D03*
%TD*%
%TO.C,C43*%
X124801000Y-52074000D03*
X124801000Y-47074000D03*
%TD*%
%TO.C,C44*%
X124801000Y-67514000D03*
X124801000Y-62514000D03*
%TD*%
%TO.C,C45*%
X124801000Y-77174000D03*
X124801000Y-82174000D03*
%TD*%
%TO.C,C46*%
X124731000Y-98624000D03*
X124731000Y-93624000D03*
%TD*%
%TO.C,C47*%
X158201000Y-139274000D03*
X158201000Y-134274000D03*
%TD*%
%TO.C,C48*%
X158201000Y-146674000D03*
X158201000Y-151674000D03*
%TD*%
%TO.C,C49*%
X100801400Y-53974000D03*
X100801400Y-58974000D03*
%TD*%
%TO.C,C50*%
X245201000Y-69974000D03*
X240201000Y-69974000D03*
%TD*%
%TO.C,C51*%
X232501000Y-68054000D03*
X237501000Y-68054000D03*
%TD*%
D18*
%TO.C,C54*%
X234801000Y-26574000D03*
D17*
X238301000Y-26574000D03*
%TD*%
%TO.C,C55*%
X250131000Y-56774000D03*
D18*
X248131000Y-56774000D03*
%TD*%
D17*
%TO.C,C56*%
X266821000Y-37614000D03*
D18*
X264821000Y-37614000D03*
%TD*%
D17*
%TO.C,C58*%
X292301000Y-160074000D03*
X292301000Y-165074000D03*
%TD*%
%TO.C,C59*%
X289301000Y-165074000D03*
X289301000Y-160074000D03*
%TD*%
%TO.C,C60*%
X198701000Y-144324000D03*
X193701000Y-144324000D03*
%TD*%
%TO.C,C61*%
X300301000Y-41274000D03*
X300301000Y-46274000D03*
%TD*%
D18*
%TO.C,C62*%
X89531400Y-78894000D03*
D17*
X89531400Y-75394000D03*
%TD*%
D18*
%TO.C,C63*%
X108101000Y-94524000D03*
D17*
X108101000Y-98024000D03*
%TD*%
%TO.C,C64*%
X202451000Y-132974000D03*
X202451000Y-137974000D03*
%TD*%
%TO.C,C65*%
X141101000Y-105724000D03*
X136101000Y-105724000D03*
%TD*%
%TO.C,C66*%
X132501000Y-40224000D03*
X137501000Y-40224000D03*
%TD*%
D18*
%TO.C,C67*%
X241311000Y-64444000D03*
D17*
X241311000Y-66444000D03*
%TD*%
%TO.C,C68*%
X99701400Y-109774000D03*
X104701400Y-109774000D03*
%TD*%
D21*
%TO.C,CN1*%
X311950000Y-109276500D03*
X311950000Y-43871500D03*
D22*
X303288600Y-100704000D03*
X303288600Y-98164000D03*
X303288600Y-95624000D03*
X303288600Y-93084000D03*
X303288600Y-90544000D03*
X303288600Y-88004000D03*
X303288600Y-85464000D03*
X303288600Y-82924000D03*
X303288600Y-80384000D03*
X303288600Y-77844000D03*
X303288600Y-75304000D03*
X303288600Y-72764000D03*
X303288600Y-70224000D03*
X303288600Y-67684000D03*
X303288600Y-65144000D03*
X303288600Y-62604000D03*
X303288600Y-60064000D03*
X303288600Y-57524000D03*
X303288600Y-54984000D03*
X303288600Y-52444000D03*
X307251000Y-100704000D03*
X307251000Y-98164000D03*
X307251000Y-95624000D03*
X307251000Y-93084000D03*
X307251000Y-90544000D03*
X307251000Y-88004000D03*
X307251000Y-85464000D03*
X307251000Y-82924000D03*
X307251000Y-80384000D03*
X307251000Y-77844000D03*
X307251000Y-75304000D03*
X307251000Y-72764000D03*
X307251000Y-70224000D03*
X307251000Y-67684000D03*
X307251000Y-65144000D03*
X307251000Y-62604000D03*
X307251000Y-60064000D03*
X307251000Y-57524000D03*
X307251000Y-54984000D03*
X307251000Y-52444000D03*
%TD*%
D13*
%TO.C,CN3*%
X303001000Y-156074000D03*
D14*
X303001000Y-153534000D03*
X300461000Y-156074000D03*
X300461000Y-153534000D03*
X297921000Y-156074000D03*
X297921000Y-153534000D03*
X295381000Y-156074000D03*
X295381000Y-153534000D03*
X292841000Y-156074000D03*
X292841000Y-153534000D03*
%TD*%
D23*
%TO.C,CN7*%
G36*
X90135904Y-61395204D02*
G01*
X90160173Y-61398804D01*
X90183971Y-61404765D01*
X90207071Y-61413030D01*
X90229249Y-61423520D01*
X90250293Y-61436133D01*
X90269998Y-61450747D01*
X90288177Y-61467223D01*
X90304653Y-61485402D01*
X90319267Y-61505107D01*
X90331880Y-61526151D01*
X90342370Y-61548329D01*
X90350635Y-61571429D01*
X90356596Y-61595227D01*
X90360196Y-61619496D01*
X90361400Y-61644000D01*
X90361400Y-64304000D01*
X90360196Y-64328504D01*
X90356596Y-64352773D01*
X90350635Y-64376571D01*
X90342370Y-64399671D01*
X90331880Y-64421849D01*
X90319267Y-64442893D01*
X90304653Y-64462598D01*
X90288177Y-64480777D01*
X90269998Y-64497253D01*
X90250293Y-64511867D01*
X90229249Y-64524480D01*
X90207071Y-64534970D01*
X90183971Y-64543235D01*
X90160173Y-64549196D01*
X90135904Y-64552796D01*
X90111400Y-64554000D01*
X86511400Y-64554000D01*
X86486896Y-64552796D01*
X86462627Y-64549196D01*
X86438829Y-64543235D01*
X86415729Y-64534970D01*
X86393551Y-64524480D01*
X86372507Y-64511867D01*
X86352802Y-64497253D01*
X86334623Y-64480777D01*
X86318147Y-64462598D01*
X86303533Y-64442893D01*
X86290920Y-64421849D01*
X86280430Y-64399671D01*
X86272165Y-64376571D01*
X86266204Y-64352773D01*
X86262604Y-64328504D01*
X86261400Y-64304000D01*
X86261400Y-61644000D01*
X86262604Y-61619496D01*
X86266204Y-61595227D01*
X86272165Y-61571429D01*
X86280430Y-61548329D01*
X86290920Y-61526151D01*
X86303533Y-61505107D01*
X86318147Y-61485402D01*
X86334623Y-61467223D01*
X86352802Y-61450747D01*
X86372507Y-61436133D01*
X86393551Y-61423520D01*
X86415729Y-61413030D01*
X86438829Y-61404765D01*
X86462627Y-61398804D01*
X86486896Y-61395204D01*
X86511400Y-61394000D01*
X90111400Y-61394000D01*
X90135904Y-61395204D01*
G37*
D24*
X88311400Y-59014000D03*
X88311400Y-55054000D03*
%TD*%
D25*
%TO.C,D1*%
X85201400Y-103714000D03*
D26*
X85201400Y-88474000D03*
%TD*%
%TO.C,D2*%
X91051400Y-88474000D03*
D25*
X91051400Y-103714000D03*
%TD*%
D27*
%TO.C,D3*%
X89651400Y-117464000D03*
D28*
X89651400Y-127624000D03*
%TD*%
%TO.C,D4*%
X85141400Y-127624000D03*
D27*
X85141400Y-117464000D03*
%TD*%
D29*
%TO.C,D5*%
X168901000Y-47954000D03*
D18*
X168901000Y-55574000D03*
%TD*%
%TO.C,D6*%
X65001400Y-158914000D03*
D29*
X65001400Y-166534000D03*
%TD*%
%TO.C,D7*%
X67601400Y-166534000D03*
D18*
X67601400Y-158914000D03*
%TD*%
D30*
%TO.C,D8*%
X107111400Y-45964000D03*
D31*
X107111400Y-56124000D03*
%TD*%
%TO.C,D9*%
X110381400Y-56124000D03*
D30*
X110381400Y-45964000D03*
%TD*%
D31*
%TO.C,D10*%
X107321400Y-70364000D03*
D30*
X107321400Y-60204000D03*
%TD*%
%TO.C,D11*%
X110631400Y-60194000D03*
D31*
X110631400Y-70354000D03*
%TD*%
D18*
%TO.C,D12*%
X296701000Y-38004000D03*
D29*
X296701000Y-45624000D03*
%TD*%
D27*
%TO.C,D13*%
X99411400Y-77614000D03*
D28*
X109571400Y-77614000D03*
%TD*%
%TO.C,D14*%
X99411000Y-80894000D03*
D27*
X109571000Y-80894000D03*
%TD*%
D18*
%TO.C,IC1*%
X259701000Y-45154000D03*
D29*
X274941000Y-93414000D03*
X259701000Y-47694000D03*
X274941000Y-90874000D03*
X259701000Y-50234000D03*
X274941000Y-88334000D03*
X259701000Y-52774000D03*
X274941000Y-85794000D03*
X259701000Y-55314000D03*
X274941000Y-83254000D03*
X259701000Y-57854000D03*
X274941000Y-80714000D03*
X259701000Y-60394000D03*
X274941000Y-78174000D03*
X259701000Y-62934000D03*
X274941000Y-75634000D03*
X259701000Y-65474000D03*
X274941000Y-73094000D03*
X259701000Y-68014000D03*
X274941000Y-70554000D03*
X259701000Y-70554000D03*
X274941000Y-68014000D03*
X259701000Y-73094000D03*
X274941000Y-65474000D03*
X259701000Y-75634000D03*
X274941000Y-62934000D03*
X259701000Y-78174000D03*
X274941000Y-60394000D03*
X259701000Y-80714000D03*
X274941000Y-57854000D03*
X259701000Y-83254000D03*
X274941000Y-55314000D03*
X259701000Y-85794000D03*
X274941000Y-52774000D03*
X259701000Y-88334000D03*
X274941000Y-50234000D03*
X259701000Y-90874000D03*
X274941000Y-47694000D03*
X259701000Y-93414000D03*
X274941000Y-45154000D03*
%TD*%
D18*
%TO.C,IC3*%
X278531000Y-60074000D03*
D29*
X286151000Y-82934000D03*
X278531000Y-62614000D03*
X286151000Y-80394000D03*
X278531000Y-65154000D03*
X286151000Y-77854000D03*
X278531000Y-67694000D03*
X286151000Y-75314000D03*
X278531000Y-70234000D03*
X286151000Y-72774000D03*
X278531000Y-72774000D03*
X286151000Y-70234000D03*
X278531000Y-75314000D03*
X286151000Y-67694000D03*
X278531000Y-77854000D03*
X286151000Y-65154000D03*
X278531000Y-80394000D03*
X286151000Y-62614000D03*
X278531000Y-82934000D03*
X286151000Y-60074000D03*
%TD*%
%TO.C,IC4*%
X126941000Y-110634000D03*
X111701000Y-158894000D03*
X126941000Y-113174000D03*
X111701000Y-156354000D03*
X126941000Y-115714000D03*
X111701000Y-153814000D03*
X126941000Y-118254000D03*
X111701000Y-151274000D03*
X126941000Y-120794000D03*
X111701000Y-148734000D03*
X126941000Y-123334000D03*
X111701000Y-146194000D03*
X126941000Y-125874000D03*
X111701000Y-143654000D03*
X126941000Y-128414000D03*
X111701000Y-141114000D03*
X126941000Y-130954000D03*
X111701000Y-138574000D03*
X126941000Y-133494000D03*
X111701000Y-136034000D03*
X126941000Y-136034000D03*
X111701000Y-133494000D03*
X126941000Y-138574000D03*
X111701000Y-130954000D03*
X126941000Y-141114000D03*
X111701000Y-128414000D03*
X126941000Y-143654000D03*
X111701000Y-125874000D03*
X126941000Y-146194000D03*
X111701000Y-123334000D03*
X126941000Y-148734000D03*
X111701000Y-120794000D03*
X126941000Y-151274000D03*
X111701000Y-118254000D03*
X126941000Y-153814000D03*
X111701000Y-115714000D03*
X126941000Y-156354000D03*
X111701000Y-113174000D03*
X126941000Y-158894000D03*
D18*
X111701000Y-110634000D03*
%TD*%
%TO.C,IC5*%
X131781000Y-110634000D03*
D29*
X147021000Y-158894000D03*
X131781000Y-113174000D03*
X147021000Y-156354000D03*
X131781000Y-115714000D03*
X147021000Y-153814000D03*
X131781000Y-118254000D03*
X147021000Y-151274000D03*
X131781000Y-120794000D03*
X147021000Y-148734000D03*
X131781000Y-123334000D03*
X147021000Y-146194000D03*
X131781000Y-125874000D03*
X147021000Y-143654000D03*
X131781000Y-128414000D03*
X147021000Y-141114000D03*
X131781000Y-130954000D03*
X147021000Y-138574000D03*
X131781000Y-133494000D03*
X147021000Y-136034000D03*
X131781000Y-136034000D03*
X147021000Y-133494000D03*
X131781000Y-138574000D03*
X147021000Y-130954000D03*
X131781000Y-141114000D03*
X147021000Y-128414000D03*
X131781000Y-143654000D03*
X147021000Y-125874000D03*
X131781000Y-146194000D03*
X147021000Y-123334000D03*
X131781000Y-148734000D03*
X147021000Y-120794000D03*
X131781000Y-151274000D03*
X147021000Y-118254000D03*
X131781000Y-153814000D03*
X147021000Y-115714000D03*
X131781000Y-156354000D03*
X147021000Y-113174000D03*
X131781000Y-158894000D03*
X147021000Y-110634000D03*
%TD*%
D32*
%TO.C,IC6*%
X211941000Y-127474000D03*
X211941000Y-130014000D03*
X211941000Y-132554000D03*
X211941000Y-135094000D03*
X211941000Y-124934000D03*
X211941000Y-122394000D03*
X211941000Y-119854000D03*
X211941000Y-117314000D03*
D33*
X209401000Y-127474000D03*
D32*
X209401000Y-130014000D03*
X209401000Y-132554000D03*
X209401000Y-135094000D03*
X209401000Y-137634000D03*
X209401000Y-124934000D03*
X209401000Y-122394000D03*
X209401000Y-119854000D03*
X211941000Y-137634000D03*
X214481000Y-137634000D03*
X217021000Y-137634000D03*
X219561000Y-137634000D03*
X222101000Y-137634000D03*
X224641000Y-137634000D03*
X227181000Y-137634000D03*
X229721000Y-137634000D03*
X211941000Y-140174000D03*
X214481000Y-140174000D03*
X217021000Y-140174000D03*
X219561000Y-140174000D03*
X222101000Y-140174000D03*
X224641000Y-140174000D03*
X227181000Y-140174000D03*
X229721000Y-140174000D03*
X232261000Y-140174000D03*
X232261000Y-137634000D03*
X232261000Y-135094000D03*
X232261000Y-132554000D03*
X232261000Y-130014000D03*
X232261000Y-127474000D03*
X232261000Y-124934000D03*
X232261000Y-122394000D03*
X232261000Y-119854000D03*
X232261000Y-114774000D03*
X234801000Y-137634000D03*
X234801000Y-135094000D03*
X234801000Y-132554000D03*
X234801000Y-130014000D03*
X234801000Y-127474000D03*
X234801000Y-124934000D03*
X234801000Y-122394000D03*
X234801000Y-119854000D03*
X234801000Y-117314000D03*
X232261000Y-117314000D03*
X229721000Y-117314000D03*
X227181000Y-117314000D03*
X224641000Y-117314000D03*
X222101000Y-117314000D03*
X219561000Y-117314000D03*
X217021000Y-117314000D03*
X214481000Y-117314000D03*
X209401000Y-117314000D03*
X229721000Y-114774000D03*
X227181000Y-114774000D03*
X224641000Y-114774000D03*
X222101000Y-114774000D03*
X219561000Y-114774000D03*
X217021000Y-114774000D03*
X214481000Y-114774000D03*
X211941000Y-114774000D03*
%TD*%
D29*
%TO.C,IC7*%
X105921400Y-113174000D03*
X98301400Y-136034000D03*
X105921400Y-115714000D03*
X98301400Y-133494000D03*
X105921400Y-118254000D03*
X98301400Y-130954000D03*
X105921400Y-120794000D03*
X98301400Y-128414000D03*
X105921400Y-123334000D03*
X98301400Y-125874000D03*
X105921400Y-125874000D03*
X98301400Y-123334000D03*
X105921400Y-128414000D03*
X98301400Y-120794000D03*
X105921400Y-130954000D03*
X98301400Y-118254000D03*
X105921400Y-133494000D03*
X98301400Y-115714000D03*
X105921400Y-136034000D03*
D18*
X98301400Y-113174000D03*
%TD*%
D29*
%TO.C,IC8*%
X62021400Y-135774000D03*
X54401400Y-153554000D03*
X62021400Y-138314000D03*
X54401400Y-151014000D03*
X62021400Y-140854000D03*
X54401400Y-148474000D03*
X62021400Y-143394000D03*
X54401400Y-145934000D03*
X62021400Y-145934000D03*
X54401400Y-143394000D03*
X62021400Y-148474000D03*
X54401400Y-140854000D03*
X62021400Y-151014000D03*
X54401400Y-138314000D03*
X62021400Y-153554000D03*
D18*
X54401400Y-135774000D03*
%TD*%
%TO.C,IC9*%
X241601000Y-130854000D03*
D29*
X249221000Y-148634000D03*
X241601000Y-133394000D03*
X249221000Y-146094000D03*
X241601000Y-135934000D03*
X249221000Y-143554000D03*
X241601000Y-138474000D03*
X249221000Y-141014000D03*
X241601000Y-141014000D03*
X249221000Y-138474000D03*
X241601000Y-143554000D03*
X249221000Y-135934000D03*
X241601000Y-146094000D03*
X249221000Y-133394000D03*
X241601000Y-148634000D03*
X249221000Y-130854000D03*
%TD*%
%TO.C,IC10*%
X183601000Y-92074000D03*
X206461000Y-99694000D03*
X186141000Y-92074000D03*
X203921000Y-99694000D03*
X188681000Y-92074000D03*
X201381000Y-99694000D03*
X191221000Y-92074000D03*
X198841000Y-99694000D03*
X193761000Y-92074000D03*
X196301000Y-99694000D03*
X196301000Y-92074000D03*
X193761000Y-99694000D03*
X198841000Y-92074000D03*
X191221000Y-99694000D03*
X201381000Y-92074000D03*
X188681000Y-99694000D03*
X203921000Y-92074000D03*
X186141000Y-99694000D03*
X206461000Y-92074000D03*
D18*
X183601000Y-99694000D03*
%TD*%
%TO.C,IC11*%
X153101000Y-68704000D03*
D29*
X175961000Y-61084000D03*
X155641000Y-68704000D03*
X173421000Y-61084000D03*
X158181000Y-68704000D03*
X170881000Y-61084000D03*
X160721000Y-68704000D03*
X168341000Y-61084000D03*
X163261000Y-68704000D03*
X165801000Y-61084000D03*
X165801000Y-68704000D03*
X163261000Y-61084000D03*
X168341000Y-68704000D03*
X160721000Y-61084000D03*
X170881000Y-68704000D03*
X158181000Y-61084000D03*
X173421000Y-68704000D03*
X155641000Y-61084000D03*
X175961000Y-68704000D03*
X153101000Y-61084000D03*
%TD*%
%TO.C,IC12*%
X153101000Y-92004000D03*
X175961000Y-99624000D03*
X155641000Y-92004000D03*
X173421000Y-99624000D03*
X158181000Y-92004000D03*
X170881000Y-99624000D03*
X160721000Y-92004000D03*
X168341000Y-99624000D03*
X163261000Y-92004000D03*
X165801000Y-99624000D03*
X165801000Y-92004000D03*
X163261000Y-99624000D03*
X168341000Y-92004000D03*
X160721000Y-99624000D03*
X170881000Y-92004000D03*
X158181000Y-99624000D03*
X173421000Y-92004000D03*
X155641000Y-99624000D03*
X175961000Y-92004000D03*
D18*
X153101000Y-99624000D03*
%TD*%
%TO.C,IC13*%
X153101000Y-83884000D03*
D29*
X175961000Y-76264000D03*
X155641000Y-83884000D03*
X173421000Y-76264000D03*
X158181000Y-83884000D03*
X170881000Y-76264000D03*
X160721000Y-83884000D03*
X168341000Y-76264000D03*
X163261000Y-83884000D03*
X165801000Y-76264000D03*
X165801000Y-83884000D03*
X163261000Y-76264000D03*
X168341000Y-83884000D03*
X160721000Y-76264000D03*
X170881000Y-83884000D03*
X158181000Y-76264000D03*
X173421000Y-83884000D03*
X155641000Y-76264000D03*
X175961000Y-83884000D03*
X153101000Y-76264000D03*
%TD*%
%TO.C,IC14*%
X161931000Y-132914000D03*
X177171000Y-140534000D03*
X164471000Y-132914000D03*
X174631000Y-140534000D03*
X167011000Y-132914000D03*
X172091000Y-140534000D03*
X169551000Y-132914000D03*
X169551000Y-140534000D03*
X172091000Y-132914000D03*
X167011000Y-140534000D03*
X174631000Y-132914000D03*
X164471000Y-140534000D03*
X177171000Y-132914000D03*
D18*
X161931000Y-140534000D03*
%TD*%
%TO.C,IC15*%
X161931000Y-153324000D03*
D29*
X177171000Y-145704000D03*
X164471000Y-153324000D03*
X174631000Y-145704000D03*
X167011000Y-153324000D03*
X172091000Y-145704000D03*
X169551000Y-153324000D03*
X169551000Y-145704000D03*
X172091000Y-153324000D03*
X167011000Y-145704000D03*
X174631000Y-153324000D03*
X164471000Y-145704000D03*
X177171000Y-153324000D03*
X161931000Y-145704000D03*
%TD*%
%TO.C,IC16*%
X128751000Y-76264000D03*
X149071000Y-83884000D03*
X131291000Y-76264000D03*
X146531000Y-83884000D03*
X133831000Y-76264000D03*
X143991000Y-83884000D03*
X136371000Y-76264000D03*
X141451000Y-83884000D03*
X138911000Y-76264000D03*
X138911000Y-83884000D03*
X141451000Y-76264000D03*
X136371000Y-83884000D03*
X143991000Y-76264000D03*
X133831000Y-83884000D03*
X146531000Y-76264000D03*
X131291000Y-83884000D03*
X149071000Y-76264000D03*
D18*
X128751000Y-83884000D03*
%TD*%
%TO.C,IC17*%
X128751000Y-99624000D03*
D29*
X149071000Y-92004000D03*
X131291000Y-99624000D03*
X146531000Y-92004000D03*
X133831000Y-99624000D03*
X143991000Y-92004000D03*
X136371000Y-99624000D03*
X141451000Y-92004000D03*
X138911000Y-99624000D03*
X138911000Y-92004000D03*
X141451000Y-99624000D03*
X136371000Y-92004000D03*
X143991000Y-99624000D03*
X133831000Y-92004000D03*
X146531000Y-99624000D03*
X131291000Y-92004000D03*
X149071000Y-99624000D03*
X128751000Y-92004000D03*
%TD*%
D18*
%TO.C,IC18*%
X128751000Y-53974000D03*
D29*
X149071000Y-46354000D03*
X131291000Y-53974000D03*
X146531000Y-46354000D03*
X133831000Y-53974000D03*
X143991000Y-46354000D03*
X136371000Y-53974000D03*
X141451000Y-46354000D03*
X138911000Y-53974000D03*
X138911000Y-46354000D03*
X141451000Y-53974000D03*
X136371000Y-46354000D03*
X143991000Y-53974000D03*
X133831000Y-46354000D03*
X146531000Y-53974000D03*
X131291000Y-46354000D03*
X149071000Y-53974000D03*
X128751000Y-46354000D03*
%TD*%
%TO.C,IC19*%
X128751000Y-61084000D03*
X149071000Y-68704000D03*
X131291000Y-61084000D03*
X146531000Y-68704000D03*
X133831000Y-61084000D03*
X143991000Y-68704000D03*
X136371000Y-61084000D03*
X141451000Y-68704000D03*
X138911000Y-61084000D03*
X138911000Y-68704000D03*
X141451000Y-61084000D03*
X136371000Y-68704000D03*
X143991000Y-61084000D03*
X133831000Y-68704000D03*
X146531000Y-61084000D03*
X131291000Y-68704000D03*
X149071000Y-61084000D03*
D18*
X128751000Y-68704000D03*
%TD*%
D34*
%TO.C,IC36*%
X104201000Y-102474000D03*
D35*
X101661000Y-102474000D03*
X102931000Y-102474000D03*
%TD*%
D14*
%TO.C,CN2*%
X192541000Y-121984000D03*
X190001000Y-121984000D03*
X187461000Y-121984000D03*
X184921000Y-121984000D03*
X182381000Y-121984000D03*
X179841000Y-121984000D03*
X177301000Y-121984000D03*
X174761000Y-121984000D03*
X172221000Y-121984000D03*
X169681000Y-121984000D03*
X167141000Y-121984000D03*
X164601000Y-121984000D03*
X162061000Y-121984000D03*
X159521000Y-121984000D03*
X156981000Y-121984000D03*
D13*
X154441000Y-121984000D03*
%TD*%
D10*
%TO.C,JK1*%
X112921000Y-18964000D03*
X102921000Y-18964000D03*
X107921000Y-33964000D03*
X115421000Y-28964000D03*
D20*
X115421000Y-23964000D03*
X100421000Y-23964000D03*
D10*
X102921000Y-31464000D03*
X112921000Y-31464000D03*
D36*
X100421000Y-28964000D03*
D10*
X107921000Y-28964000D03*
X105421000Y-18964000D03*
X110421000Y-18964000D03*
%TD*%
%TO.C,JK2*%
X133421000Y-18964000D03*
X128421000Y-18964000D03*
X130921000Y-28964000D03*
D36*
X123421000Y-28964000D03*
D10*
X135921000Y-31464000D03*
X125921000Y-31464000D03*
D20*
X123421000Y-23964000D03*
X138421000Y-23964000D03*
D10*
X138421000Y-28964000D03*
X130921000Y-33964000D03*
X125921000Y-18964000D03*
X135921000Y-18964000D03*
%TD*%
%TO.C,JK3*%
X156421000Y-18964000D03*
X151421000Y-18964000D03*
X158921000Y-28964000D03*
D36*
X148921000Y-28964000D03*
D10*
X156421000Y-31464000D03*
X151421000Y-31464000D03*
D20*
X146421000Y-23964000D03*
X161421000Y-23964000D03*
D10*
X148921000Y-18964000D03*
X158921000Y-18964000D03*
D36*
X146421000Y-28964000D03*
D10*
X161421000Y-28964000D03*
X158921000Y-31464000D03*
X148921000Y-31464000D03*
%TD*%
%TO.C,JK4*%
X179451000Y-18964000D03*
X174451000Y-18964000D03*
X176951000Y-28964000D03*
D36*
X169451000Y-28964000D03*
D10*
X181951000Y-31464000D03*
X171951000Y-31464000D03*
D20*
X169451000Y-23964000D03*
X184451000Y-23964000D03*
D10*
X184451000Y-28964000D03*
X181951000Y-18964000D03*
X171951000Y-18964000D03*
%TD*%
D37*
%TO.C,L1*%
X198451000Y-128124000D03*
D38*
X198451000Y-140824000D03*
%TD*%
D29*
%TO.C,MP1*%
X296891000Y-73514000D03*
X296891000Y-76054000D03*
X296891000Y-78594000D03*
X296891000Y-81134000D03*
X296891000Y-83674000D03*
X296891000Y-86214000D03*
X296891000Y-88754000D03*
X296891000Y-91294000D03*
X296891000Y-93834000D03*
D18*
X296891000Y-96374000D03*
%TD*%
D29*
%TO.C,MP2*%
X293451000Y-73624000D03*
X293451000Y-76164000D03*
X293451000Y-78704000D03*
X293451000Y-81244000D03*
X293451000Y-83784000D03*
X293451000Y-86324000D03*
X293451000Y-88864000D03*
X293451000Y-91404000D03*
D18*
X293451000Y-93944000D03*
%TD*%
D39*
%TO.C,Q1*%
X46141400Y-118557000D03*
D40*
X62801400Y-121097000D03*
D41*
X62801400Y-118557000D03*
X62801400Y-116017000D03*
%TD*%
D35*
%TO.C,Q2*%
X237361000Y-35174000D03*
X238631000Y-35174000D03*
D34*
X236091000Y-35174000D03*
%TD*%
D42*
%TO.C,Q3*%
X229491000Y-74724000D03*
D43*
X229491000Y-77264000D03*
X229491000Y-75994000D03*
%TD*%
D34*
%TO.C,Q4*%
X246591000Y-34224000D03*
D35*
X244051000Y-34224000D03*
X245321000Y-34224000D03*
%TD*%
D43*
%TO.C,Q5*%
X284301000Y-133094000D03*
X284301000Y-134364000D03*
D42*
X284301000Y-131824000D03*
%TD*%
%TO.C,Q6*%
X289301000Y-131824000D03*
D43*
X289301000Y-134364000D03*
X289301000Y-133094000D03*
%TD*%
%TO.C,Q7*%
X294301000Y-133094000D03*
X294301000Y-134364000D03*
D42*
X294301000Y-131824000D03*
%TD*%
D29*
%TO.C,R1*%
X293826000Y-45624000D03*
D17*
X293826000Y-35464000D03*
%TD*%
D29*
%TO.C,R2*%
X281326000Y-45624000D03*
D17*
X281326000Y-35464000D03*
%TD*%
%TO.C,R3*%
X284451000Y-35464000D03*
D29*
X284451000Y-45624000D03*
%TD*%
D17*
%TO.C,R4*%
X287576000Y-35464000D03*
D29*
X287576000Y-45624000D03*
%TD*%
%TO.C,R5*%
X290701000Y-45624000D03*
D17*
X290701000Y-35464000D03*
%TD*%
D29*
%TO.C,R6*%
X155001000Y-155814000D03*
D17*
X155001000Y-165974000D03*
%TD*%
D29*
%TO.C,R7*%
X105161400Y-159474000D03*
D17*
X95001400Y-159474000D03*
%TD*%
%TO.C,R8*%
X230901000Y-96424000D03*
D29*
X230901000Y-106584000D03*
%TD*%
D17*
%TO.C,R9*%
X213651000Y-157794000D03*
D29*
X213651000Y-145094000D03*
%TD*%
D17*
%TO.C,R10*%
X209801000Y-157794000D03*
D29*
X209801000Y-145094000D03*
%TD*%
%TO.C,R11*%
X287801000Y-102964000D03*
D17*
X287801000Y-113124000D03*
%TD*%
%TO.C,R12*%
X95001400Y-156374000D03*
D29*
X105161400Y-156374000D03*
%TD*%
D44*
%TO.C,R13*%
X157201000Y-39874000D03*
D20*
X157201000Y-52574000D03*
%TD*%
%TO.C,R14*%
X161501000Y-52574000D03*
D44*
X161501000Y-39874000D03*
%TD*%
D29*
%TO.C,R16*%
X73501400Y-164534000D03*
D17*
X73501400Y-154374000D03*
%TD*%
%TO.C,R17*%
X70401400Y-164534000D03*
D29*
X70401400Y-154374000D03*
%TD*%
%TO.C,R18*%
X77141400Y-149974000D03*
D17*
X87301400Y-149974000D03*
%TD*%
D44*
%TO.C,R19*%
X47601400Y-136434000D03*
D20*
X47601400Y-151674000D03*
%TD*%
D17*
%TO.C,R20*%
X51201400Y-148174000D03*
D29*
X51201400Y-138014000D03*
%TD*%
%TO.C,R21*%
X151901000Y-165974000D03*
D17*
X151901000Y-155814000D03*
%TD*%
%TO.C,R22*%
X185401000Y-126274000D03*
D29*
X185401000Y-136434000D03*
%TD*%
D17*
%TO.C,R23*%
X190101000Y-126274000D03*
D29*
X190101000Y-136434000D03*
%TD*%
%TO.C,R26*%
X235031000Y-73044000D03*
D17*
X245191000Y-73044000D03*
%TD*%
D29*
%TO.C,R27*%
X245181000Y-82224000D03*
D17*
X235021000Y-82224000D03*
%TD*%
%TO.C,R28*%
X235031000Y-76104000D03*
D29*
X245191000Y-76104000D03*
%TD*%
%TO.C,R29*%
X235021000Y-79174000D03*
D17*
X245181000Y-79174000D03*
%TD*%
D29*
%TO.C,R30*%
X231491000Y-50604000D03*
D17*
X241651000Y-50604000D03*
%TD*%
D29*
%TO.C,R31*%
X251041000Y-40364000D03*
D17*
X251041000Y-50524000D03*
%TD*%
D29*
%TO.C,R32*%
X254461000Y-29364000D03*
D17*
X254461000Y-39524000D03*
%TD*%
D29*
%TO.C,R33*%
X248011000Y-40364000D03*
D17*
X248011000Y-50524000D03*
%TD*%
%TO.C,R34*%
X244881000Y-40364000D03*
D29*
X244881000Y-50524000D03*
%TD*%
D17*
%TO.C,R35*%
X257501000Y-39524000D03*
D29*
X257501000Y-29364000D03*
%TD*%
%TO.C,R36*%
X260561000Y-29354000D03*
D17*
X260561000Y-39514000D03*
%TD*%
%TO.C,R38*%
X282301000Y-129074000D03*
D29*
X282301000Y-118914000D03*
%TD*%
%TO.C,R39*%
X285301000Y-118914000D03*
D17*
X285301000Y-129074000D03*
%TD*%
%TO.C,R40*%
X283801000Y-156574000D03*
D29*
X273641000Y-156574000D03*
%TD*%
%TO.C,R42*%
X282301000Y-139414000D03*
D17*
X282301000Y-149574000D03*
%TD*%
%TO.C,R43*%
X285301000Y-149574000D03*
D29*
X285301000Y-139414000D03*
%TD*%
D17*
%TO.C,R45*%
X288301000Y-129074000D03*
D29*
X288301000Y-118914000D03*
%TD*%
%TO.C,R46*%
X291301000Y-118914000D03*
D17*
X291301000Y-129074000D03*
%TD*%
D29*
%TO.C,R47*%
X273641000Y-159824000D03*
D17*
X283801000Y-159824000D03*
%TD*%
%TO.C,R49*%
X288301000Y-149574000D03*
D29*
X288301000Y-139414000D03*
%TD*%
D17*
%TO.C,R50*%
X291301000Y-149574000D03*
D29*
X291301000Y-139414000D03*
%TD*%
D17*
%TO.C,R52*%
X294301000Y-129074000D03*
D29*
X294301000Y-118914000D03*
%TD*%
D17*
%TO.C,R53*%
X297301000Y-129074000D03*
D29*
X297301000Y-118914000D03*
%TD*%
%TO.C,R54*%
X273641000Y-162824000D03*
D17*
X283801000Y-162824000D03*
%TD*%
D29*
%TO.C,R56*%
X294301000Y-139414000D03*
D17*
X294301000Y-149574000D03*
%TD*%
D29*
%TO.C,R57*%
X297301000Y-139414000D03*
D17*
X297301000Y-149574000D03*
%TD*%
%TO.C,R59*%
X105161000Y-150474000D03*
D29*
X95001000Y-150474000D03*
%TD*%
D17*
%TO.C,R60*%
X230001000Y-37044000D03*
D29*
X230001000Y-26884000D03*
%TD*%
%TO.C,R61*%
X95001000Y-145574000D03*
D17*
X105161000Y-145574000D03*
%TD*%
%TO.C,R62*%
X105161000Y-142574000D03*
D29*
X95001000Y-142574000D03*
%TD*%
%TO.C,R63*%
X194201000Y-141024000D03*
D17*
X194201000Y-128324000D03*
%TD*%
D29*
%TO.C,R65*%
X186051000Y-160384000D03*
D17*
X186051000Y-150224000D03*
%TD*%
%TO.C,R66*%
X62101400Y-156374000D03*
D29*
X62101400Y-166534000D03*
%TD*%
D17*
%TO.C,R68*%
X240781000Y-85274000D03*
D29*
X230621000Y-85274000D03*
%TD*%
D17*
%TO.C,R69*%
X241651000Y-56694000D03*
D29*
X231491000Y-56694000D03*
%TD*%
%TO.C,R70*%
X241651000Y-53644000D03*
D17*
X231491000Y-53644000D03*
%TD*%
%TO.C,R71*%
X241651000Y-47574000D03*
D29*
X231491000Y-47574000D03*
%TD*%
%TO.C,R72*%
X231491000Y-44544000D03*
D17*
X241651000Y-44544000D03*
%TD*%
D10*
%TO.C,RY1*%
X183781000Y-45014000D03*
D36*
X183781000Y-37394000D03*
D10*
X171081000Y-37394000D03*
X172605000Y-45014000D03*
X168541000Y-45014000D03*
%TD*%
D45*
%TO.C,SW1*%
X86041400Y-33274000D03*
X86041400Y-37274000D03*
X86041400Y-41274000D03*
X92041400Y-33274000D03*
X92041400Y-37274000D03*
X92041400Y-41274000D03*
%TD*%
D46*
%TO.C,SW2*%
X277751400Y-18534000D03*
X282251400Y-18534000D03*
D47*
X276501400Y-21034000D03*
X283501400Y-21034000D03*
%TD*%
D48*
%TO.C,SW3*%
X229451400Y-19254000D03*
X239151400Y-19254000D03*
D49*
X232301400Y-19254000D03*
X236301400Y-19254000D03*
X234301400Y-19254000D03*
%TD*%
D50*
%TO.C,TC1*%
X186851000Y-140674000D03*
X186851000Y-145674000D03*
%TD*%
D51*
%TO.C,X1*%
X191051000Y-154524000D03*
X193551000Y-154524000D03*
%TD*%
D18*
%TO.C,IC2*%
X256881000Y-115374000D03*
D29*
X272121000Y-148394000D03*
X256881000Y-117914000D03*
X272121000Y-145854000D03*
X256881000Y-120454000D03*
X272121000Y-143314000D03*
X256881000Y-122994000D03*
X272121000Y-140774000D03*
X256881000Y-125534000D03*
X272121000Y-138234000D03*
X256881000Y-128074000D03*
X272121000Y-135694000D03*
X256881000Y-130614000D03*
X272121000Y-133154000D03*
X256881000Y-133154000D03*
X272121000Y-130614000D03*
X256881000Y-135694000D03*
X272121000Y-128074000D03*
X256881000Y-138234000D03*
X272121000Y-125534000D03*
X256881000Y-140774000D03*
X272121000Y-122994000D03*
X256881000Y-143314000D03*
X272121000Y-120454000D03*
X256881000Y-145854000D03*
X272121000Y-117914000D03*
X256881000Y-148394000D03*
X272121000Y-115374000D03*
%TD*%
D52*
%TO.C,H1*%
X45801400Y-166574000D03*
%TD*%
%TO.C,H2*%
X315801000Y-166574000D03*
%TD*%
D17*
%TO.C,C52*%
X232791000Y-91684000D03*
D29*
X242791000Y-91684000D03*
%TD*%
%TO.C,C5*%
X280801000Y-56574000D03*
D17*
X290801000Y-56574000D03*
%TD*%
%TO.C,C53*%
X231491000Y-41194000D03*
D29*
X241491000Y-41194000D03*
%TD*%
D17*
%TO.C,C57*%
X295051000Y-160824000D03*
D29*
X305051000Y-160824000D03*
%TD*%
D53*
%TO.C,FB10*%
X126356000Y-41664000D03*
X117986000Y-41664000D03*
%TD*%
%TO.C,FB1*%
X98931000Y-84774000D03*
X107301000Y-84774000D03*
%TD*%
%TO.C,FB2*%
X107301000Y-89074000D03*
X98931000Y-89074000D03*
%TD*%
%TO.C,FB5*%
X245401000Y-109059000D03*
X245401000Y-100689000D03*
%TD*%
%TO.C,FB6*%
X152951000Y-45439000D03*
X152951000Y-37069000D03*
%TD*%
%TO.C,FB7*%
X79111400Y-140374000D03*
X87481400Y-140374000D03*
%TD*%
%TO.C,FB8*%
X165136000Y-36124000D03*
X156766000Y-36124000D03*
%TD*%
%TO.C,FB9*%
X126356000Y-37264000D03*
X117986000Y-37264000D03*
%TD*%
D54*
%TO.C,R15*%
X87401400Y-145974000D03*
D55*
X79781400Y-145974000D03*
%TD*%
D17*
%TO.C,R64*%
X278201000Y-45624000D03*
D29*
X278201000Y-35464000D03*
%TD*%
D17*
%TO.C,R24*%
X92801400Y-132074000D03*
D29*
X82641400Y-132074000D03*
%TD*%
M02*
