%TF.GenerationSoftware,KiCad,Pcbnew,5.1.5+dfsg1-2build2*%
%TF.CreationDate,2021-10-05T23:16:15-04:00*%
%TF.ProjectId,coco3,636f636f-332e-46b6-9963-61645f706362,1.1.0*%
%TF.SameCoordinates,Original*%
%TF.FileFunction,Legend,Bot*%
%TF.FilePolarity,Positive*%
%FSLAX46Y46*%
G04 Gerber Fmt 4.6, Leading zero omitted, Abs format (unit mm)*
G04 Created by KiCad (PCBNEW 5.1.5+dfsg1-2build2) date 2021-10-05 23:16:15*
%MOMM*%
%LPD*%
G04 APERTURE LIST*
%ADD10C,0.150000*%
%ADD11C,0.152400*%
%ADD12C,0.120000*%
G04 APERTURE END LIST*
D10*
X305515685Y-156826380D02*
X306087114Y-156826380D01*
X305801400Y-156826380D02*
X305801400Y-155826380D01*
X305896638Y-155969238D01*
X305991876Y-156064476D01*
X306087114Y-156112095D01*
X306087114Y-152921619D02*
X306039495Y-152874000D01*
X305944257Y-152826380D01*
X305706161Y-152826380D01*
X305610923Y-152874000D01*
X305563304Y-152921619D01*
X305515685Y-153016857D01*
X305515685Y-153112095D01*
X305563304Y-153254952D01*
X306134733Y-153826380D01*
X305515685Y-153826380D01*
X289991876Y-153626380D02*
X290563304Y-153626380D01*
X290277590Y-153626380D02*
X290277590Y-152626380D01*
X290372828Y-152769238D01*
X290468066Y-152864476D01*
X290563304Y-152912095D01*
X289372828Y-152626380D02*
X289277590Y-152626380D01*
X289182352Y-152674000D01*
X289134733Y-152721619D01*
X289087114Y-152816857D01*
X289039495Y-153007333D01*
X289039495Y-153245428D01*
X289087114Y-153435904D01*
X289134733Y-153531142D01*
X289182352Y-153578761D01*
X289277590Y-153626380D01*
X289372828Y-153626380D01*
X289468066Y-153578761D01*
X289515685Y-153531142D01*
X289563304Y-153435904D01*
X289610923Y-153245428D01*
X289610923Y-153007333D01*
X289563304Y-152816857D01*
X289515685Y-152721619D01*
X289468066Y-152674000D01*
X289372828Y-152626380D01*
X290391876Y-156826380D02*
X290201400Y-156826380D01*
X290106161Y-156778761D01*
X290058542Y-156731142D01*
X289963304Y-156588285D01*
X289915685Y-156397809D01*
X289915685Y-156016857D01*
X289963304Y-155921619D01*
X290010923Y-155874000D01*
X290106161Y-155826380D01*
X290296638Y-155826380D01*
X290391876Y-155874000D01*
X290439495Y-155921619D01*
X290487114Y-156016857D01*
X290487114Y-156254952D01*
X290439495Y-156350190D01*
X290391876Y-156397809D01*
X290296638Y-156445428D01*
X290106161Y-156445428D01*
X290010923Y-156397809D01*
X289963304Y-156350190D01*
X289915685Y-156254952D01*
X304163304Y-157974000D02*
X304258542Y-157926380D01*
X304401400Y-157926380D01*
X304544257Y-157974000D01*
X304639495Y-158069238D01*
X304687114Y-158164476D01*
X304734733Y-158354952D01*
X304734733Y-158497809D01*
X304687114Y-158688285D01*
X304639495Y-158783523D01*
X304544257Y-158878761D01*
X304401400Y-158926380D01*
X304306161Y-158926380D01*
X304163304Y-158878761D01*
X304115685Y-158831142D01*
X304115685Y-158497809D01*
X304306161Y-158497809D01*
X303687114Y-158926380D02*
X303687114Y-157926380D01*
X303115685Y-158926380D01*
X303115685Y-157926380D01*
X302639495Y-158926380D02*
X302639495Y-157926380D01*
X302401400Y-157926380D01*
X302258542Y-157974000D01*
X302163304Y-158069238D01*
X302115685Y-158164476D01*
X302068066Y-158354952D01*
X302068066Y-158497809D01*
X302115685Y-158688285D01*
X302163304Y-158783523D01*
X302258542Y-158878761D01*
X302401400Y-158926380D01*
X302639495Y-158926380D01*
X303863304Y-150474000D02*
X303958542Y-150426380D01*
X304101400Y-150426380D01*
X304244257Y-150474000D01*
X304339495Y-150569238D01*
X304387114Y-150664476D01*
X304434733Y-150854952D01*
X304434733Y-150997809D01*
X304387114Y-151188285D01*
X304339495Y-151283523D01*
X304244257Y-151378761D01*
X304101400Y-151426380D01*
X304006161Y-151426380D01*
X303863304Y-151378761D01*
X303815685Y-151331142D01*
X303815685Y-150997809D01*
X304006161Y-150997809D01*
X303387114Y-151426380D02*
X303387114Y-150426380D01*
X302815685Y-151426380D01*
X302815685Y-150426380D01*
X302339495Y-151426380D02*
X302339495Y-150426380D01*
X302101400Y-150426380D01*
X301958542Y-150474000D01*
X301863304Y-150569238D01*
X301815685Y-150664476D01*
X301768066Y-150854952D01*
X301768066Y-150997809D01*
X301815685Y-151188285D01*
X301863304Y-151283523D01*
X301958542Y-151378761D01*
X302101400Y-151426380D01*
X302339495Y-151426380D01*
X300191876Y-158926380D02*
X300525209Y-158450190D01*
X300763304Y-158926380D02*
X300763304Y-157926380D01*
X300382352Y-157926380D01*
X300287114Y-157974000D01*
X300239495Y-158021619D01*
X300191876Y-158116857D01*
X300191876Y-158259714D01*
X300239495Y-158354952D01*
X300287114Y-158402571D01*
X300382352Y-158450190D01*
X300763304Y-158450190D01*
X297729971Y-158402571D02*
X297587114Y-158450190D01*
X297539495Y-158497809D01*
X297491876Y-158593047D01*
X297491876Y-158735904D01*
X297539495Y-158831142D01*
X297587114Y-158878761D01*
X297682352Y-158926380D01*
X298063304Y-158926380D01*
X298063304Y-157926380D01*
X297729971Y-157926380D01*
X297634733Y-157974000D01*
X297587114Y-158021619D01*
X297539495Y-158116857D01*
X297539495Y-158212095D01*
X297587114Y-158307333D01*
X297634733Y-158354952D01*
X297729971Y-158402571D01*
X298063304Y-158402571D01*
X296610923Y-158878761D02*
X296468066Y-158926380D01*
X296229971Y-158926380D01*
X296134733Y-158878761D01*
X296087114Y-158831142D01*
X296039495Y-158735904D01*
X296039495Y-158640666D01*
X296087114Y-158545428D01*
X296134733Y-158497809D01*
X296229971Y-158450190D01*
X296420447Y-158402571D01*
X296515685Y-158354952D01*
X296563304Y-158307333D01*
X296610923Y-158212095D01*
X296610923Y-158116857D01*
X296563304Y-158021619D01*
X296515685Y-157974000D01*
X296420447Y-157926380D01*
X296182352Y-157926380D01*
X296039495Y-157974000D01*
X295610923Y-158926380D02*
X295610923Y-157926380D01*
X295039495Y-158926380D01*
X295039495Y-157926380D01*
X294563304Y-158926380D02*
X294563304Y-157926380D01*
X294325209Y-157926380D01*
X294182352Y-157974000D01*
X294087114Y-158069238D01*
X294039495Y-158164476D01*
X293991876Y-158354952D01*
X293991876Y-158497809D01*
X294039495Y-158688285D01*
X294087114Y-158783523D01*
X294182352Y-158878761D01*
X294325209Y-158926380D01*
X294563304Y-158926380D01*
X292810923Y-157926380D02*
X292477590Y-158926380D01*
X292144257Y-157926380D01*
X291858542Y-158878761D02*
X291715685Y-158926380D01*
X291477590Y-158926380D01*
X291382352Y-158878761D01*
X291334733Y-158831142D01*
X291287114Y-158735904D01*
X291287114Y-158640666D01*
X291334733Y-158545428D01*
X291382352Y-158497809D01*
X291477590Y-158450190D01*
X291668066Y-158402571D01*
X291763304Y-158354952D01*
X291810923Y-158307333D01*
X291858542Y-158212095D01*
X291858542Y-158116857D01*
X291810923Y-158021619D01*
X291763304Y-157974000D01*
X291668066Y-157926380D01*
X291429971Y-157926380D01*
X291287114Y-157974000D01*
X296187114Y-151581142D02*
X296187114Y-150681142D01*
X296187114Y-151109714D02*
X295672828Y-151109714D01*
X295672828Y-151581142D02*
X295672828Y-150681142D01*
X295287114Y-151538285D02*
X295158542Y-151581142D01*
X294944257Y-151581142D01*
X294858542Y-151538285D01*
X294815685Y-151495428D01*
X294772828Y-151409714D01*
X294772828Y-151324000D01*
X294815685Y-151238285D01*
X294858542Y-151195428D01*
X294944257Y-151152571D01*
X295115685Y-151109714D01*
X295201400Y-151066857D01*
X295244257Y-151024000D01*
X295287114Y-150938285D01*
X295287114Y-150852571D01*
X295244257Y-150766857D01*
X295201400Y-150724000D01*
X295115685Y-150681142D01*
X294901400Y-150681142D01*
X294772828Y-150724000D01*
X300239495Y-150574000D02*
X300334733Y-150526380D01*
X300477590Y-150526380D01*
X300620447Y-150574000D01*
X300715685Y-150669238D01*
X300763304Y-150764476D01*
X300810923Y-150954952D01*
X300810923Y-151097809D01*
X300763304Y-151288285D01*
X300715685Y-151383523D01*
X300620447Y-151478761D01*
X300477590Y-151526380D01*
X300382352Y-151526380D01*
X300239495Y-151478761D01*
X300191876Y-151431142D01*
X300191876Y-151097809D01*
X300382352Y-151097809D01*
D11*
%TO.C,CN1*%
X307632000Y-60699000D02*
G75*
G03X307632000Y-60699000I-381000J0D01*
G01*
D12*
%TO.C,CN3*%
X304331000Y-157404000D02*
X304331000Y-156074000D01*
X303001000Y-157404000D02*
X304331000Y-157404000D01*
X304331000Y-154804000D02*
X304331000Y-152204000D01*
X301731000Y-154804000D02*
X304331000Y-154804000D01*
X301731000Y-157404000D02*
X301731000Y-154804000D01*
X304331000Y-152204000D02*
X291511000Y-152204000D01*
X301731000Y-157404000D02*
X291511000Y-157404000D01*
X291511000Y-157404000D02*
X291511000Y-152204000D01*
%TO.C,CN1*%
D10*
X299923380Y-103343523D02*
X299923380Y-102724476D01*
X300304333Y-103057809D01*
X300304333Y-102914952D01*
X300351952Y-102819714D01*
X300399571Y-102772095D01*
X300494809Y-102724476D01*
X300732904Y-102724476D01*
X300828142Y-102772095D01*
X300875761Y-102819714D01*
X300923380Y-102914952D01*
X300923380Y-103200666D01*
X300875761Y-103295904D01*
X300828142Y-103343523D01*
X300923380Y-102248285D02*
X300923380Y-102057809D01*
X300875761Y-101962571D01*
X300828142Y-101914952D01*
X300685285Y-101819714D01*
X300494809Y-101772095D01*
X300113857Y-101772095D01*
X300018619Y-101819714D01*
X299971000Y-101867333D01*
X299923380Y-101962571D01*
X299923380Y-102153047D01*
X299971000Y-102248285D01*
X300018619Y-102295904D01*
X300113857Y-102343523D01*
X300351952Y-102343523D01*
X300447190Y-102295904D01*
X300494809Y-102248285D01*
X300542428Y-102153047D01*
X300542428Y-101962571D01*
X300494809Y-101867333D01*
X300447190Y-101819714D01*
X300351952Y-101772095D01*
X307016714Y-103559714D02*
X307683380Y-103559714D01*
X306635761Y-103797809D02*
X307350047Y-104035904D01*
X307350047Y-103416857D01*
X306683380Y-102845428D02*
X306683380Y-102750190D01*
X306731000Y-102654952D01*
X306778619Y-102607333D01*
X306873857Y-102559714D01*
X307064333Y-102512095D01*
X307302428Y-102512095D01*
X307492904Y-102559714D01*
X307588142Y-102607333D01*
X307635761Y-102654952D01*
X307683380Y-102750190D01*
X307683380Y-102845428D01*
X307635761Y-102940666D01*
X307588142Y-102988285D01*
X307492904Y-103035904D01*
X307302428Y-103083523D01*
X307064333Y-103083523D01*
X306873857Y-103035904D01*
X306778619Y-102988285D01*
X306731000Y-102940666D01*
X306683380Y-102845428D01*
X301353380Y-50488285D02*
X301353380Y-51059714D01*
X301353380Y-50774000D02*
X300353380Y-50774000D01*
X300496238Y-50869238D01*
X300591476Y-50964476D01*
X300639095Y-51059714D01*
X306878619Y-49659714D02*
X306831000Y-49612095D01*
X306783380Y-49516857D01*
X306783380Y-49278761D01*
X306831000Y-49183523D01*
X306878619Y-49135904D01*
X306973857Y-49088285D01*
X307069095Y-49088285D01*
X307211952Y-49135904D01*
X307783380Y-49707333D01*
X307783380Y-49088285D01*
%TO.C,CN3*%
X307344257Y-155564476D02*
X307296638Y-155612095D01*
X307249019Y-155754952D01*
X307249019Y-155850190D01*
X307296638Y-155993047D01*
X307391876Y-156088285D01*
X307487114Y-156135904D01*
X307677590Y-156183523D01*
X307820447Y-156183523D01*
X308010923Y-156135904D01*
X308106161Y-156088285D01*
X308201400Y-155993047D01*
X308249019Y-155850190D01*
X308249019Y-155754952D01*
X308201400Y-155612095D01*
X308153780Y-155564476D01*
X307249019Y-155135904D02*
X308249019Y-155135904D01*
X307249019Y-154564476D01*
X308249019Y-154564476D01*
X308249019Y-154183523D02*
X308249019Y-153564476D01*
X307868066Y-153897809D01*
X307868066Y-153754952D01*
X307820447Y-153659714D01*
X307772828Y-153612095D01*
X307677590Y-153564476D01*
X307439495Y-153564476D01*
X307344257Y-153612095D01*
X307296638Y-153659714D01*
X307249019Y-153754952D01*
X307249019Y-154040666D01*
X307296638Y-154135904D01*
X307344257Y-154183523D01*
%TD*%
M02*
