M48
; DRILL file {KiCad 5.1.5+dfsg1-2build2} date Tue 05 Oct 2021 11:16:19 PM EDT
; FORMAT={-:-/ absolute / inch / decimal}
; #@! TF.CreationDate,2021-10-05T23:16:19-04:00
; #@! TF.GenerationSoftware,Kicad,Pcbnew,5.1.5+dfsg1-2build2
FMAT,2
INCH
T1C0.0157
T2C0.0248
T3C0.0276
T4C0.0295
T5C0.0315
T6C0.0350
T7C0.0354
T8C0.0375
T9C0.0394
T10C0.0400
T11C0.0413
T12C0.0430
T13C0.0433
T14C0.0472
T15C0.0492
T16C0.0512
T17C0.0591
T18C0.0630
T19C0.0669
T20C0.0709
T21C0.1575
T22C0.0945
T23C0.1378
%
G90
G05
T1
X3.6103Y-1.9557
X3.752Y-1.4557
X3.7931Y-4.7168
X3.7969Y-5.5095
X3.8144Y-4.5
X4.1098Y-4.5333
X4.2246Y-5.4038
X4.2967Y-5.9804
X4.2981Y-2.5781
X4.3355Y-5.4309
X4.4365Y-5.3114
X4.4813Y-4.6669
X4.4862Y-4.3677
X4.5393Y-1.443
X4.5847Y-2.6781
X4.6165Y-5.5646
X4.6699Y-1.9317
X4.7123Y-5.5057
X4.7366Y-5.8367
X4.7711Y-1.9725
X4.7725Y-5.8706
X4.7785Y-2.5705
X4.7786Y-1.8976
X4.7786Y-2.4658
X4.8038Y-4.1367
X4.896Y-5.8708
X5.0246Y-2.8844
X5.076Y-6.1406
X5.1053Y-2.9207
X5.1974Y-2.7964
X5.2458Y-2.2187
X5.255Y-5.7496
X5.3247Y-3.9861
X5.3252Y-3.7173
X5.3275Y-3.3914
X5.369Y-3.3925
X5.3954Y-3.2072
X5.4132Y-3.5494
X5.4792Y-4.2966
X5.5087Y-3.5456
X5.5335Y-4.0765
X5.5347Y-1.5226
X5.5796Y-1.1167
X5.5953Y-3.7708
X5.7689Y-3.829
X5.8846Y-5.5448
X5.9056Y-5.8454
X5.9297Y-4.5956
X5.9515Y-2.8159
X5.9619Y-4.2809
X5.9796Y-4.5361
X5.9806Y-5.5186
X6.0039Y-2.5607
X6.0046Y-4.278
X6.0146Y-4.6304
X6.018Y-3.5167
X6.0247Y-5.5479
X6.031Y-4.3323
X6.0311Y-4.2269
X6.0338Y-4.3717
X6.0434Y-3.1013
X6.112Y-3.1816
X6.1202Y-5.512
X6.123Y-3.8018
X6.1554Y-4.5158
X6.1721Y-5.6187
X6.2446Y-2.5042
X6.3326Y-5.4495
X6.3368Y-5.6267
X6.3468Y-4.2192
X6.354Y-5.8454
X6.3871Y-6.2643
X6.3937Y-4.0787
X6.4292Y-5.0698
X6.4534Y-2.2639
X6.4786Y-4.376
X6.4868Y-4.6546
X6.5388Y-3.795
X6.5528Y-3.3988
X6.5601Y-3.7606
X6.6693Y-4.2795
X6.71Y-3.1904
X6.7213Y-3.853
X6.7237Y-4.4321
X6.7361Y-4.6143
X6.7558Y-2.8766
X6.764Y-3.786
X6.8293Y-3.7315
X6.8741Y-4.8843
X6.8831Y-3.7651
X6.8989Y-4.2933
X6.9104Y-4.5193
X6.9861Y-5.6444
X7.0394Y-4.5344
X7.0637Y-2.3964
X7.1072Y-2.353
X7.1284Y-3.2117
X7.1337Y-5.6085
X7.1352Y-2.3241
X7.1731Y-4.4744
X7.2059Y-2.4442
X7.2228Y-4.4567
X7.2244Y-2.8518
X7.2256Y-2.9302
X7.2313Y-3.7552
X7.2637Y-2.9451
X7.315Y-2.8376
X7.4049Y-4.2598
X7.5057Y-4.6703
X7.5591Y-4.4651
X7.5747Y-4.3903
X7.6574Y-4.137
X7.6926Y-5.3814
X7.709Y-4.3047
X7.7542Y-3.8138
X7.764Y-5.6322
X7.7843Y-6.2427
X7.8226Y-4.8006
X7.878Y-4.6378
X7.9729Y-3.284
X7.9895Y-5.0492
X8.0633Y-3.9723
X8.0687Y-4.3572
X8.0812Y-4.3104
X8.1163Y-4.0721
X8.1498Y-5.4542
X8.155Y-4.0198
X8.1559Y-4.8069
X8.1572Y-3.7612
X8.1609Y-3.8506
X8.1948Y-3.7966
X8.2143Y-3.6372
X8.2194Y-3.9984
X8.2356Y-4.2397
X8.2564Y-6.1033
X8.2792Y-5.4581
X8.3444Y-4.4201
X8.3926Y-4.3865
X8.4246Y-4.3044
X8.4706Y-4.352
X8.5079Y-5.0187
X8.5386Y-6.0383
X8.6181Y-4.1287
X8.6995Y-5.221
X8.8151Y-5.3392
X8.8153Y-5.1006
X8.8392Y-3.9604
X8.8872Y-5.2681
X8.8949Y-1.3183
X8.9016Y-2.3242
X8.9163Y-5.5715
X8.9422Y-6.2714
X8.9914Y-4.9426
X9.0369Y-5.0048
X9.0506Y-4.922
X9.0976Y-5.3551
X9.191Y-5.3712
X9.2071Y-6.1828
X9.2966Y-5.2266
X9.332Y-4.2109
X9.3543Y-3.5288
X9.4456Y-4.8993
X9.5737Y-6.0008
X9.5741Y-4.7143
X9.5872Y-2.4778
X9.6254Y-4.6814
X9.6344Y-6.0486
X9.6948Y-6.2696
X9.7189Y-4.7984
X9.8135Y-6.0312
X9.8528Y-6.0696
X9.8583Y-2.5502
X9.867Y-5.9287
X9.8976Y-6.0669
X9.9105Y-4.3351
X9.9282Y-4.9132
X9.9282Y-5.0628
X9.9333Y-3.5416
X9.9643Y-3.4339
X9.97Y-5.3697
X9.9915Y-3.3277
X9.9953Y-5.7403
X10.0049Y-5.8464
X10.0168Y-4.7146
X10.0182Y-3.5328
X10.1457Y-4.3167
X10.2008Y-5.8162
X10.215Y-4.0122
X10.2474Y-4.435
X10.2837Y-4.4635
X10.2855Y-3.7225
X10.315Y-4.498
X10.3229Y-2.6998
X10.3485Y-3.1982
X10.5145Y-4.1839
X10.5296Y-2.2824
X10.5327Y-3.9042
X10.5327Y-4.0538
X10.5827Y-3.8257
X10.5949Y-2.4277
X10.6014Y-4.0122
X10.6104Y-3.4452
X10.693Y-3.3723
X10.8353Y-3.9035
X10.8729Y-4.2773
X10.9636Y-2.2733
X10.9666Y-2.0443
X10.973Y-2.1312
X11.0386Y-2.6244
X11.0529Y-5.3223
X11.1329Y-3.2615
X11.1494Y-1.6558
X11.1826Y-2.6244
X11.1952Y-2.9385
X11.2323Y-2.0423
X11.2412Y-4.351
X11.2542Y-3.9846
X11.2835Y-1.8887
X11.3033Y-2.9137
X11.4179Y-4.514
X11.4209Y-2.9172
X11.4369Y-3.1542
X11.4882Y-2.8572
X11.4954Y-3.4929
X11.4955Y-2.9443
X11.5583Y-4.4615
X11.7124Y-4.0404
X11.7311Y-2.8476
X11.7527Y-2.1312
X11.8394Y-3.1903
X11.8508Y-3.9954
X11.8602Y-3.7605
X11.8623Y-2.8966
X11.9802Y-4.0722
X12.0034Y-3.2601
X12.0111Y-2.3647
T2
X7.5217Y-6.0836
X7.6201Y-6.0836
T3
X3.141Y-5.747
X3.441Y-5.747
T4
X9.6083Y-1.3474
X9.6583Y-1.3474
X9.7083Y-1.3474
X11.3898Y-5.1899
X11.3898Y-5.2399
X11.3898Y-5.2899
X9.2949Y-1.3848
X9.3449Y-1.3848
X9.3949Y-1.3848
X9.0351Y-2.9419
X9.0351Y-2.9919
X9.0351Y-3.0419
X4.0024Y-4.0344
X4.0524Y-4.0344
X4.1024Y-4.0344
X11.193Y-5.1899
X11.193Y-5.2399
X11.193Y-5.2899
X11.5867Y-5.1899
X11.5867Y-5.2399
X11.5867Y-5.2899
T5
X11.3504Y-5.4887
X11.3504Y-5.8887
X11.3307Y-4.0537
X11.3307Y-4.4537
X3.7402Y-5.6131
X4.1402Y-5.6131
X2.1418Y-5.3454
X2.1418Y-5.4454
X2.1418Y-5.5454
X2.1418Y-5.6454
X2.1418Y-5.7454
X2.1418Y-5.8454
X2.1418Y-5.9454
X2.1418Y-6.0454
X2.4418Y-5.3454
X2.4418Y-5.4454
X2.4418Y-5.5454
X2.4418Y-5.6454
X2.4418Y-5.7454
X2.4418Y-5.8454
X2.4418Y-5.9454
X2.4418Y-6.0454
X4.3977Y-4.3557
X4.3977Y-4.4557
X4.3977Y-4.5557
X4.3977Y-4.6557
X4.3977Y-4.7557
X4.3977Y-4.8557
X4.3977Y-4.9557
X4.3977Y-5.0557
X4.3977Y-5.1557
X4.3977Y-5.2557
X4.3977Y-5.3557
X4.3977Y-5.4557
X4.3977Y-5.5557
X4.3977Y-5.6557
X4.3977Y-5.7557
X4.3977Y-5.8557
X4.3977Y-5.9557
X4.3977Y-6.0557
X4.3977Y-6.1557
X4.3977Y-6.2557
X4.9977Y-4.3557
X4.9977Y-4.4557
X4.9977Y-4.5557
X4.9977Y-4.6557
X4.9977Y-4.7557
X4.9977Y-4.8557
X4.9977Y-4.9557
X4.9977Y-5.0557
X4.9977Y-5.1557
X4.9977Y-5.2557
X4.9977Y-5.3557
X4.9977Y-5.4557
X4.9977Y-5.5557
X4.9977Y-5.6557
X4.9977Y-5.7557
X4.9977Y-5.8557
X4.9977Y-5.9557
X4.9977Y-6.0557
X4.9977Y-6.1557
X4.9977Y-6.2557
X6.3752Y-5.7364
X6.3752Y-6.0364
X6.4752Y-5.7364
X6.4752Y-6.0364
X6.5752Y-5.7364
X6.5752Y-6.0364
X6.6752Y-5.7364
X6.6752Y-6.0364
X6.7752Y-5.7364
X6.7752Y-6.0364
X6.8752Y-5.7364
X6.8752Y-6.0364
X6.9752Y-5.7364
X6.9752Y-6.0364
X11.568Y-1.3962
X11.568Y-1.7962
X2.8938Y-6.0777
X2.8938Y-6.4777
X10.7733Y-6.4104
X11.1733Y-6.4104
X11.2323Y-5.4887
X11.2323Y-5.8887
X3.4233Y-2.7628
X3.6201Y-2.7628
X9.2528Y-3.2372
X9.6528Y-3.2372
X7.4843Y-4.9714
X7.4843Y-5.3714
X7.6457Y-5.0521
X7.6457Y-5.5521
X2.9394Y-5.0698
X3.1363Y-5.0698
X3.9686Y-2.125
X3.9686Y-2.3218
X3.9686Y-2.5324
X3.9686Y-2.7293
X3.9331Y-1.6631
X3.9331Y-1.86
X7.0827Y-3.0872
X7.0827Y-3.284
X11.0552Y-2.2273
X11.4489Y-2.2273
X7.9705Y-5.2352
X7.9705Y-5.432
X9.2441Y-1.0462
X9.3819Y-1.0462
X3.7402Y-6.1565
X4.1402Y-6.1565
X11.4685Y-4.6817
X11.4685Y-5.0817
X11.1142Y-4.6817
X11.1142Y-5.0817
X4.9134Y-1.8533
X4.9134Y-2.0502
X11.3219Y-1.3962
X11.3219Y-1.7962
X7.2284Y-3.625
X7.2284Y-3.925
X7.3284Y-3.625
X7.3284Y-3.925
X7.4284Y-3.625
X7.4284Y-3.925
X7.5284Y-3.625
X7.5284Y-3.925
X7.6284Y-3.625
X7.6284Y-3.925
X7.7284Y-3.625
X7.7284Y-3.925
X7.8284Y-3.625
X7.8284Y-3.925
X7.9284Y-3.625
X7.9284Y-3.925
X8.0284Y-3.625
X8.0284Y-3.925
X8.1284Y-3.625
X8.1284Y-3.925
X6.0276Y-3.6222
X6.0276Y-3.9222
X6.1276Y-3.6222
X6.1276Y-3.9222
X6.2276Y-3.6222
X6.2276Y-3.9222
X6.3276Y-3.6222
X6.3276Y-3.9222
X6.4276Y-3.6222
X6.4276Y-3.9222
X6.5276Y-3.6222
X6.5276Y-3.9222
X6.6276Y-3.6222
X6.6276Y-3.9222
X6.7276Y-3.6222
X6.7276Y-3.9222
X6.8276Y-3.6222
X6.8276Y-3.9222
X6.9276Y-3.6222
X6.9276Y-3.9222
X5.0473Y-6.4832
X5.2441Y-6.4832
X11.5867Y-4.6817
X11.5867Y-5.0817
X9.1138Y-2.112
X9.5138Y-2.112
X3.8465Y-2.5049
X3.8465Y-2.7017
X11.3898Y-6.3021
X11.3898Y-6.499
X11.7048Y-5.4887
X11.7048Y-5.8887
X2.2067Y-6.238
X2.2067Y-6.4348
X8.4115Y-5.7124
X8.4115Y-6.2124
X3.9213Y-5.495
X4.1182Y-5.495
X10.1134Y-4.5423
X10.1134Y-4.6423
X10.1134Y-4.7423
X10.1134Y-4.8423
X10.1134Y-4.9423
X10.1134Y-5.0423
X10.1134Y-5.1423
X10.1134Y-5.2423
X10.1134Y-5.3423
X10.1134Y-5.4423
X10.1134Y-5.5423
X10.1134Y-5.6423
X10.1134Y-5.7423
X10.1134Y-5.8423
X10.7134Y-4.5423
X10.7134Y-4.6423
X10.7134Y-4.7423
X10.7134Y-4.8423
X10.7134Y-4.9423
X10.7134Y-5.0423
X10.7134Y-5.1423
X10.7134Y-5.2423
X10.7134Y-5.3423
X10.7134Y-5.4423
X10.7134Y-5.5423
X10.7134Y-5.6423
X10.7134Y-5.7423
X10.7134Y-5.8423
X5.0689Y-3.0025
X5.0689Y-3.3025
X5.1689Y-3.0025
X5.1689Y-3.3025
X5.2689Y-3.0025
X5.2689Y-3.3025
X5.3689Y-3.0025
X5.3689Y-3.3025
X5.4689Y-3.0025
X5.4689Y-3.3025
X5.5689Y-3.0025
X5.5689Y-3.3025
X5.6689Y-3.0025
X5.6689Y-3.3025
X5.7689Y-3.0025
X5.7689Y-3.3025
X5.8689Y-3.0025
X5.8689Y-3.3025
X9.5689Y-4.9813
X9.7658Y-4.9813
X7.2993Y-4.9714
X7.2993Y-5.3714
X4.9134Y-3.0383
X4.9134Y-3.2352
X5.0689Y-3.6222
X5.0689Y-3.9222
X5.1689Y-3.6222
X5.1689Y-3.9222
X5.2689Y-3.6222
X5.2689Y-3.9222
X5.3689Y-3.6222
X5.3689Y-3.9222
X5.4689Y-3.6222
X5.4689Y-3.9222
X5.5689Y-3.6222
X5.5689Y-3.9222
X5.6689Y-3.6222
X5.6689Y-3.9222
X5.7689Y-3.6222
X5.7689Y-3.9222
X5.8689Y-3.6222
X5.8689Y-3.9222
X4.0867Y-2.0974
X4.0867Y-2.2943
X10.0181Y-1.1561
X10.0181Y-1.5561
X7.626Y-5.682
X7.8229Y-5.682
X11.8327Y-4.1053
X11.8327Y-4.3021
X3.8111Y-1.6907
X3.8111Y-1.8876
X11.4882Y-4.1683
X11.6851Y-4.1683
X11.6811Y-1.4962
X11.6811Y-1.7962
X9.1536Y-2.6793
X9.3504Y-2.6793
X11.5335Y-1.9631
X11.6122Y-1.9631
X8.2599Y-5.7124
X8.2599Y-6.2124
X10.9961Y-5.6919
X10.9961Y-5.8887
X10.9528Y-1.3962
X10.9528Y-1.7962
X2.5591Y-6.2565
X2.5591Y-6.5565
X10.0902Y-2.1525
X10.0902Y-2.3494
X11.3504Y-4.6817
X11.3504Y-5.0817
X3.4233Y-2.6427
X3.6201Y-2.6427
X5.0689Y-2.4049
X5.0689Y-2.7049
X5.1689Y-2.4049
X5.1689Y-2.7049
X5.2689Y-2.4049
X5.2689Y-2.7049
X5.3689Y-2.4049
X5.3689Y-2.7049
X5.4689Y-2.4049
X5.4689Y-2.7049
X5.5689Y-2.4049
X5.5689Y-2.7049
X5.6689Y-2.4049
X5.6689Y-2.7049
X5.7689Y-2.4049
X5.7689Y-2.7049
X5.8689Y-2.4049
X5.8689Y-2.7049
X9.641Y-1.5891
X9.641Y-1.9891
X10.1378Y-1.1561
X10.1378Y-1.5561
X8.2914Y-3.5974
X8.2914Y-3.7943
X2.6615Y-6.2565
X2.6615Y-6.5565
X9.1138Y-1.6218
X9.5075Y-1.6218
X11.0758Y-1.3962
X11.0758Y-1.7962
X3.5249Y-2.9683
X3.5249Y-3.1061
X8.9489Y-3.9911
X8.9489Y-4.188
X3.0371Y-5.9045
X3.4371Y-5.9045
X7.0827Y-2.4887
X7.0827Y-2.6856
X3.7402Y-5.7313
X4.1402Y-5.7313
X11.4685Y-5.4887
X11.4685Y-5.8887
X9.1138Y-1.873
X9.5138Y-1.873
X9.0796Y-3.3572
X9.4796Y-3.3572
X6.6496Y-1.888
X6.6496Y-2.188
X5.1882Y-4.3557
X5.1882Y-4.4557
X5.1882Y-4.5557
X5.1882Y-4.6557
X5.1882Y-4.7557
X5.1882Y-4.8557
X5.1882Y-4.9557
X5.1882Y-5.0557
X5.1882Y-5.1557
X5.1882Y-5.2557
X5.1882Y-5.3557
X5.1882Y-5.4557
X5.1882Y-5.5557
X5.1882Y-5.6557
X5.1882Y-5.7557
X5.1882Y-5.8557
X5.1882Y-5.9557
X5.1882Y-6.0557
X5.1882Y-6.1557
X5.1882Y-6.2557
X5.7882Y-4.3557
X5.7882Y-4.4557
X5.7882Y-4.5557
X5.7882Y-4.6557
X5.7882Y-4.7557
X5.7882Y-4.8557
X5.7882Y-4.9557
X5.7882Y-5.0557
X5.7882Y-5.1557
X5.7882Y-5.2557
X5.7882Y-5.3557
X5.7882Y-5.4557
X5.7882Y-5.5557
X5.7882Y-5.6557
X5.7882Y-5.7557
X5.7882Y-5.8557
X5.7882Y-5.9557
X5.7882Y-6.0557
X5.7882Y-6.1557
X5.7882Y-6.2557
X3.2536Y-5.1998
X3.6536Y-5.1998
X3.8701Y-4.4557
X3.8701Y-4.5557
X3.8701Y-4.6557
X3.8701Y-4.7557
X3.8701Y-4.8557
X3.8701Y-4.9557
X3.8701Y-5.0557
X3.8701Y-5.1557
X3.8701Y-5.2557
X3.8701Y-5.3557
X4.1701Y-4.4557
X4.1701Y-4.5557
X4.1701Y-4.6557
X4.1701Y-4.7557
X4.1701Y-4.8557
X4.1701Y-4.9557
X4.1701Y-5.0557
X4.1701Y-5.1557
X4.1701Y-5.2557
X4.1701Y-5.3557
X9.165Y-3.6096
X9.5587Y-3.6096
X9.4567Y-2.7549
X9.6536Y-2.7549
X3.8111Y-3.7805
X4.0079Y-3.7805
X4.9107Y-3.686
X4.9107Y-3.8828
X10.7733Y-6.1643
X11.1733Y-6.1643
X10.2244Y-1.7777
X10.2244Y-1.8777
X10.2244Y-1.9777
X10.2244Y-2.0777
X10.2244Y-2.1777
X10.2244Y-2.2777
X10.2244Y-2.3777
X10.2244Y-2.4777
X10.2244Y-2.5777
X10.2244Y-2.6777
X10.2244Y-2.7777
X10.2244Y-2.8777
X10.2244Y-2.9777
X10.2244Y-3.0777
X10.2244Y-3.1777
X10.2244Y-3.2777
X10.2244Y-3.3777
X10.2244Y-3.4777
X10.2244Y-3.5777
X10.2244Y-3.6777
X10.8244Y-1.7777
X10.8244Y-1.8777
X10.8244Y-1.9777
X10.8244Y-2.0777
X10.8244Y-2.1777
X10.8244Y-2.2777
X10.8244Y-2.3777
X10.8244Y-2.4777
X10.8244Y-2.5777
X10.8244Y-2.6777
X10.8244Y-2.7777
X10.8244Y-2.8777
X10.8244Y-2.9777
X10.8244Y-3.0777
X10.8244Y-3.1777
X10.8244Y-3.2777
X10.8244Y-3.3777
X10.8244Y-3.4777
X10.8244Y-3.5777
X10.8244Y-3.6777
X9.1138Y-2.232
X9.5138Y-2.232
X9.2532Y-2.8757
X9.6532Y-2.8757
X3.8504Y-2.125
X3.8504Y-2.3218
X10.9658Y-2.3651
X10.9658Y-2.4651
X10.9658Y-2.5651
X10.9658Y-2.6651
X10.9658Y-2.7651
X10.9658Y-2.8651
X10.9658Y-2.9651
X10.9658Y-3.0651
X10.9658Y-3.1651
X10.9658Y-3.2651
X11.2658Y-2.3651
X11.2658Y-2.4651
X11.2658Y-2.5651
X11.2658Y-2.6651
X11.2658Y-2.7651
X11.2658Y-2.8651
X11.2658Y-2.9651
X11.2658Y-3.0651
X11.2658Y-3.1651
X11.2658Y-3.2651
X6.0276Y-3.0025
X6.0276Y-3.3025
X6.1276Y-3.0025
X6.1276Y-3.3025
X6.2276Y-3.0025
X6.2276Y-3.3025
X6.3276Y-3.0025
X6.3276Y-3.3025
X6.4276Y-3.0025
X6.4276Y-3.3025
X6.5276Y-3.0025
X6.5276Y-3.3025
X6.6276Y-3.0025
X6.6276Y-3.3025
X6.7276Y-3.0025
X6.7276Y-3.3025
X6.8276Y-3.0025
X6.8276Y-3.3025
X6.9276Y-3.0025
X6.9276Y-3.3025
X1.9686Y-6.184
X1.9686Y-6.3809
X10.7331Y-1.4781
X10.8119Y-1.4781
X10.7733Y-6.2923
X11.1733Y-6.2923
X11.5867Y-5.4887
X11.5867Y-5.8887
X6.1024Y-6.1344
X6.1024Y-6.5344
X11.2087Y-4.2096
X11.2087Y-4.4065
X9.0906Y-3.7962
X9.0906Y-4.1962
X2.5985Y-5.3572
X2.7953Y-5.3572
X11.8229Y-1.625
X11.8229Y-1.8218
X4.6024Y-6.4832
X4.7993Y-6.4832
X9.1138Y-1.9923
X9.5138Y-1.9923
X9.2532Y-2.9962
X9.6532Y-2.9962
X11.5532Y-2.8986
X11.5532Y-2.9986
X11.5532Y-3.0986
X11.5532Y-3.1986
X11.5532Y-3.2986
X11.5532Y-3.3986
X11.5532Y-3.4986
X11.5532Y-3.5986
X11.5532Y-3.6986
X5.9804Y-6.1344
X5.9804Y-6.5344
X4.9134Y-2.4612
X4.9134Y-2.658
X9.7642Y-1.5891
X9.7642Y-1.9891
X11.6886Y-2.8943
X11.6886Y-2.9943
X11.6886Y-3.0943
X11.6886Y-3.1943
X11.6886Y-3.2943
X11.6886Y-3.3943
X11.6886Y-3.4943
X11.6886Y-3.5943
X11.6886Y-3.6943
X11.6886Y-3.7943
X2.7717Y-6.0777
X2.7717Y-6.4777
X9.5119Y-5.1517
X9.5119Y-5.2517
X9.5119Y-5.3517
X9.5119Y-5.4517
X9.5119Y-5.5517
X9.5119Y-5.6517
X9.5119Y-5.7517
X9.5119Y-5.8517
X9.8119Y-5.1517
X9.8119Y-5.2517
X9.8119Y-5.3517
X9.8119Y-5.4517
X9.8119Y-5.5517
X9.8119Y-5.6517
X9.8119Y-5.7517
X9.8119Y-5.8517
X8.2441Y-4.6187
X8.2441Y-4.7187
X8.2441Y-4.8187
X8.2441Y-4.9187
X8.2441Y-5.0187
X8.2441Y-5.1187
X8.2441Y-5.2187
X8.2441Y-5.3187
X8.2441Y-5.4187
X8.3441Y-4.5187
X8.3441Y-4.6187
X8.3441Y-4.7187
X8.3441Y-4.8187
X8.3441Y-4.9187
X8.3441Y-5.0187
X8.3441Y-5.1187
X8.3441Y-5.2187
X8.3441Y-5.3187
X8.3441Y-5.4187
X8.3441Y-5.5187
X8.4441Y-4.5187
X8.4441Y-4.6187
X8.4441Y-5.4187
X8.4441Y-5.5187
X8.5441Y-4.5187
X8.5441Y-4.6187
X8.5441Y-5.4187
X8.5441Y-5.5187
X8.6441Y-4.5187
X8.6441Y-4.6187
X8.6441Y-5.4187
X8.6441Y-5.5187
X8.7441Y-4.5187
X8.7441Y-4.6187
X8.7441Y-5.4187
X8.7441Y-5.5187
X8.8441Y-4.5187
X8.8441Y-4.6187
X8.8441Y-5.4187
X8.8441Y-5.5187
X8.9441Y-4.5187
X8.9441Y-4.6187
X8.9441Y-5.4187
X8.9441Y-5.5187
X9.0441Y-4.5187
X9.0441Y-4.6187
X9.0441Y-5.4187
X9.0441Y-5.5187
X9.1441Y-4.5187
X9.1441Y-4.6187
X9.1441Y-4.7187
X9.1441Y-4.8187
X9.1441Y-4.9187
X9.1441Y-5.0187
X9.1441Y-5.1187
X9.1441Y-5.2187
X9.1441Y-5.3187
X9.1441Y-5.4187
X9.1441Y-5.5187
X9.2441Y-4.6187
X9.2441Y-4.7187
X9.2441Y-4.8187
X9.2441Y-4.9187
X9.2441Y-5.0187
X9.2441Y-5.1187
X9.2441Y-5.2187
X9.2441Y-5.3187
X9.2441Y-5.4187
X9.5158Y-3.9931
X9.5158Y-4.1899
X7.0778Y-3.6856
X7.0778Y-3.8824
X9.8835Y-1.5891
X9.8835Y-1.9891
X4.2559Y-3.7214
X4.2559Y-3.8592
X11.1142Y-5.4887
X11.1142Y-5.8887
X4.0867Y-1.6907
X4.0867Y-1.8876
X6.2284Y-5.2864
X6.2284Y-5.4832
X11.6162Y-6.3317
X12.0099Y-6.3317
X11.2323Y-4.6817
X11.2323Y-5.0817
X11.7048Y-4.6817
X11.7048Y-5.0817
X9.2886Y-4.0765
X9.2886Y-4.1553
X5.2166Y-1.5836
X5.4134Y-1.5836
X9.1457Y-0.758
X9.2245Y-0.758
X9.3032Y-0.758
X5.0689Y-1.825
X5.0689Y-2.125
X5.1689Y-1.825
X5.1689Y-2.125
X5.2689Y-1.825
X5.2689Y-2.125
X5.3689Y-1.825
X5.3689Y-2.125
X5.4689Y-1.825
X5.4689Y-2.125
X5.5689Y-1.825
X5.5689Y-2.125
X5.6689Y-1.825
X5.6689Y-2.125
X5.7689Y-1.825
X5.7689Y-2.125
X5.8689Y-1.825
X5.8689Y-2.125
X6.3752Y-5.2328
X6.3752Y-5.5328
X6.4752Y-5.2328
X6.4752Y-5.5328
X6.5752Y-5.2328
X6.5752Y-5.5328
X6.6752Y-5.2328
X6.6752Y-5.5328
X6.7752Y-5.2328
X6.7752Y-5.5328
X6.8752Y-5.2328
X6.8752Y-5.5328
X6.9752Y-5.2328
X6.9752Y-5.5328
X11.5079Y-6.3021
X11.5079Y-6.499
X3.7402Y-5.9242
X4.1402Y-5.9242
X11.4449Y-1.3962
X11.4449Y-1.7962
X3.8111Y-3.6584
X4.0079Y-3.6584
X6.502Y-1.8631
X6.502Y-2.06
X11.1989Y-1.3962
X11.1989Y-1.7962
X2.0158Y-5.4336
X2.0158Y-5.8336
X3.9253Y-4.3218
X4.1221Y-4.3218
X10.426Y-1.4809
X10.5048Y-1.4809
X9.7689Y-2.2352
X9.8477Y-2.2352
X9.5004Y-2.5372
X9.5004Y-2.6159
X10.0056Y-1.7509
X10.0056Y-1.9478
X2.4449Y-6.1565
X2.4449Y-6.5565
X4.093Y-2.5049
X4.093Y-2.7017
X9.0552Y-1.0584
X9.0552Y-1.4584
X9.2827Y-3.4781
X9.4796Y-3.4781
X9.1138Y-1.7537
X9.5138Y-1.7537
X5.3583Y-4.1624
X5.5552Y-4.1624
X6.0276Y-2.4049
X6.0276Y-2.7049
X6.1276Y-2.4049
X6.1276Y-2.7049
X6.2276Y-2.4049
X6.2276Y-2.7049
X6.3276Y-2.4049
X6.3276Y-2.7049
X6.4276Y-2.4049
X6.4276Y-2.7049
X6.5276Y-2.4049
X6.5276Y-2.7049
X6.6276Y-2.4049
X6.6276Y-2.7049
X6.7276Y-2.4049
X6.7276Y-2.7049
X6.8276Y-2.4049
X6.8276Y-2.7049
X6.9276Y-2.4049
X6.9276Y-2.7049
X3.7402Y-6.2785
X4.1402Y-6.2785
X6.2284Y-5.7746
X6.2284Y-5.9714
X5.7036Y-1.5553
X5.802Y-1.5553
X7.3248Y-5.9143
X7.3248Y-6.3143
X2.5985Y-5.5502
X2.7953Y-5.5502
X10.2583Y-1.1557
X10.2583Y-1.5557
X9.2528Y-3.1171
X9.6528Y-3.1171
X10.5985Y-4.3986
X10.7953Y-4.3986
T6
X3.8949Y-3.5069
X4.2244Y-3.5069
X3.8949Y-3.3376
X4.2244Y-3.3376
X4.6451Y-1.6403
X4.9746Y-1.6403
X3.1146Y-5.5265
X3.4441Y-5.5265
X4.6451Y-1.4671
X4.9746Y-1.4671
X6.0217Y-1.4594
X6.0217Y-1.7889
X9.6615Y-3.9641
X9.6615Y-4.2937
X6.1719Y-1.4222
X6.5014Y-1.4222
T7
X4.3556Y-2.3698
X4.3556Y-2.7698
X4.217Y-1.8096
X4.217Y-2.2096
X4.3457Y-1.8096
X4.3457Y-2.2096
X4.2253Y-2.3702
X4.2253Y-2.7702
T9
X6.2028Y-4.1565
X6.3028Y-4.1565
X6.4028Y-4.1565
X6.5028Y-4.1565
X6.6028Y-4.1565
X6.7028Y-4.1565
X6.8028Y-4.1565
X6.9028Y-4.1565
X7.0028Y-4.1565
X7.1028Y-4.1565
X7.2028Y-4.1565
X7.3028Y-4.1565
X4.5Y-1.7376
X4.5Y-1.8376
X4.5Y-1.9376
X4.5Y-2.0376
X4.5Y-2.1376
X4.5Y-2.2376
X4.5Y-2.3376
X4.5Y-2.4376
X4.5Y-2.5376
X4.5Y-2.6376
X4.5Y-2.7376
X4.5Y-2.8376
X11.5292Y-6.0446
X11.5292Y-6.1446
X11.6292Y-6.0446
X11.6292Y-6.1446
X11.7292Y-6.0446
X11.7292Y-6.1446
X11.8292Y-6.0446
X11.8292Y-6.1446
X11.9292Y-6.0446
X11.9292Y-6.1446
X6.0804Y-4.8025
X6.1804Y-4.8025
X6.2804Y-4.8025
X6.3804Y-4.8025
X6.4804Y-4.8025
X6.5804Y-4.8025
X6.6804Y-4.8025
X6.7804Y-4.8025
X6.8804Y-4.8025
X6.9804Y-4.8025
X7.0804Y-4.8025
X7.1804Y-4.8025
X7.2804Y-4.8025
X7.3804Y-4.8025
X7.4804Y-4.8025
X7.5804Y-4.8025
X7.813Y-5.0443
X7.813Y-5.5443
X4.5Y-2.9383
X4.5Y-3.0383
X4.5Y-3.1383
X4.5Y-3.2383
X4.5Y-3.3383
X4.5Y-3.4383
X4.5Y-3.5383
X4.5Y-3.6383
X4.5Y-3.7383
X4.5Y-3.8383
X4.5Y-3.9383
X4.5Y-4.0383
T10
X10.9351Y-0.7297
X11.1123Y-0.7297
T11
X7.3563Y-5.5383
X7.3563Y-5.7352
T12
X11.9405Y-2.0647
X11.9405Y-2.1647
X11.9405Y-2.2647
X11.9405Y-2.3647
X11.9405Y-2.4647
X11.9405Y-2.5647
X11.9405Y-2.6647
X11.9405Y-2.7647
X11.9405Y-2.8647
X11.9405Y-2.9647
X11.9405Y-3.0647
X11.9405Y-3.1647
X11.9405Y-3.2647
X11.9405Y-3.3647
X11.9405Y-3.4647
X11.9405Y-3.5647
X11.9405Y-3.6647
X11.9405Y-3.7647
X11.9405Y-3.8647
X11.9405Y-3.9647
X12.0965Y-2.0647
X12.0965Y-2.1647
X12.0965Y-2.2647
X12.0965Y-2.3647
X12.0965Y-2.4647
X12.0965Y-2.5647
X12.0965Y-2.6647
X12.0965Y-2.7647
X12.0965Y-2.8647
X12.0965Y-2.9647
X12.0965Y-3.0647
X12.0965Y-3.1647
X12.0965Y-3.2647
X12.0965Y-3.3647
X12.0965Y-3.4647
X12.0965Y-3.5647
X12.0965Y-3.6647
X12.0965Y-3.7647
X12.0965Y-3.8647
X12.0965Y-3.9647
T13
X3.352Y-4.6246
X3.352Y-5.0246
X3.5296Y-4.6246
X3.5296Y-5.0246
X3.9138Y-3.0557
X4.3138Y-3.0557
X2.4725Y-4.5676
X2.4725Y-4.6676
X2.4725Y-4.7676
X3.9138Y-3.1848
X4.3138Y-3.1848
T14
X6.3583Y-1.5698
X6.3583Y-2.0698
X6.189Y-1.5698
X6.189Y-2.0698
X1.8741Y-5.3714
X1.8741Y-5.9714
X2.7914Y-4.4399
X2.9882Y-4.4399
T16
X7.866Y-3.0226
X8.0628Y-3.0226
X8.2597Y-3.0226
X8.4565Y-3.0226
X6.6713Y-1.1403
X6.7697Y-0.7466
X6.7697Y-1.2387
X6.8681Y-0.7466
X6.9666Y-1.1403
X7.065Y-0.7466
X7.1634Y-0.7466
X7.1634Y-1.2387
X7.2619Y-1.1403
X3.9536Y-1.1403
X4.052Y-0.7466
X4.052Y-1.2387
X4.1504Y-0.7466
X4.2489Y-1.1403
X4.2489Y-1.3372
X4.3473Y-0.7466
X4.4457Y-0.7466
X4.4457Y-1.2387
X4.5441Y-1.1403
X5.7646Y-1.1403
X5.863Y-0.7466
X5.863Y-1.1403
X5.863Y-1.2387
X5.9615Y-0.7466
X5.9615Y-1.2387
X6.1583Y-0.7466
X6.1583Y-1.2387
X6.2567Y-0.7466
X6.2567Y-1.1403
X6.2567Y-1.2387
X6.3552Y-1.1403
X6.6355Y-1.7722
X6.7355Y-1.4722
X6.7955Y-1.7722
X7.2355Y-1.4722
X7.2355Y-1.7722
X4.8591Y-1.1403
X4.9575Y-0.7466
X4.9575Y-1.2387
X5.0559Y-0.7466
X5.1544Y-1.1403
X5.1544Y-1.3372
X5.2528Y-0.7466
X5.3512Y-0.7466
X5.3512Y-1.2387
X5.4496Y-1.1403
T17
X9.0335Y-0.758
X9.4154Y-0.758
X10.8859Y-0.8281
X11.1615Y-0.8281
T18
X3.3544Y-3.4832
X3.3544Y-4.0832
X3.5847Y-3.4832
X3.5847Y-4.0832
T19
X3.4768Y-2.1675
X3.4768Y-2.3234
X3.4768Y-2.4793
T20
X3.3875Y-1.31
X3.3875Y-1.4675
X3.3875Y-1.625
X3.6237Y-1.31
X3.6237Y-1.4675
X3.6237Y-1.625
T21
X12.2815Y-1.7272
X12.2815Y-4.3022
T22
X6.6713Y-0.9435
X7.2619Y-0.9435
X3.9536Y-0.9435
X4.5441Y-0.9435
X5.7646Y-0.9435
X6.3552Y-0.9435
X4.8591Y-0.9435
X5.4496Y-0.9435
T23
X1.8166Y-4.6676
T8
G00X9.8029Y-0.8415
M15
G01X9.8429Y-0.8415
M16
G05
G00X9.8229Y-1.0387
M15
G01X9.8229Y-0.9987
M16
G05
G00X10.3738Y-0.8415
M15
G01X10.4138Y-0.8415
M16
G05
G00X10.3938Y-1.0387
M15
G01X10.3938Y-0.9987
M16
G05
T15
G00X7.4536Y-2.1072
M15
G01X7.4536Y-1.8513
M16
G05
G00X8.0333Y-0.7736
M15
G01X8.2892Y-0.7736
M16
G05
G00X8.0333Y-3.1555
M15
G01X8.2892Y-3.1555
M16
G05
G00X8.8552Y-2.1072
M15
G01X8.8552Y-1.8513
M16
G05
T23
G00X1.7638Y-6.558
M15
G01X1.8426Y-6.558
M16
G05
G00X12.3937Y-6.558
M15
G01X12.4725Y-6.558
M16
G05
T0
M30
